<svg xmlns="http://www.w3.org/2000/svg" version="1.1" width="251.45999999999998mm" height="215.89999999999998mm" viewBox = " 0 0 891.0007325999999 765.0006289999999" >
<!-- Front--> 
<g transform="translate(22.500018499999996, 22.500018499999996) " > 
<polygon style="stroke:#000000; fill:none; stroke-width:0.90000074" points="10.62993, 0 27.035455299999995, 0 27.035455299999995, 10.62993 35.06105244999999, 10.62993 35.06105244999999, 18.070881 30.631914949999995, 18.070881 30.631914949999995, 26.929156 35.06105244999999, 26.929156 35.06105244999999, 35.787431 46.045313449999995, 35.787431 46.045313449999995, 26.929156 50.47445094999999, 26.929156 50.47445094999999, 18.070881 46.045313449999995, 18.070881 46.045313449999995, 10.62993 54.07091059999999, 10.62993 54.07091059999999, 0 75.3307706, 0 75.3307706, 10.62993 96.5906306, 10.62993 96.5906306, 0 117.85049059999999, 0 117.85049059999999, 10.62993 139.1103506, 10.62993 139.1103506, 0 160.3702106, 0 160.3702106, 10.62993 181.63007059999998, 10.62993 181.63007059999998, 0 202.88993059999999, 0 202.88993059999999, 10.62993 224.1497906, 10.62993 224.1497906, 0 245.4096506, 0 245.4096506, 10.62993 266.66951059999997, 10.62993 266.66951059999997, 0 287.92937059999997, 0 287.92937059999997, 10.62993 295.95496775000004, 10.62993 295.95496775000004, 18.070881 291.52583025, 18.070881 291.52583025, 26.929156 295.95496775000004, 26.929156 295.95496775000004, 35.787431 306.93922875, 35.787431 306.93922875, 26.929156 311.36836625, 26.929156 311.36836625, 18.070881 306.93922875, 18.070881 306.93922875, 10.62993 314.9648259, 10.62993 314.9648259, 0 331.37035119999996, 0 331.37035119999996, 31.535458999999996 342.00028119999996, 31.535458999999996 342.00028119999996, 40.74806499999999 328.89003419999995, 40.74806499999999 328.89003419999995, 53.85831199999999 342.00028119999996, 53.85831199999999 342.00028119999996, 63.07091799999999 331.37035119999996, 63.07091799999999 331.37035119999996, 84.330778 342.00028119999996, 84.330778 342.00028119999996, 105.59063799999998 331.37035119999996, 105.59063799999998 331.37035119999996, 126.85049799999999 342.00028119999996, 126.85049799999999 342.00028119999996, 148.110358 331.37035119999996, 148.110358 331.37035119999996, 169.370218 342.00028119999996, 169.370218 342.00028119999996, 190.63007799999997 331.37035119999996, 190.63007799999997 331.37035119999996, 211.88993799999997 342.00028119999996, 211.88993799999997 342.00028119999996, 233.14979799999998 331.37035119999996, 233.14979799999998 331.37035119999996, 254.40965799999998 342.00028119999996, 254.40965799999998 342.00028119999996, 275.669518 331.37035119999996, 275.669518 331.37035119999996, 296.929378 342.00028119999996, 296.929378 342.00028119999996, 306.14198400000004 328.89003419999995, 306.14198400000004 328.89003419999995, 319.252231 342.00028119999996, 319.252231 342.00028119999996, 328.464837 331.37035119999996, 328.464837 331.3703512, 360.000296 314.9648259, 360.000296 314.9648259, 349.370366 306.93922875, 349.370366 306.93922875, 341.929415 311.36836625, 341.929415 311.36836625, 333.07114 306.93922875, 333.07114 306.93922875, 324.21286499999997 295.95496775000004, 324.21286499999997 295.95496775000004, 333.07114 291.52583025, 333.07114 291.52583025, 341.929415 295.95496775000004, 341.929415 295.95496775000004, 349.370366 287.92937059999997, 349.370366 287.92937059999997, 360.000296 266.66951059999997, 360.000296 266.66951059999997, 349.370366 245.4096506, 349.370366 245.4096506, 360.000296 224.1497906, 360.000296 224.1497906, 349.370366 202.88993059999999, 349.370366 202.88993059999999, 360.000296 181.63007059999998, 360.000296 181.63007059999998, 349.370366 160.3702106, 349.370366 160.3702106, 360.000296 139.1103506, 360.000296 139.1103506, 349.370366 117.85049059999999, 349.370366 117.85049059999999, 360.000296 96.5906306, 360.000296 96.5906306, 349.370366 75.3307706, 349.370366 75.3307706, 360.000296 54.07091059999999, 360.000296 54.07091059999999, 349.370366 46.045313449999995, 349.370366 46.045313449999995, 341.929415 50.47445094999999, 341.929415 50.47445094999999, 333.07114 46.045313449999995, 333.07114 46.045313449999995, 324.21286499999997 35.06105244999999, 324.21286499999997 35.06105244999999, 333.07114 30.631914949999995, 333.07114 30.631914949999995, 341.929415 35.06105244999999, 341.929415 35.06105244999999, 349.370366 27.035455299999995, 349.370366 27.035455299999995, 360.000296 10.62993, 360.000296 10.62993, 328.464837 0, 328.464837 0, 319.252231 13.110247000000001, 319.252231 13.110247000000001, 306.14198400000004 0, 306.14198400000004 0, 296.929378 10.62993, 296.929378 10.62993, 275.669518 0, 275.669518 0, 254.40965799999998 10.62993, 254.40965799999998 10.62993, 233.14979799999998 0, 233.14979799999998 0, 211.88993799999997 10.62993, 211.88993799999997 10.62993, 190.63007799999997 0, 190.63007799999997 0, 169.370218 10.62993, 169.370218 10.62993, 148.110358 0, 148.110358 0, 126.85049799999999 10.62993, 126.85049799999999 10.62993, 105.59063799999998 0, 105.59063799999998 0, 84.330778 10.62993, 84.330778 10.62993, 63.07091799999999 0, 63.07091799999999 0, 53.85831199999999 13.110247000000001, 53.85831199999999 13.110247000000001, 40.74806499999999 0, 40.74806499999999 0, 31.535458999999996 10.62993, 31.535458999999996 "/> 
</g>
<!-- Back--> 
<g transform="translate(364.50029969999997, 22.500018499999996) " > 
<polygon style="stroke:#000000; fill:none; stroke-width:0.90000074" points="10.62993, 0 27.035455299999995, 0 27.035455299999995, 10.62993 35.06105244999999, 10.62993 35.06105244999999, 18.070881 30.631914949999995, 18.070881 30.631914949999995, 26.929156 35.06105244999999, 26.929156 35.06105244999999, 35.787431 46.045313449999995, 35.787431 46.045313449999995, 26.929156 50.47445094999999, 26.929156 50.47445094999999, 18.070881 46.045313449999995, 18.070881 46.045313449999995, 10.62993 54.07091059999999, 10.62993 54.07091059999999, 0 75.3307706, 0 75.3307706, 10.62993 96.5906306, 10.62993 96.5906306, 0 117.85049059999999, 0 117.85049059999999, 10.62993 139.1103506, 10.62993 139.1103506, 0 160.3702106, 0 160.3702106, 10.62993 181.63007059999998, 10.62993 181.63007059999998, 0 202.88993059999999, 0 202.88993059999999, 10.62993 224.1497906, 10.62993 224.1497906, 0 245.4096506, 0 245.4096506, 10.62993 266.66951059999997, 10.62993 266.66951059999997, 0 287.92937059999997, 0 287.92937059999997, 10.62993 295.95496775000004, 10.62993 295.95496775000004, 18.070881 291.52583025, 18.070881 291.52583025, 26.929156 295.95496775000004, 26.929156 295.95496775000004, 35.787431 306.93922875, 35.787431 306.93922875, 26.929156 311.36836625, 26.929156 311.36836625, 18.070881 306.93922875, 18.070881 306.93922875, 10.62993 314.9648259, 10.62993 314.9648259, 0 331.37035119999996, 0 331.37035119999996, 31.535458999999996 342.00028119999996, 31.535458999999996 342.00028119999996, 40.74806499999999 328.89003419999995, 40.74806499999999 328.89003419999995, 53.85831199999999 342.00028119999996, 53.85831199999999 342.00028119999996, 63.07091799999999 331.37035119999996, 63.07091799999999 331.37035119999996, 84.330778 342.00028119999996, 84.330778 342.00028119999996, 105.59063799999998 331.37035119999996, 105.59063799999998 331.37035119999996, 126.85049799999999 342.00028119999996, 126.85049799999999 342.00028119999996, 148.110358 331.37035119999996, 148.110358 331.37035119999996, 169.370218 342.00028119999996, 169.370218 342.00028119999996, 190.63007799999997 331.37035119999996, 190.63007799999997 331.37035119999996, 211.88993799999997 342.00028119999996, 211.88993799999997 342.00028119999996, 233.14979799999998 331.37035119999996, 233.14979799999998 331.37035119999996, 254.40965799999998 342.00028119999996, 254.40965799999998 342.00028119999996, 275.669518 331.37035119999996, 275.669518 331.37035119999996, 296.929378 342.00028119999996, 296.929378 342.00028119999996, 306.14198400000004 328.89003419999995, 306.14198400000004 328.89003419999995, 319.252231 342.00028119999996, 319.252231 342.00028119999996, 328.464837 331.37035119999996, 328.464837 331.3703512, 360.000296 314.9648259, 360.000296 314.9648259, 349.370366 306.93922875, 349.370366 306.93922875, 341.929415 311.36836625, 341.929415 311.36836625, 333.07114 306.93922875, 333.07114 306.93922875, 324.21286499999997 295.95496775000004, 324.21286499999997 295.95496775000004, 333.07114 291.52583025, 333.07114 291.52583025, 341.929415 295.95496775000004, 341.929415 295.95496775000004, 349.370366 287.92937059999997, 349.370366 287.92937059999997, 360.000296 266.66951059999997, 360.000296 266.66951059999997, 349.370366 245.4096506, 349.370366 245.4096506, 360.000296 224.1497906, 360.000296 224.1497906, 349.370366 202.88993059999999, 349.370366 202.88993059999999, 360.000296 181.63007059999998, 360.000296 181.63007059999998, 349.370366 160.3702106, 349.370366 160.3702106, 360.000296 139.1103506, 360.000296 139.1103506, 349.370366 117.85049059999999, 349.370366 117.85049059999999, 360.000296 96.5906306, 360.000296 96.5906306, 349.370366 75.3307706, 349.370366 75.3307706, 360.000296 54.07091059999999, 360.000296 54.07091059999999, 349.370366 46.045313449999995, 349.370366 46.045313449999995, 341.929415 50.47445094999999, 341.929415 50.47445094999999, 333.07114 46.045313449999995, 333.07114 46.045313449999995, 324.21286499999997 35.06105244999999, 324.21286499999997 35.06105244999999, 333.07114 30.631914949999995, 333.07114 30.631914949999995, 341.929415 35.06105244999999, 341.929415 35.06105244999999, 349.370366 27.035455299999995, 349.370366 27.035455299999995, 360.000296 10.62993, 360.000296 10.62993, 328.464837 0, 328.464837 0, 319.252231 13.110247000000001, 319.252231 13.110247000000001, 306.14198400000004 0, 306.14198400000004 0, 296.929378 10.62993, 296.929378 10.62993, 275.669518 0, 275.669518 0, 254.40965799999998 10.62993, 254.40965799999998 10.62993, 233.14979799999998 0, 233.14979799999998 0, 211.88993799999997 10.62993, 211.88993799999997 10.62993, 190.63007799999997 0, 190.63007799999997 0, 169.370218 10.62993, 169.370218 10.62993, 148.110358 0, 148.110358 0, 126.85049799999999 10.62993, 126.85049799999999 10.62993, 105.59063799999998 0, 105.59063799999998 0, 84.330778 10.62993, 84.330778 10.62993, 63.07091799999999 0, 63.07091799999999 0, 53.85831199999999 13.110247000000001, 53.85831199999999 13.110247000000001, 40.74806499999999 0, 40.74806499999999 0, 31.535458999999996 10.62993, 31.535458999999996 "/> 
</g>
<!-- Left--> 
<g transform="translate(706.5005808999999, 22.500018499999996) " > 
<polygon style="stroke:#000000; fill:none; stroke-width:0.90000074" points="0, 10.62993 35.1850683, 10.62993 35.1850683, 0 46.222478949999996, 0 46.222478949999996, 13.110247000000001 59.33272595, 13.110247000000001 59.33272595, 0 70.3701366, 0 70.3701366, 10.62993 91.6299966, 10.62993 91.6299966, 0 102.66740725, 0 102.66740725, 13.110247000000001 115.77765425000001, 13.110247000000001 115.77765425000001, 0 126.8150649, 0 126.8150649, 10.62993 162.0001332, 10.62993 162.0001332, 31.535458999999996 151.3702032, 31.535458999999996 151.3702032, 41.81105799999999 143.92925219999998, 41.81105799999999 143.92925219999998, 37.38192049999999 135.0709772, 37.38192049999999 135.0709772, 41.81105799999999 126.2127022, 41.81105799999999 126.2127022, 52.79531899999999 135.0709772, 52.79531899999999 135.0709772, 57.22445649999999 143.92925219999998, 57.22445649999999 143.92925219999998, 52.79531899999999 151.3702032, 52.79531899999999 151.3702032, 63.07091799999999 162.0001332, 63.07091799999999 162.0001332, 84.330778 151.3702032, 84.330778 151.3702032, 105.59063799999998 162.0001332, 105.59063799999998 162.0001332, 126.85049799999999 151.3702032, 126.85049799999999 151.3702032, 148.110358 162.0001332, 148.110358 162.0001332, 169.370218 151.3702032, 169.370218 151.3702032, 190.63007799999997 162.0001332, 190.63007799999997 162.0001332, 211.88993799999997 151.3702032, 211.88993799999997 151.3702032, 233.14979799999998 162.0001332, 233.14979799999998 162.0001332, 254.40965799999998 151.3702032, 254.40965799999998 151.3702032, 275.669518 162.0001332, 275.669518 162.0001332, 296.929378 151.3702032, 296.929378 151.3702032, 307.20497700000004 143.92925219999998, 307.20497700000004 143.92925219999998, 302.7758395 135.0709772, 302.7758395 135.0709772, 307.20497700000004 126.2127022, 307.20497700000004 126.2127022, 318.189238 135.0709772, 318.189238 135.0709772, 322.6183755 143.92925219999998, 322.6183755 143.92925219999998, 318.189238 151.3702032, 318.189238 151.3702032, 328.464837 162.0001332, 328.464837 162.0001332, 349.370366 126.8150649, 349.370366 126.8150649, 360.000296 115.77765425000001, 360.000296 115.77765425000001, 346.890049 102.66740725, 346.890049 102.66740725, 360.000296 91.6299966, 360.000296 91.6299966, 349.370366 70.3701366, 349.370366 70.3701366, 360.000296 59.33272595, 360.000296 59.33272595, 346.890049 46.222478949999996, 346.890049 46.222478949999996, 360.000296 35.1850683, 360.000296 35.1850683, 349.370366 0, 349.370366 0, 328.464837 10.62993, 328.464837 10.62993, 318.189238 18.070881, 318.189238 18.070881, 322.6183755 26.929156, 322.6183755 26.929156, 318.189238 35.787431, 318.189238 35.787431, 307.20497700000004 26.929156, 307.20497700000004 26.929156, 302.7758395 18.070881, 302.7758395 18.070881, 307.20497700000004 10.62993, 307.20497700000004 10.62993, 296.929378 0, 296.929378 0, 275.669518 10.62993, 275.669518 10.62993, 254.40965799999998 0, 254.40965799999998 0, 233.14979799999998 10.62993, 233.14979799999998 10.62993, 211.88993799999997 0, 211.88993799999997 0, 190.63007799999997 10.62993, 190.63007799999997 10.62993, 169.370218 0, 169.370218 0, 148.110358 10.62993, 148.110358 10.62993, 126.85049799999999 0, 126.85049799999999 0, 105.59063799999998 10.62993, 105.59063799999998 10.62993, 84.330778 0, 84.330778 0, 63.07091799999999 10.62993, 63.07091799999999 10.62993, 52.79531899999999 18.070881, 52.79531899999999 18.070881, 57.22445649999999 26.929156, 57.22445649999999 26.929156, 52.79531899999999 35.787431, 52.79531899999999 35.787431, 41.81105799999999 26.929156, 41.81105799999999 26.929156, 37.38192049999999 18.070881, 37.38192049999999 18.070881, 41.81105799999999 10.62993, 41.81105799999999 10.62993, 31.535458999999996 0, 31.535458999999996 "/> 
</g>
<!-- Right--> 
<g transform="translate(706.5005808999999, 382.50031449999994) " > 
<polygon style="stroke:#000000; fill:none; stroke-width:0.90000074" points="0, 10.62993 35.1850683, 10.62993 35.1850683, 0 46.222478949999996, 0 46.222478949999996, 13.110247000000001 59.33272595, 13.110247000000001 59.33272595, 0 70.3701366, 0 70.3701366, 10.62993 91.6299966, 10.62993 91.6299966, 0 102.66740725, 0 102.66740725, 13.110247000000001 115.77765425000001, 13.110247000000001 115.77765425000001, 0 126.8150649, 0 126.8150649, 10.62993 162.0001332, 10.62993 162.0001332, 31.535458999999996 151.3702032, 31.535458999999996 151.3702032, 41.81105799999999 143.92925219999998, 41.81105799999999 143.92925219999998, 37.38192049999999 135.0709772, 37.38192049999999 135.0709772, 41.81105799999999 126.2127022, 41.81105799999999 126.2127022, 52.79531899999999 135.0709772, 52.79531899999999 135.0709772, 57.22445649999999 143.92925219999998, 57.22445649999999 143.92925219999998, 52.79531899999999 151.3702032, 52.79531899999999 151.3702032, 63.07091799999999 162.0001332, 63.07091799999999 162.0001332, 84.330778 151.3702032, 84.330778 151.3702032, 105.59063799999998 162.0001332, 105.59063799999998 162.0001332, 126.85049799999999 151.3702032, 126.85049799999999 151.3702032, 148.110358 162.0001332, 148.110358 162.0001332, 169.370218 151.3702032, 169.370218 151.3702032, 190.63007799999997 162.0001332, 190.63007799999997 162.0001332, 211.88993799999997 151.3702032, 211.88993799999997 151.3702032, 233.14979799999998 162.0001332, 233.14979799999998 162.0001332, 254.40965799999998 151.3702032, 254.40965799999998 151.3702032, 275.669518 162.0001332, 275.669518 162.0001332, 296.929378 151.3702032, 296.929378 151.3702032, 307.20497700000004 143.92925219999998, 307.20497700000004 143.92925219999998, 302.7758395 135.0709772, 302.7758395 135.0709772, 307.20497700000004 126.2127022, 307.20497700000004 126.2127022, 318.189238 135.0709772, 318.189238 135.0709772, 322.6183755 143.92925219999998, 322.6183755 143.92925219999998, 318.189238 151.3702032, 318.189238 151.3702032, 328.464837 162.0001332, 328.464837 162.0001332, 349.370366 126.8150649, 349.370366 126.8150649, 360.000296 115.77765425000001, 360.000296 115.77765425000001, 346.890049 102.66740725, 346.890049 102.66740725, 360.000296 91.6299966, 360.000296 91.6299966, 349.370366 70.3701366, 349.370366 70.3701366, 360.000296 59.33272595, 360.000296 59.33272595, 346.890049 46.222478949999996, 346.890049 46.222478949999996, 360.000296 35.1850683, 360.000296 35.1850683, 349.370366 0, 349.370366 0, 328.464837 10.62993, 328.464837 10.62993, 318.189238 18.070881, 318.189238 18.070881, 322.6183755 26.929156, 322.6183755 26.929156, 318.189238 35.787431, 318.189238 35.787431, 307.20497700000004 26.929156, 307.20497700000004 26.929156, 302.7758395 18.070881, 302.7758395 18.070881, 307.20497700000004 10.62993, 307.20497700000004 10.62993, 296.929378 0, 296.929378 0, 275.669518 10.62993, 275.669518 10.62993, 254.40965799999998 0, 254.40965799999998 0, 233.14979799999998 10.62993, 233.14979799999998 10.62993, 211.88993799999997 0, 211.88993799999997 0, 190.63007799999997 10.62993, 190.63007799999997 10.62993, 169.370218 0, 169.370218 0, 148.110358 10.62993, 148.110358 10.62993, 126.85049799999999 0, 126.85049799999999 0, 105.59063799999998 10.62993, 105.59063799999998 10.62993, 84.330778 0, 84.330778 0, 63.07091799999999 10.62993, 63.07091799999999 10.62993, 52.79531899999999 18.070881, 52.79531899999999 18.070881, 57.22445649999999 26.929156, 57.22445649999999 26.929156, 52.79531899999999 35.787431, 52.79531899999999 35.787431, 41.81105799999999 26.929156, 41.81105799999999 26.929156, 37.38192049999999 18.070881, 37.38192049999999 18.070881, 41.81105799999999 10.62993, 41.81105799999999 10.62993, 31.535458999999996 0, 31.535458999999996 "/> 
</g>
<!-- Top--> 
<g transform="translate(22.500018499999996, 382.50031449999994) " > 
<polygon style="stroke:#000000; fill:none; stroke-width:0.90000074" points="0, 10.62993 27.035455299999995, 10.62993 27.035455299999995, 0 33.99805944999999, 0 33.99805944999999, 13.110247000000001 47.10830644999999, 13.110247000000001 47.10830644999999, 0 54.07091059999999, 0 54.07091059999999, 10.62993 75.3307706, 10.62993 75.3307706, 0 96.5906306, 0 96.5906306, 10.62993 117.85049059999999, 10.62993 117.85049059999999, 0 139.1103506, 0 139.1103506, 10.62993 160.3702106, 10.62993 160.3702106, 0 181.63007059999998, 0 181.63007059999998, 10.62993 202.88993059999999, 10.62993 202.88993059999999, 0 224.1497906, 0 224.1497906, 10.62993 245.4096506, 10.62993 245.4096506, 0 266.66951059999997, 0 266.66951059999997, 10.62993 287.92937059999997, 10.62993 287.92937059999997, 0 294.89197475000003, 0 294.89197475000003, 13.110247000000001 308.00222175, 13.110247000000001 308.00222175, 0 314.9648259, 0 314.9648259, 10.62993 342.00028119999996, 10.62993 342.00028119999996, 35.1850683 331.37035119999996, 35.1850683 331.37035119999996, 47.285471949999994 323.9294002, 47.285471949999994 323.9294002, 42.85633445 315.0711252, 42.85633445 315.0711252, 47.285471949999994 306.21285019999993, 47.285471949999994 306.21285019999993, 58.26973295 315.0711252, 58.26973295 315.0711252, 62.698870449999994 323.9294002, 62.698870449999994 323.9294002, 58.26973295 331.37035119999996, 58.26973295 331.37035119999996, 70.3701366 342.00028119999996, 70.3701366 342.00028119999996, 91.6299966 331.37035119999996, 91.6299966 331.37035119999996, 103.73040025 323.9294002, 103.73040025 323.9294002, 99.30126275 315.0711252, 99.30126275 315.0711252, 103.73040025 306.21285019999993, 103.73040025 306.21285019999993, 114.71466125 315.0711252, 114.71466125 315.0711252, 119.14379875 323.9294002, 119.14379875 323.9294002, 114.71466125 331.37035119999996, 114.71466125 331.37035119999996, 126.8150649 342.00028119999996, 126.8150649 342.0002812, 151.3702032 314.9648259, 151.3702032 314.9648259, 162.0001332 308.00222175, 162.0001332 308.00222175, 148.88988619999998 294.89197475000003, 148.88988619999998 294.89197475000003, 162.0001332 287.92937059999997, 162.0001332 287.92937059999997, 151.3702032 266.66951059999997, 151.3702032 266.66951059999997, 162.0001332 245.4096506, 162.0001332 245.4096506, 151.3702032 224.1497906, 151.3702032 224.1497906, 162.0001332 202.88993059999999, 162.0001332 202.88993059999999, 151.3702032 181.63007059999998, 151.3702032 181.63007059999998, 162.0001332 160.3702106, 162.0001332 160.3702106, 151.3702032 139.1103506, 151.3702032 139.1103506, 162.0001332 117.85049059999999, 162.0001332 117.85049059999999, 151.3702032 96.5906306, 151.3702032 96.5906306, 162.0001332 75.3307706, 162.0001332 75.3307706, 151.3702032 54.07091059999999, 151.3702032 54.07091059999999, 162.0001332 47.10830644999999, 162.0001332 47.10830644999999, 148.88988619999998 33.99805944999999, 148.88988619999998 33.99805944999999, 162.0001332 27.035455299999995, 162.0001332 27.035455299999995, 151.3702032 0, 151.3702032 0, 126.8150649 10.62993, 126.8150649 10.62993, 114.71466125 18.070881, 114.71466125 18.070881, 119.14379875 26.929156, 119.14379875 26.929156, 114.71466125 35.787431, 114.71466125 35.787431, 103.73040025 26.929156, 103.73040025 26.929156, 99.30126275 18.070881, 99.30126275 18.070881, 103.73040025 10.62993, 103.73040025 10.62993, 91.6299966 0, 91.6299966 0, 70.3701366 10.62993, 70.3701366 10.62993, 58.26973295 18.070881, 58.26973295 18.070881, 62.698870449999994 26.929156, 62.698870449999994 26.929156, 58.26973295 35.787431, 58.26973295 35.787431, 47.285471949999994 26.929156, 47.285471949999994 26.929156, 42.85633445 18.070881, 42.85633445 18.070881, 47.285471949999994 10.62993, 47.285471949999994 10.62993, 35.1850683 0, 35.1850683 "/> 
</g>
<!-- Bottom--> 
<g transform="translate(364.50029969999997, 382.50031449999994) " > 
<polygon style="stroke:#000000; fill:none; stroke-width:0.90000074" points="0, 10.62993 27.035455299999995, 10.62993 27.035455299999995, 0 33.99805944999999, 0 33.99805944999999, 13.110247000000001 47.10830644999999, 13.110247000000001 47.10830644999999, 0 54.07091059999999, 0 54.07091059999999, 10.62993 75.3307706, 10.62993 75.3307706, 0 96.5906306, 0 96.5906306, 10.62993 117.85049059999999, 10.62993 117.85049059999999, 0 139.1103506, 0 139.1103506, 10.62993 160.3702106, 10.62993 160.3702106, 0 181.63007059999998, 0 181.63007059999998, 10.62993 202.88993059999999, 10.62993 202.88993059999999, 0 224.1497906, 0 224.1497906, 10.62993 245.4096506, 10.62993 245.4096506, 0 266.66951059999997, 0 266.66951059999997, 10.62993 287.92937059999997, 10.62993 287.92937059999997, 0 294.89197475000003, 0 294.89197475000003, 13.110247000000001 308.00222175, 13.110247000000001 308.00222175, 0 314.9648259, 0 314.9648259, 10.62993 342.00028119999996, 10.62993 342.00028119999996, 35.1850683 331.37035119999996, 35.1850683 331.37035119999996, 47.285471949999994 323.9294002, 47.285471949999994 323.9294002, 42.85633445 315.0711252, 42.85633445 315.0711252, 47.285471949999994 306.21285019999993, 47.285471949999994 306.21285019999993, 58.26973295 315.0711252, 58.26973295 315.0711252, 62.698870449999994 323.9294002, 62.698870449999994 323.9294002, 58.26973295 331.37035119999996, 58.26973295 331.37035119999996, 70.3701366 342.00028119999996, 70.3701366 342.00028119999996, 91.6299966 331.37035119999996, 91.6299966 331.37035119999996, 103.73040025 323.9294002, 103.73040025 323.9294002, 99.30126275 315.0711252, 99.30126275 315.0711252, 103.73040025 306.21285019999993, 103.73040025 306.21285019999993, 114.71466125 315.0711252, 114.71466125 315.0711252, 119.14379875 323.9294002, 119.14379875 323.9294002, 114.71466125 331.37035119999996, 114.71466125 331.37035119999996, 126.8150649 342.00028119999996, 126.8150649 342.0002812, 151.3702032 314.9648259, 151.3702032 314.9648259, 162.0001332 308.00222175, 162.0001332 308.00222175, 148.88988619999998 294.89197475000003, 148.88988619999998 294.89197475000003, 162.0001332 287.92937059999997, 162.0001332 287.92937059999997, 151.3702032 266.66951059999997, 151.3702032 266.66951059999997, 162.0001332 245.4096506, 162.0001332 245.4096506, 151.3702032 224.1497906, 151.3702032 224.1497906, 162.0001332 202.88993059999999, 162.0001332 202.88993059999999, 151.3702032 181.63007059999998, 151.3702032 181.63007059999998, 162.0001332 160.3702106, 162.0001332 160.3702106, 151.3702032 139.1103506, 151.3702032 139.1103506, 162.0001332 117.85049059999999, 162.0001332 117.85049059999999, 151.3702032 96.5906306, 151.3702032 96.5906306, 162.0001332 75.3307706, 162.0001332 75.3307706, 151.3702032 54.07091059999999, 151.3702032 54.07091059999999, 162.0001332 47.10830644999999, 162.0001332 47.10830644999999, 148.88988619999998 33.99805944999999, 148.88988619999998 33.99805944999999, 162.0001332 27.035455299999995, 162.0001332 27.035455299999995, 151.3702032 0, 151.3702032 0, 126.8150649 10.62993, 126.8150649 10.62993, 114.71466125 18.070881, 114.71466125 18.070881, 119.14379875 26.929156, 119.14379875 26.929156, 114.71466125 35.787431, 114.71466125 35.787431, 103.73040025 26.929156, 103.73040025 26.929156, 99.30126275 18.070881, 99.30126275 18.070881, 103.73040025 10.62993, 103.73040025 10.62993, 91.6299966 0, 91.6299966 0, 70.3701366 10.62993, 70.3701366 10.62993, 58.26973295 18.070881, 58.26973295 18.070881, 62.698870449999994 26.929156, 62.698870449999994 26.929156, 58.26973295 35.787431, 58.26973295 35.787431, 47.285471949999994 26.929156, 47.285471949999994 26.929156, 42.85633445 18.070881, 42.85633445 18.070881, 47.285471949999994 10.62993, 47.285471949999994 10.62993, 35.1850683 0, 35.1850683 "/> 
</g></svg>