  0
SECTION
  2
HEADER
  9
$ACADVER
  1
AC1009
  9
$EXTMIN
 10
0.0
 20
0.0
 30
0.0
  9
$EXTMAX
 10
1000.0
 20
1000.0
 30
0.0
  9
$FILLMODE
 70
 0
  9
$SPLFRAME
 70
 1
  0
ENDSEC
  0
SECTION
  2
TABLES
  0
TABLE
  2
LAYER
 70
1
  0
LAYER
  2
0
 70
     0
 62
     7
  6
CONTINUOUS
  0
ENDTAB
  0
ENDSEC
  0
SECTION
  2
ENTITIES
  0
POLYLINE
  8
0
 62
     0
 66
     1
 10
0
 20
0
 30
0.0
 70
     1
 40
0
 41
0
  0
VERTEX
  8
0
 10
0.444444
 20
11.8542
 30
0.0
 40
0
 41
0
  0
VERTEX
  8
0
 10
0.444444
 20
11.6389
 30
0.0
 40
0
 41
0
  0
VERTEX
  8
0
 10
0.305556
 20
11.6389
 30
0.0
 40
0
 41
0
  0
VERTEX
  8
0
 10
0.305556
 20
11.4861
 30
0.0
 40
0
 41
0
  0
VERTEX
  8
0
 10
0.486111
 20
11.4861
 30
0.0
 40
0
 41
0
  0
VERTEX
  8
0
 10
0.486111
 20
11.3333
 30
0.0
 40
0
 41
0
  0
VERTEX
  8
0
 10
0.305556
 20
11.3333
 30
0.0
 40
0
 41
0
  0
VERTEX
  8
0
 10
0.305556
 20
11.1667
 30
0.0
 40
0
 41
0
  0
VERTEX
  8
0
 10
0.444444
 20
11.1667
 30
0.0
 40
0
 41
0
  0
VERTEX
  8
0
 10
0.444444
 20
10.9028
 30
0.0
 40
0
 41
0
  0
VERTEX
  8
0
 10
0.305556
 20
10.9028
 30
0.0
 40
0
 41
0
  0
VERTEX
  8
0
 10
0.305556
 20
10.5833
 30
0.0
 40
0
 41
0
  0
VERTEX
  8
0
 10
0.444444
 20
10.5833
 30
0.0
 40
0
 41
0
  0
VERTEX
  8
0
 10
0.444444
 20
10.3194
 30
0.0
 40
0
 41
0
  0
VERTEX
  8
0
 10
0.305556
 20
10.3194
 30
0.0
 40
0
 41
0
  0
VERTEX
  8
0
 10
0.305556
 20
9.98611
 30
0.0
 40
0
 41
0
  0
VERTEX
  8
0
 10
0.444444
 20
9.98611
 30
0.0
 40
0
 41
0
  0
VERTEX
  8
0
 10
0.444444
 20
9.72222
 30
0.0
 40
0
 41
0
  0
VERTEX
  8
0
 10
0.305556
 20
9.72222
 30
0.0
 40
0
 41
0
  0
VERTEX
  8
0
 10
0.305556
 20
9.40278
 30
0.0
 40
0
 41
0
  0
VERTEX
  8
0
 10
0.444444
 20
9.40278
 30
0.0
 40
0
 41
0
  0
VERTEX
  8
0
 10
0.444444
 20
9.13889
 30
0.0
 40
0
 41
0
  0
VERTEX
  8
0
 10
0.305556
 20
9.13889
 30
0.0
 40
0
 41
0
  0
VERTEX
  8
0
 10
0.305556
 20
8.80556
 30
0.0
 40
0
 41
0
  0
VERTEX
  8
0
 10
0.444444
 20
8.80556
 30
0.0
 40
0
 41
0
  0
VERTEX
  8
0
 10
0.444444
 20
8.54167
 30
0.0
 40
0
 41
0
  0
VERTEX
  8
0
 10
0.305556
 20
8.54167
 30
0.0
 40
0
 41
0
  0
VERTEX
  8
0
 10
0.305556
 20
8.22222
 30
0.0
 40
0
 41
0
  0
VERTEX
  8
0
 10
0.444444
 20
8.22222
 30
0.0
 40
0
 41
0
  0
VERTEX
  8
0
 10
0.444444
 20
7.95833
 30
0.0
 40
0
 41
0
  0
VERTEX
  8
0
 10
0.305556
 20
7.95833
 30
0.0
 40
0
 41
0
  0
VERTEX
  8
0
 10
0.305556
 20
7.79167
 30
0.0
 40
0
 41
0
  0
VERTEX
  8
0
 10
0.486111
 20
7.79167
 30
0.0
 40
0
 41
0
  0
VERTEX
  8
0
 10
0.486111
 20
7.63889
 30
0.0
 40
0
 41
0
  0
VERTEX
  8
0
 10
0.305556
 20
7.63889
 30
0.0
 40
0
 41
0
  0
VERTEX
  8
0
 10
0.305556
 20
7.48611
 30
0.0
 40
0
 41
0
  0
VERTEX
  8
0
 10
0.444444
 20
7.48611
 30
0.0
 40
0
 41
0
  0
VERTEX
  8
0
 10
0.444444
 20
7.05556
 30
0.0
 40
0
 41
0
  0
VERTEX
  8
0
 10
0.680556
 20
7.05556
 30
0.0
 40
0
 41
0
  0
VERTEX
  8
0
 10
0.680556
 20
6.93056
 30
0.0
 40
0
 41
0
  0
VERTEX
  8
0
 10
0.305556
 20
6.93056
 30
0.0
 40
0
 41
0
  0
VERTEX
  8
0
 10
0.305556
 20
6.55556
 30
0.0
 40
0
 41
0
  0
VERTEX
  8
0
 10
0.444444
 20
6.55556
 30
0.0
 40
0
 41
0
  0
VERTEX
  8
0
 10
0.444444
 20
6.38889
 30
0.0
 40
0
 41
0
  0
VERTEX
  8
0
 10
0.513889
 20
6.38889
 30
0.0
 40
0
 41
0
  0
VERTEX
  8
0
 10
0.523438
 20
6.38889
 30
0.0
 40
0
 41
0
  0
VERTEX
  8
0
 10
0.552246
 20
6.38986
 30
0.0
 40
0
 41
0
  0
VERTEX
  8
0
 10
0.573079
 20
6.39432
 30
0.0
 40
0
 41
0
  0
VERTEX
  8
0
 10
0.581651
 20
6.40474
 30
0.0
 40
0
 41
0
  0
VERTEX
  8
0
 10
0.583333
 20
6.41889
 30
0.0
 40
0
 41
0
  0
VERTEX
  8
0
 10
0.583333
 20
6.42361
 30
0.0
 40
0
 41
0
  0
VERTEX
  8
0
 10
0.583333
 20
6.42806
 30
0.0
 40
0
 41
0
  0
VERTEX
  8
0
 10
0.584961
 20
6.44135
 30
0.0
 40
0
 41
0
  0
VERTEX
  8
0
 10
0.591146
 20
6.45193
 30
0.0
 40
0
 41
0
  0
VERTEX
  8
0
 10
0.603842
 20
6.45703
 30
0.0
 40
0
 41
0
  0
VERTEX
  8
0
 10
0.619683
 20
6.45833
 30
0.0
 40
0
 41
0
  0
VERTEX
  8
0
 10
0.625
 20
6.45833
 30
0.0
 40
0
 41
0
  0
VERTEX
  8
0
 10
0.630262
 20
6.45833
 30
0.0
 40
0
 41
0
  0
VERTEX
  8
0
 10
0.646158
 20
6.45703
 30
0.0
 40
0
 41
0
  0
VERTEX
  8
0
 10
0.658854
 20
6.45193
 30
0.0
 40
0
 41
0
  0
VERTEX
  8
0
 10
0.665039
 20
6.44135
 30
0.0
 40
0
 41
0
  0
VERTEX
  8
0
 10
0.666667
 20
6.42806
 30
0.0
 40
0
 41
0
  0
VERTEX
  8
0
 10
0.666667
 20
6.42361
 30
0.0
 40
0
 41
0
  0
VERTEX
  8
0
 10
0.666667
 20
6.41889
 30
0.0
 40
0
 41
0
  0
VERTEX
  8
0
 10
0.668403
 20
6.40474
 30
0.0
 40
0
 41
0
  0
VERTEX
  8
0
 10
0.67654
 20
6.39432
 30
0.0
 40
0
 41
0
  0
VERTEX
  8
0
 10
0.695367
 20
6.38986
 30
0.0
 40
0
 41
0
  0
VERTEX
  8
0
 10
0.720703
 20
6.38889
 30
0.0
 40
0
 41
0
  0
VERTEX
  8
0
 10
0.729167
 20
6.38889
 30
0.0
 40
0
 41
0
  0
VERTEX
  8
0
 10
0.791667
 20
6.38889
 30
0.0
 40
0
 41
0
  0
VERTEX
  8
0
 10
0.791667
 20
6.26389
 30
0.0
 40
0
 41
0
  0
VERTEX
  8
0
 10
0.729167
 20
6.26389
 30
0.0
 40
0
 41
0
  0
VERTEX
  8
0
 10
0.721138
 20
6.26389
 30
0.0
 40
0
 41
0
  0
VERTEX
  8
0
 10
0.697103
 20
6.26292
 30
0.0
 40
0
 41
0
  0
VERTEX
  8
0
 10
0.678114
 20
6.2589
 30
0.0
 40
0
 41
0
  0
VERTEX
  8
0
 10
0.669
 20
6.25043
 30
0.0
 40
0
 41
0
  0
VERTEX
  8
0
 10
0.666667
 20
6.23969
 30
0.0
 40
0
 41
0
  0
VERTEX
  8
0
 10
0.666667
 20
6.23611
 30
0.0
 40
0
 41
0
  0
VERTEX
  8
0
 10
0.666667
 20
6.23269
 30
0.0
 40
0
 41
0
  0
VERTEX
  8
0
 10
0.664606
 20
6.22244
 30
0.0
 40
0
 41
0
  0
VERTEX
  8
0
 10
0.657769
 20
6.21392
 30
0.0
 40
0
 41
0
  0
VERTEX
  8
0
 10
0.644965
 20
6.20958
 30
0.0
 40
0
 41
0
  0
VERTEX
  8
0
 10
0.629992
 20
6.20833
 30
0.0
 40
0
 41
0
  0
VERTEX
  8
0
 10
0.625
 20
6.20833
 30
0.0
 40
0
 41
0
  0
VERTEX
  8
0
 10
0.619954
 20
6.20833
 30
0.0
 40
0
 41
0
  0
VERTEX
  8
0
 10
0.604981
 20
6.20958
 30
0.0
 40
0
 41
0
  0
VERTEX
  8
0
 10
0.592176
 20
6.21392
 30
0.0
 40
0
 41
0
  0
VERTEX
  8
0
 10
0.58534
 20
6.22244
 30
0.0
 40
0
 41
0
  0
VERTEX
  8
0
 10
0.583333
 20
6.23269
 30
0.0
 40
0
 41
0
  0
VERTEX
  8
0
 10
0.583333
 20
6.23611
 30
0.0
 40
0
 41
0
  0
VERTEX
  8
0
 10
0.583333
 20
6.23969
 30
0.0
 40
0
 41
0
  0
VERTEX
  8
0
 10
0.580838
 20
6.25043
 30
0.0
 40
0
 41
0
  0
VERTEX
  8
0
 10
0.570964
 20
6.2589
 30
0.0
 40
0
 41
0
  0
VERTEX
  8
0
 10
0.549914
 20
6.26292
 30
0.0
 40
0
 41
0
  0
VERTEX
  8
0
 10
0.522894
 20
6.26389
 30
0.0
 40
0
 41
0
  0
VERTEX
  8
0
 10
0.513889
 20
6.26389
 30
0.0
 40
0
 41
0
  0
VERTEX
  8
0
 10
0.444444
 20
6.26389
 30
0.0
 40
0
 41
0
  0
VERTEX
  8
0
 10
0.444444
 20
6.09722
 30
0.0
 40
0
 41
0
  0
VERTEX
  8
0
 10
0.305556
 20
6.09722
 30
0.0
 40
0
 41
0
  0
VERTEX
  8
0
 10
0.305556
 20
5.77778
 30
0.0
 40
0
 41
0
  0
VERTEX
  8
0
 10
0.444444
 20
5.77778
 30
0.0
 40
0
 41
0
  0
VERTEX
  8
0
 10
0.444444
 20
5.61111
 30
0.0
 40
0
 41
0
  0
VERTEX
  8
0
 10
0.513889
 20
5.61111
 30
0.0
 40
0
 41
0
  0
VERTEX
  8
0
 10
0.522894
 20
5.61111
 30
0.0
 40
0
 41
0
  0
VERTEX
  8
0
 10
0.549914
 20
5.61214
 30
0.0
 40
0
 41
0
  0
VERTEX
  8
0
 10
0.570964
 20
5.61615
 30
0.0
 40
0
 41
0
  0
VERTEX
  8
0
 10
0.580838
 20
5.62462
 30
0.0
 40
0
 41
0
  0
VERTEX
  8
0
 10
0.583333
 20
5.63536
 30
0.0
 40
0
 41
0
  0
VERTEX
  8
0
 10
0.583333
 20
5.63889
 30
0.0
 40
0
 41
0
  0
VERTEX
  8
0
 10
0.583333
 20
5.64236
 30
0.0
 40
0
 41
0
  0
VERTEX
  8
0
 10
0.58534
 20
5.65261
 30
0.0
 40
0
 41
0
  0
VERTEX
  8
0
 10
0.592176
 20
5.66114
 30
0.0
 40
0
 41
0
  0
VERTEX
  8
0
 10
0.604981
 20
5.66547
 30
0.0
 40
0
 41
0
  0
VERTEX
  8
0
 10
0.619954
 20
5.66667
 30
0.0
 40
0
 41
0
  0
VERTEX
  8
0
 10
0.625
 20
5.66667
 30
0.0
 40
0
 41
0
  0
VERTEX
  8
0
 10
0.629992
 20
5.66667
 30
0.0
 40
0
 41
0
  0
VERTEX
  8
0
 10
0.644965
 20
5.66547
 30
0.0
 40
0
 41
0
  0
VERTEX
  8
0
 10
0.657769
 20
5.66114
 30
0.0
 40
0
 41
0
  0
VERTEX
  8
0
 10
0.664606
 20
5.65261
 30
0.0
 40
0
 41
0
  0
VERTEX
  8
0
 10
0.666667
 20
5.64236
 30
0.0
 40
0
 41
0
  0
VERTEX
  8
0
 10
0.666667
 20
5.63889
 30
0.0
 40
0
 41
0
  0
VERTEX
  8
0
 10
0.666667
 20
5.63536
 30
0.0
 40
0
 41
0
  0
VERTEX
  8
0
 10
0.669
 20
5.62462
 30
0.0
 40
0
 41
0
  0
VERTEX
  8
0
 10
0.678114
 20
5.61615
 30
0.0
 40
0
 41
0
  0
VERTEX
  8
0
 10
0.697103
 20
5.61214
 30
0.0
 40
0
 41
0
  0
VERTEX
  8
0
 10
0.721138
 20
5.61111
 30
0.0
 40
0
 41
0
  0
VERTEX
  8
0
 10
0.729167
 20
5.61111
 30
0.0
 40
0
 41
0
  0
VERTEX
  8
0
 10
0.791667
 20
5.61111
 30
0.0
 40
0
 41
0
  0
VERTEX
  8
0
 10
0.791667
 20
5.48611
 30
0.0
 40
0
 41
0
  0
VERTEX
  8
0
 10
0.729167
 20
5.48611
 30
0.0
 40
0
 41
0
  0
VERTEX
  8
0
 10
0.720703
 20
5.48611
 30
0.0
 40
0
 41
0
  0
VERTEX
  8
0
 10
0.695367
 20
5.48519
 30
0.0
 40
0
 41
0
  0
VERTEX
  8
0
 10
0.67654
 20
5.48074
 30
0.0
 40
0
 41
0
  0
VERTEX
  8
0
 10
0.668403
 20
5.47032
 30
0.0
 40
0
 41
0
  0
VERTEX
  8
0
 10
0.666667
 20
5.45617
 30
0.0
 40
0
 41
0
  0
VERTEX
  8
0
 10
0.666667
 20
5.45139
 30
0.0
 40
0
 41
0
  0
VERTEX
  8
0
 10
0.666667
 20
5.447
 30
0.0
 40
0
 41
0
  0
VERTEX
  8
0
 10
0.665039
 20
5.43371
 30
0.0
 40
0
 41
0
  0
VERTEX
  8
0
 10
0.658854
 20
5.42312
 30
0.0
 40
0
 41
0
  0
VERTEX
  8
0
 10
0.646158
 20
5.41803
 30
0.0
 40
0
 41
0
  0
VERTEX
  8
0
 10
0.630262
 20
5.41667
 30
0.0
 40
0
 41
0
  0
VERTEX
  8
0
 10
0.625
 20
5.41667
 30
0.0
 40
0
 41
0
  0
VERTEX
  8
0
 10
0.619683
 20
5.41667
 30
0.0
 40
0
 41
0
  0
VERTEX
  8
0
 10
0.603842
 20
5.41803
 30
0.0
 40
0
 41
0
  0
VERTEX
  8
0
 10
0.591146
 20
5.42312
 30
0.0
 40
0
 41
0
  0
VERTEX
  8
0
 10
0.584961
 20
5.43371
 30
0.0
 40
0
 41
0
  0
VERTEX
  8
0
 10
0.583333
 20
5.447
 30
0.0
 40
0
 41
0
  0
VERTEX
  8
0
 10
0.583333
 20
5.45139
 30
0.0
 40
0
 41
0
  0
VERTEX
  8
0
 10
0.583333
 20
5.45617
 30
0.0
 40
0
 41
0
  0
VERTEX
  8
0
 10
0.581651
 20
5.47032
 30
0.0
 40
0
 41
0
  0
VERTEX
  8
0
 10
0.573079
 20
5.48074
 30
0.0
 40
0
 41
0
  0
VERTEX
  8
0
 10
0.552246
 20
5.48519
 30
0.0
 40
0
 41
0
  0
VERTEX
  8
0
 10
0.523438
 20
5.48611
 30
0.0
 40
0
 41
0
  0
VERTEX
  8
0
 10
0.513889
 20
5.48611
 30
0.0
 40
0
 41
0
  0
VERTEX
  8
0
 10
0.444444
 20
5.48611
 30
0.0
 40
0
 41
0
  0
VERTEX
  8
0
 10
0.444444
 20
5.31944
 30
0.0
 40
0
 41
0
  0
VERTEX
  8
0
 10
0.305556
 20
5.31944
 30
0.0
 40
0
 41
0
  0
VERTEX
  8
0
 10
0.305556
 20
4.94444
 30
0.0
 40
0
 41
0
  0
VERTEX
  8
0
 10
0.680556
 20
4.94444
 30
0.0
 40
0
 41
0
  0
VERTEX
  8
0
 10
0.680556
 20
4.80556
 30
0.0
 40
0
 41
0
  0
VERTEX
  8
0
 10
0.791667
 20
4.80556
 30
0.0
 40
0
 41
0
  0
VERTEX
  8
0
 10
0.791667
 20
4.98611
 30
0.0
 40
0
 41
0
  0
VERTEX
  8
0
 10
0.958333
 20
4.98611
 30
0.0
 40
0
 41
0
  0
VERTEX
  8
0
 10
0.958333
 20
4.80556
 30
0.0
 40
0
 41
0
  0
VERTEX
  8
0
 10
1.08333
 20
4.80556
 30
0.0
 40
0
 41
0
  0
VERTEX
  8
0
 10
1.08333
 20
4.94444
 30
0.0
 40
0
 41
0
  0
VERTEX
  8
0
 10
1.34722
 20
4.94444
 30
0.0
 40
0
 41
0
  0
VERTEX
  8
0
 10
1.34722
 20
4.80556
 30
0.0
 40
0
 41
0
  0
VERTEX
  8
0
 10
1.66667
 20
4.80556
 30
0.0
 40
0
 41
0
  0
VERTEX
  8
0
 10
1.66667
 20
4.94444
 30
0.0
 40
0
 41
0
  0
VERTEX
  8
0
 10
1.93056
 20
4.94444
 30
0.0
 40
0
 41
0
  0
VERTEX
  8
0
 10
1.93056
 20
4.80556
 30
0.0
 40
0
 41
0
  0
VERTEX
  8
0
 10
2.26389
 20
4.80556
 30
0.0
 40
0
 41
0
  0
VERTEX
  8
0
 10
2.26389
 20
4.94444
 30
0.0
 40
0
 41
0
  0
VERTEX
  8
0
 10
2.52778
 20
4.94444
 30
0.0
 40
0
 41
0
  0
VERTEX
  8
0
 10
2.52778
 20
4.80556
 30
0.0
 40
0
 41
0
  0
VERTEX
  8
0
 10
2.84722
 20
4.80556
 30
0.0
 40
0
 41
0
  0
VERTEX
  8
0
 10
2.84722
 20
4.94444
 30
0.0
 40
0
 41
0
  0
VERTEX
  8
0
 10
3.11111
 20
4.94444
 30
0.0
 40
0
 41
0
  0
VERTEX
  8
0
 10
3.11111
 20
4.80556
 30
0.0
 40
0
 41
0
  0
VERTEX
  8
0
 10
3.44444
 20
4.80556
 30
0.0
 40
0
 41
0
  0
VERTEX
  8
0
 10
3.44444
 20
4.94444
 30
0.0
 40
0
 41
0
  0
VERTEX
  8
0
 10
3.70833
 20
4.94444
 30
0.0
 40
0
 41
0
  0
VERTEX
  8
0
 10
3.70833
 20
4.80556
 30
0.0
 40
0
 41
0
  0
VERTEX
  8
0
 10
4.02778
 20
4.80556
 30
0.0
 40
0
 41
0
  0
VERTEX
  8
0
 10
4.02778
 20
4.94444
 30
0.0
 40
0
 41
0
  0
VERTEX
  8
0
 10
4.29167
 20
4.94444
 30
0.0
 40
0
 41
0
  0
VERTEX
  8
0
 10
4.29167
 20
4.80556
 30
0.0
 40
0
 41
0
  0
VERTEX
  8
0
 10
4.41667
 20
4.80556
 30
0.0
 40
0
 41
0
  0
VERTEX
  8
0
 10
4.41667
 20
4.98611
 30
0.0
 40
0
 41
0
  0
VERTEX
  8
0
 10
4.58333
 20
4.98611
 30
0.0
 40
0
 41
0
  0
VERTEX
  8
0
 10
4.58333
 20
4.80556
 30
0.0
 40
0
 41
0
  0
VERTEX
  8
0
 10
4.69444
 20
4.80556
 30
0.0
 40
0
 41
0
  0
VERTEX
  8
0
 10
4.69444
 20
4.94444
 30
0.0
 40
0
 41
0
  0
VERTEX
  8
0
 10
5.43056
 20
4.94444
 30
0.0
 40
0
 41
0
  0
VERTEX
  8
0
 10
5.43056
 20
4.80556
 30
0.0
 40
0
 41
0
  0
VERTEX
  8
0
 10
5.54167
 20
4.80556
 30
0.0
 40
0
 41
0
  0
VERTEX
  8
0
 10
5.54167
 20
4.98611
 30
0.0
 40
0
 41
0
  0
VERTEX
  8
0
 10
5.70833
 20
4.98611
 30
0.0
 40
0
 41
0
  0
VERTEX
  8
0
 10
5.70833
 20
4.80556
 30
0.0
 40
0
 41
0
  0
VERTEX
  8
0
 10
5.83333
 20
4.80556
 30
0.0
 40
0
 41
0
  0
VERTEX
  8
0
 10
5.83333
 20
4.94444
 30
0.0
 40
0
 41
0
  0
VERTEX
  8
0
 10
6.09722
 20
4.94444
 30
0.0
 40
0
 41
0
  0
VERTEX
  8
0
 10
6.09722
 20
4.80556
 30
0.0
 40
0
 41
0
  0
VERTEX
  8
0
 10
6.41667
 20
4.80556
 30
0.0
 40
0
 41
0
  0
VERTEX
  8
0
 10
6.41667
 20
4.94444
 30
0.0
 40
0
 41
0
  0
VERTEX
  8
0
 10
6.68056
 20
4.94444
 30
0.0
 40
0
 41
0
  0
VERTEX
  8
0
 10
6.68056
 20
4.80556
 30
0.0
 40
0
 41
0
  0
VERTEX
  8
0
 10
7.01389
 20
4.80556
 30
0.0
 40
0
 41
0
  0
VERTEX
  8
0
 10
7.01389
 20
4.94444
 30
0.0
 40
0
 41
0
  0
VERTEX
  8
0
 10
7.27778
 20
4.94444
 30
0.0
 40
0
 41
0
  0
VERTEX
  8
0
 10
7.27778
 20
4.80556
 30
0.0
 40
0
 41
0
  0
VERTEX
  8
0
 10
7.59722
 20
4.80556
 30
0.0
 40
0
 41
0
  0
VERTEX
  8
0
 10
7.59722
 20
4.94444
 30
0.0
 40
0
 41
0
  0
VERTEX
  8
0
 10
7.86111
 20
4.94444
 30
0.0
 40
0
 41
0
  0
VERTEX
  8
0
 10
7.86111
 20
4.80556
 30
0.0
 40
0
 41
0
  0
VERTEX
  8
0
 10
8.19444
 20
4.80556
 30
0.0
 40
0
 41
0
  0
VERTEX
  8
0
 10
8.19444
 20
4.94444
 30
0.0
 40
0
 41
0
  0
VERTEX
  8
0
 10
8.45833
 20
4.94444
 30
0.0
 40
0
 41
0
  0
VERTEX
  8
0
 10
8.45833
 20
4.80556
 30
0.0
 40
0
 41
0
  0
VERTEX
  8
0
 10
8.77778
 20
4.80556
 30
0.0
 40
0
 41
0
  0
VERTEX
  8
0
 10
8.77778
 20
4.94444
 30
0.0
 40
0
 41
0
  0
VERTEX
  8
0
 10
9.04167
 20
4.94444
 30
0.0
 40
0
 41
0
  0
VERTEX
  8
0
 10
9.04167
 20
4.80556
 30
0.0
 40
0
 41
0
  0
VERTEX
  8
0
 10
9.16667
 20
4.80556
 30
0.0
 40
0
 41
0
  0
VERTEX
  8
0
 10
9.16667
 20
4.98611
 30
0.0
 40
0
 41
0
  0
VERTEX
  8
0
 10
9.33333
 20
4.98611
 30
0.0
 40
0
 41
0
  0
VERTEX
  8
0
 10
9.33333
 20
4.80556
 30
0.0
 40
0
 41
0
  0
VERTEX
  8
0
 10
9.44444
 20
4.80556
 30
0.0
 40
0
 41
0
  0
VERTEX
  8
0
 10
9.44444
 20
4.94444
 30
0.0
 40
0
 41
0
  0
VERTEX
  8
0
 10
9.80556
 20
4.94444
 30
0.0
 40
0
 41
0
  0
VERTEX
  8
0
 10
9.80556
 20
4.69444
 30
0.0
 40
0
 41
0
  0
VERTEX
  8
0
 10
9.94444
 20
4.69444
 30
0.0
 40
0
 41
0
  0
VERTEX
  8
0
 10
9.94444
 20
4.43056
 30
0.0
 40
0
 41
0
  0
VERTEX
  8
0
 10
9.80556
 20
4.43056
 30
0.0
 40
0
 41
0
  0
VERTEX
  8
0
 10
9.80556
 20
4.11111
 30
0.0
 40
0
 41
0
  0
VERTEX
  8
0
 10
9.94444
 20
4.11111
 30
0.0
 40
0
 41
0
  0
VERTEX
  8
0
 10
9.94444
 20
3.83333
 30
0.0
 40
0
 41
0
  0
VERTEX
  8
0
 10
9.80556
 20
3.83333
 30
0.0
 40
0
 41
0
  0
VERTEX
  8
0
 10
9.80556
 20
3.51389
 30
0.0
 40
0
 41
0
  0
VERTEX
  8
0
 10
9.94444
 20
3.51389
 30
0.0
 40
0
 41
0
  0
VERTEX
  8
0
 10
9.94444
 20
3.25
 30
0.0
 40
0
 41
0
  0
VERTEX
  8
0
 10
9.80556
 20
3.25
 30
0.0
 40
0
 41
0
  0
VERTEX
  8
0
 10
9.80556
 20
2.93056
 30
0.0
 40
0
 41
0
  0
VERTEX
  8
0
 10
9.94444
 20
2.93056
 30
0.0
 40
0
 41
0
  0
VERTEX
  8
0
 10
9.94444
 20
2.77778
 30
0.0
 40
0
 41
0
  0
VERTEX
  8
0
 10
10.0139
 20
2.77778
 30
0.0
 40
0
 41
0
  0
VERTEX
  8
0
 10
10.0234
 20
2.77778
 30
0.0
 40
0
 41
0
  0
VERTEX
  8
0
 10
10.0523
 20
2.77875
 30
0.0
 40
0
 41
0
  0
VERTEX
  8
0
 10
10.0731
 20
2.78321
 30
0.0
 40
0
 41
0
  0
VERTEX
  8
0
 10
10.0817
 20
2.79363
 30
0.0
 40
0
 41
0
  0
VERTEX
  8
0
 10
10.0833
 20
2.80778
 30
0.0
 40
0
 41
0
  0
VERTEX
  8
0
 10
10.0833
 20
2.8125
 30
0.0
 40
0
 41
0
  0
VERTEX
  8
0
 10
10.0833
 20
2.81694
 30
0.0
 40
0
 41
0
  0
VERTEX
  8
0
 10
10.085
 20
2.83024
 30
0.0
 40
0
 41
0
  0
VERTEX
  8
0
 10
10.0912
 20
2.84082
 30
0.0
 40
0
 41
0
  0
VERTEX
  8
0
 10
10.1038
 20
2.84592
 30
0.0
 40
0
 41
0
  0
VERTEX
  8
0
 10
10.1197
 20
2.84722
 30
0.0
 40
0
 41
0
  0
VERTEX
  8
0
 10
10.125
 20
2.84722
 30
0.0
 40
0
 41
0
  0
VERTEX
  8
0
 10
10.1303
 20
2.84722
 30
0.0
 40
0
 41
0
  0
VERTEX
  8
0
 10
10.1462
 20
2.84592
 30
0.0
 40
0
 41
0
  0
VERTEX
  8
0
 10
10.1589
 20
2.84082
 30
0.0
 40
0
 41
0
  0
VERTEX
  8
0
 10
10.165
 20
2.83024
 30
0.0
 40
0
 41
0
  0
VERTEX
  8
0
 10
10.1667
 20
2.81694
 30
0.0
 40
0
 41
0
  0
VERTEX
  8
0
 10
10.1667
 20
2.8125
 30
0.0
 40
0
 41
0
  0
VERTEX
  8
0
 10
10.1667
 20
2.80778
 30
0.0
 40
0
 41
0
  0
VERTEX
  8
0
 10
10.1684
 20
2.79363
 30
0.0
 40
0
 41
0
  0
VERTEX
  8
0
 10
10.1765
 20
2.78321
 30
0.0
 40
0
 41
0
  0
VERTEX
  8
0
 10
10.1954
 20
2.77875
 30
0.0
 40
0
 41
0
  0
VERTEX
  8
0
 10
10.2207
 20
2.77778
 30
0.0
 40
0
 41
0
  0
VERTEX
  8
0
 10
10.2292
 20
2.77778
 30
0.0
 40
0
 41
0
  0
VERTEX
  8
0
 10
10.2917
 20
2.77778
 30
0.0
 40
0
 41
0
  0
VERTEX
  8
0
 10
10.2917
 20
2.65278
 30
0.0
 40
0
 41
0
  0
VERTEX
  8
0
 10
10.2292
 20
2.65278
 30
0.0
 40
0
 41
0
  0
VERTEX
  8
0
 10
10.2211
 20
2.65278
 30
0.0
 40
0
 41
0
  0
VERTEX
  8
0
 10
10.1971
 20
2.65181
 30
0.0
 40
0
 41
0
  0
VERTEX
  8
0
 10
10.1781
 20
2.64779
 30
0.0
 40
0
 41
0
  0
VERTEX
  8
0
 10
10.169
 20
2.63932
 30
0.0
 40
0
 41
0
  0
VERTEX
  8
0
 10
10.1667
 20
2.62858
 30
0.0
 40
0
 41
0
  0
VERTEX
  8
0
 10
10.1667
 20
2.625
 30
0.0
 40
0
 41
0
  0
VERTEX
  8
0
 10
10.1667
 20
2.62158
 30
0.0
 40
0
 41
0
  0
VERTEX
  8
0
 10
10.1646
 20
2.61133
 30
0.0
 40
0
 41
0
  0
VERTEX
  8
0
 10
10.1578
 20
2.60281
 30
0.0
 40
0
 41
0
  0
VERTEX
  8
0
 10
10.145
 20
2.59847
 30
0.0
 40
0
 41
0
  0
VERTEX
  8
0
 10
10.13
 20
2.59722
 30
0.0
 40
0
 41
0
  0
VERTEX
  8
0
 10
10.125
 20
2.59722
 30
0.0
 40
0
 41
0
  0
VERTEX
  8
0
 10
10.12
 20
2.59722
 30
0.0
 40
0
 41
0
  0
VERTEX
  8
0
 10
10.105
 20
2.59847
 30
0.0
 40
0
 41
0
  0
VERTEX
  8
0
 10
10.0922
 20
2.60281
 30
0.0
 40
0
 41
0
  0
VERTEX
  8
0
 10
10.0853
 20
2.61133
 30
0.0
 40
0
 41
0
  0
VERTEX
  8
0
 10
10.0833
 20
2.62158
 30
0.0
 40
0
 41
0
  0
VERTEX
  8
0
 10
10.0833
 20
2.625
 30
0.0
 40
0
 41
0
  0
VERTEX
  8
0
 10
10.0833
 20
2.62858
 30
0.0
 40
0
 41
0
  0
VERTEX
  8
0
 10
10.0808
 20
2.63932
 30
0.0
 40
0
 41
0
  0
VERTEX
  8
0
 10
10.071
 20
2.64779
 30
0.0
 40
0
 41
0
  0
VERTEX
  8
0
 10
10.0499
 20
2.65181
 30
0.0
 40
0
 41
0
  0
VERTEX
  8
0
 10
10.0229
 20
2.65278
 30
0.0
 40
0
 41
0
  0
VERTEX
  8
0
 10
10.0139
 20
2.65278
 30
0.0
 40
0
 41
0
  0
VERTEX
  8
0
 10
9.94444
 20
2.65278
 30
0.0
 40
0
 41
0
  0
VERTEX
  8
0
 10
9.94444
 20
2.51389
 30
0.0
 40
0
 41
0
  0
VERTEX
  8
0
 10
9.80556
 20
2.51389
 30
0.0
 40
0
 41
0
  0
VERTEX
  8
0
 10
9.80556
 20
2.19444
 30
0.0
 40
0
 41
0
  0
VERTEX
  8
0
 10
10.2917
 20
2.19444
 30
0.0
 40
0
 41
0
  0
VERTEX
  8
0
 10
10.2917
 20
2.05556
 30
0.0
 40
0
 41
0
  0
VERTEX
  8
0
 10
10.4722
 20
2.05556
 30
0.0
 40
0
 41
0
  0
VERTEX
  8
0
 10
10.4722
 20
2.23611
 30
0.0
 40
0
 41
0
  0
VERTEX
  8
0
 10
10.625
 20
2.23611
 30
0.0
 40
0
 41
0
  0
VERTEX
  8
0
 10
10.625
 20
2.05556
 30
0.0
 40
0
 41
0
  0
VERTEX
  8
0
 10
10.8056
 20
2.05556
 30
0.0
 40
0
 41
0
  0
VERTEX
  8
0
 10
10.8056
 20
2.19444
 30
0.0
 40
0
 41
0
  0
VERTEX
  8
0
 10
11.0694
 20
2.19444
 30
0.0
 40
0
 41
0
  0
VERTEX
  8
0
 10
11.0694
 20
2.05556
 30
0.0
 40
0
 41
0
  0
VERTEX
  8
0
 10
11.25
 20
2.05556
 30
0.0
 40
0
 41
0
  0
VERTEX
  8
0
 10
11.25
 20
2.23611
 30
0.0
 40
0
 41
0
  0
VERTEX
  8
0
 10
11.4028
 20
2.23611
 30
0.0
 40
0
 41
0
  0
VERTEX
  8
0
 10
11.4028
 20
2.05556
 30
0.0
 40
0
 41
0
  0
VERTEX
  8
0
 10
11.5833
 20
2.05556
 30
0.0
 40
0
 41
0
  0
VERTEX
  8
0
 10
11.5833
 20
2.19444
 30
0.0
 40
0
 41
0
  0
VERTEX
  8
0
 10
12.0694
 20
2.19444
 30
0.0
 40
0
 41
0
  0
VERTEX
  8
0
 10
12.0694
 20
2.51389
 30
0.0
 40
0
 41
0
  0
VERTEX
  8
0
 10
11.9306
 20
2.51389
 30
0.0
 40
0
 41
0
  0
VERTEX
  8
0
 10
11.9306
 20
2.65278
 30
0.0
 40
0
 41
0
  0
VERTEX
  8
0
 10
11.8611
 20
2.65278
 30
0.0
 40
0
 41
0
  0
VERTEX
  8
0
 10
11.8521
 20
2.65278
 30
0.0
 40
0
 41
0
  0
VERTEX
  8
0
 10
11.825
 20
2.65181
 30
0.0
 40
0
 41
0
  0
VERTEX
  8
0
 10
11.804
 20
2.64779
 30
0.0
 40
0
 41
0
  0
VERTEX
  8
0
 10
11.7941
 20
2.63932
 30
0.0
 40
0
 41
0
  0
VERTEX
  8
0
 10
11.7917
 20
2.62858
 30
0.0
 40
0
 41
0
  0
VERTEX
  8
0
 10
11.7917
 20
2.625
 30
0.0
 40
0
 41
0
  0
VERTEX
  8
0
 10
11.7917
 20
2.62158
 30
0.0
 40
0
 41
0
  0
VERTEX
  8
0
 10
11.7896
 20
2.61133
 30
0.0
 40
0
 41
0
  0
VERTEX
  8
0
 10
11.7828
 20
2.60281
 30
0.0
 40
0
 41
0
  0
VERTEX
  8
0
 10
11.77
 20
2.59847
 30
0.0
 40
0
 41
0
  0
VERTEX
  8
0
 10
11.755
 20
2.59722
 30
0.0
 40
0
 41
0
  0
VERTEX
  8
0
 10
11.75
 20
2.59722
 30
0.0
 40
0
 41
0
  0
VERTEX
  8
0
 10
11.745
 20
2.59722
 30
0.0
 40
0
 41
0
  0
VERTEX
  8
0
 10
11.73
 20
2.59847
 30
0.0
 40
0
 41
0
  0
VERTEX
  8
0
 10
11.7172
 20
2.60281
 30
0.0
 40
0
 41
0
  0
VERTEX
  8
0
 10
11.7103
 20
2.61133
 30
0.0
 40
0
 41
0
  0
VERTEX
  8
0
 10
11.7083
 20
2.62158
 30
0.0
 40
0
 41
0
  0
VERTEX
  8
0
 10
11.7083
 20
2.625
 30
0.0
 40
0
 41
0
  0
VERTEX
  8
0
 10
11.7083
 20
2.62858
 30
0.0
 40
0
 41
0
  0
VERTEX
  8
0
 10
11.7059
 20
2.63932
 30
0.0
 40
0
 41
0
  0
VERTEX
  8
0
 10
11.6968
 20
2.64779
 30
0.0
 40
0
 41
0
  0
VERTEX
  8
0
 10
11.6778
 20
2.65181
 30
0.0
 40
0
 41
0
  0
VERTEX
  8
0
 10
11.6538
 20
2.65278
 30
0.0
 40
0
 41
0
  0
VERTEX
  8
0
 10
11.6458
 20
2.65278
 30
0.0
 40
0
 41
0
  0
VERTEX
  8
0
 10
11.5833
 20
2.65278
 30
0.0
 40
0
 41
0
  0
VERTEX
  8
0
 10
11.5833
 20
2.77778
 30
0.0
 40
0
 41
0
  0
VERTEX
  8
0
 10
11.6458
 20
2.77778
 30
0.0
 40
0
 41
0
  0
VERTEX
  8
0
 10
11.6542
 20
2.77778
 30
0.0
 40
0
 41
0
  0
VERTEX
  8
0
 10
11.6796
 20
2.77875
 30
0.0
 40
0
 41
0
  0
VERTEX
  8
0
 10
11.6984
 20
2.78321
 30
0.0
 40
0
 41
0
  0
VERTEX
  8
0
 10
11.7065
 20
2.79363
 30
0.0
 40
0
 41
0
  0
VERTEX
  8
0
 10
11.7083
 20
2.80778
 30
0.0
 40
0
 41
0
  0
VERTEX
  8
0
 10
11.7083
 20
2.8125
 30
0.0
 40
0
 41
0
  0
VERTEX
  8
0
 10
11.7083
 20
2.81694
 30
0.0
 40
0
 41
0
  0
VERTEX
  8
0
 10
11.71
 20
2.83024
 30
0.0
 40
0
 41
0
  0
VERTEX
  8
0
 10
11.7162
 20
2.84082
 30
0.0
 40
0
 41
0
  0
VERTEX
  8
0
 10
11.7288
 20
2.84592
 30
0.0
 40
0
 41
0
  0
VERTEX
  8
0
 10
11.7447
 20
2.84722
 30
0.0
 40
0
 41
0
  0
VERTEX
  8
0
 10
11.75
 20
2.84722
 30
0.0
 40
0
 41
0
  0
VERTEX
  8
0
 10
11.7553
 20
2.84722
 30
0.0
 40
0
 41
0
  0
VERTEX
  8
0
 10
11.7712
 20
2.84592
 30
0.0
 40
0
 41
0
  0
VERTEX
  8
0
 10
11.7839
 20
2.84082
 30
0.0
 40
0
 41
0
  0
VERTEX
  8
0
 10
11.79
 20
2.83024
 30
0.0
 40
0
 41
0
  0
VERTEX
  8
0
 10
11.7917
 20
2.81694
 30
0.0
 40
0
 41
0
  0
VERTEX
  8
0
 10
11.7917
 20
2.8125
 30
0.0
 40
0
 41
0
  0
VERTEX
  8
0
 10
11.7917
 20
2.80778
 30
0.0
 40
0
 41
0
  0
VERTEX
  8
0
 10
11.7933
 20
2.79363
 30
0.0
 40
0
 41
0
  0
VERTEX
  8
0
 10
11.8019
 20
2.78321
 30
0.0
 40
0
 41
0
  0
VERTEX
  8
0
 10
11.8227
 20
2.77875
 30
0.0
 40
0
 41
0
  0
VERTEX
  8
0
 10
11.8515
 20
2.77778
 30
0.0
 40
0
 41
0
  0
VERTEX
  8
0
 10
11.8611
 20
2.77778
 30
0.0
 40
0
 41
0
  0
VERTEX
  8
0
 10
11.9306
 20
2.77778
 30
0.0
 40
0
 41
0
  0
VERTEX
  8
0
 10
11.9306
 20
2.93056
 30
0.0
 40
0
 41
0
  0
VERTEX
  8
0
 10
12.0694
 20
2.93056
 30
0.0
 40
0
 41
0
  0
VERTEX
  8
0
 10
12.0694
 20
3.25
 30
0.0
 40
0
 41
0
  0
VERTEX
  8
0
 10
11.9306
 20
3.25
 30
0.0
 40
0
 41
0
  0
VERTEX
  8
0
 10
11.9306
 20
3.51389
 30
0.0
 40
0
 41
0
  0
VERTEX
  8
0
 10
12.0694
 20
3.51389
 30
0.0
 40
0
 41
0
  0
VERTEX
  8
0
 10
12.0694
 20
3.83333
 30
0.0
 40
0
 41
0
  0
VERTEX
  8
0
 10
11.9306
 20
3.83333
 30
0.0
 40
0
 41
0
  0
VERTEX
  8
0
 10
11.9306
 20
4.11111
 30
0.0
 40
0
 41
0
  0
VERTEX
  8
0
 10
12.0694
 20
4.11111
 30
0.0
 40
0
 41
0
  0
VERTEX
  8
0
 10
12.0694
 20
4.43056
 30
0.0
 40
0
 41
0
  0
VERTEX
  8
0
 10
11.9306
 20
4.43056
 30
0.0
 40
0
 41
0
  0
VERTEX
  8
0
 10
11.9306
 20
4.69444
 30
0.0
 40
0
 41
0
  0
VERTEX
  8
0
 10
12.0694
 20
4.69444
 30
0.0
 40
0
 41
0
  0
VERTEX
  8
0
 10
12.0694
 20
5.01389
 30
0.0
 40
0
 41
0
  0
VERTEX
  8
0
 10
11.9306
 20
5.01389
 30
0.0
 40
0
 41
0
  0
VERTEX
  8
0
 10
11.9306
 20
5.29167
 30
0.0
 40
0
 41
0
  0
VERTEX
  8
0
 10
12.0694
 20
5.29167
 30
0.0
 40
0
 41
0
  0
VERTEX
  8
0
 10
12.0694
 20
5.61111
 30
0.0
 40
0
 41
0
  0
VERTEX
  8
0
 10
11.9306
 20
5.61111
 30
0.0
 40
0
 41
0
  0
VERTEX
  8
0
 10
11.9306
 20
5.875
 30
0.0
 40
0
 41
0
  0
VERTEX
  8
0
 10
12.0694
 20
5.875
 30
0.0
 40
0
 41
0
  0
VERTEX
  8
0
 10
12.0694
 20
6.19444
 30
0.0
 40
0
 41
0
  0
VERTEX
  8
0
 10
11.9306
 20
6.19444
 30
0.0
 40
0
 41
0
  0
VERTEX
  8
0
 10
11.9306
 20
6.34722
 30
0.0
 40
0
 41
0
  0
VERTEX
  8
0
 10
11.8611
 20
6.34722
 30
0.0
 40
0
 41
0
  0
VERTEX
  8
0
 10
11.8515
 20
6.34722
 30
0.0
 40
0
 41
0
  0
VERTEX
  8
0
 10
11.8227
 20
6.34631
 30
0.0
 40
0
 41
0
  0
VERTEX
  8
0
 10
11.8019
 20
6.34185
 30
0.0
 40
0
 41
0
  0
VERTEX
  8
0
 10
11.7933
 20
6.33143
 30
0.0
 40
0
 41
0
  0
VERTEX
  8
0
 10
11.7917
 20
6.31728
 30
0.0
 40
0
 41
0
  0
VERTEX
  8
0
 10
11.7917
 20
6.3125
 30
0.0
 40
0
 41
0
  0
VERTEX
  8
0
 10
11.7917
 20
6.30811
 30
0.0
 40
0
 41
0
  0
VERTEX
  8
0
 10
11.79
 20
6.29482
 30
0.0
 40
0
 41
0
  0
VERTEX
  8
0
 10
11.7839
 20
6.28424
 30
0.0
 40
0
 41
0
  0
VERTEX
  8
0
 10
11.7712
 20
6.27914
 30
0.0
 40
0
 41
0
  0
VERTEX
  8
0
 10
11.7553
 20
6.27778
 30
0.0
 40
0
 41
0
  0
VERTEX
  8
0
 10
11.75
 20
6.27778
 30
0.0
 40
0
 41
0
  0
VERTEX
  8
0
 10
11.7447
 20
6.27778
 30
0.0
 40
0
 41
0
  0
VERTEX
  8
0
 10
11.7288
 20
6.27914
 30
0.0
 40
0
 41
0
  0
VERTEX
  8
0
 10
11.7162
 20
6.28424
 30
0.0
 40
0
 41
0
  0
VERTEX
  8
0
 10
11.71
 20
6.29482
 30
0.0
 40
0
 41
0
  0
VERTEX
  8
0
 10
11.7083
 20
6.30811
 30
0.0
 40
0
 41
0
  0
VERTEX
  8
0
 10
11.7083
 20
6.3125
 30
0.0
 40
0
 41
0
  0
VERTEX
  8
0
 10
11.7083
 20
6.31728
 30
0.0
 40
0
 41
0
  0
VERTEX
  8
0
 10
11.7065
 20
6.33143
 30
0.0
 40
0
 41
0
  0
VERTEX
  8
0
 10
11.6984
 20
6.34185
 30
0.0
 40
0
 41
0
  0
VERTEX
  8
0
 10
11.6796
 20
6.34631
 30
0.0
 40
0
 41
0
  0
VERTEX
  8
0
 10
11.6542
 20
6.34722
 30
0.0
 40
0
 41
0
  0
VERTEX
  8
0
 10
11.6458
 20
6.34722
 30
0.0
 40
0
 41
0
  0
VERTEX
  8
0
 10
11.5833
 20
6.34722
 30
0.0
 40
0
 41
0
  0
VERTEX
  8
0
 10
11.5833
 20
6.47222
 30
0.0
 40
0
 41
0
  0
VERTEX
  8
0
 10
11.6458
 20
6.47222
 30
0.0
 40
0
 41
0
  0
VERTEX
  8
0
 10
11.6538
 20
6.47222
 30
0.0
 40
0
 41
0
  0
VERTEX
  8
0
 10
11.6778
 20
6.47325
 30
0.0
 40
0
 41
0
  0
VERTEX
  8
0
 10
11.6968
 20
6.47726
 30
0.0
 40
0
 41
0
  0
VERTEX
  8
0
 10
11.7059
 20
6.48574
 30
0.0
 40
0
 41
0
  0
VERTEX
  8
0
 10
11.7083
 20
6.49647
 30
0.0
 40
0
 41
0
  0
VERTEX
  8
0
 10
11.7083
 20
6.5
 30
0.0
 40
0
 41
0
  0
VERTEX
  8
0
 10
11.7083
 20
6.50347
 30
0.0
 40
0
 41
0
  0
VERTEX
  8
0
 10
11.7103
 20
6.51372
 30
0.0
 40
0
 41
0
  0
VERTEX
  8
0
 10
11.7172
 20
6.52225
 30
0.0
 40
0
 41
0
  0
VERTEX
  8
0
 10
11.73
 20
6.52658
 30
0.0
 40
0
 41
0
  0
VERTEX
  8
0
 10
11.745
 20
6.52778
 30
0.0
 40
0
 41
0
  0
VERTEX
  8
0
 10
11.75
 20
6.52778
 30
0.0
 40
0
 41
0
  0
VERTEX
  8
0
 10
11.755
 20
6.52778
 30
0.0
 40
0
 41
0
  0
VERTEX
  8
0
 10
11.77
 20
6.52658
 30
0.0
 40
0
 41
0
  0
VERTEX
  8
0
 10
11.7828
 20
6.52225
 30
0.0
 40
0
 41
0
  0
VERTEX
  8
0
 10
11.7896
 20
6.51372
 30
0.0
 40
0
 41
0
  0
VERTEX
  8
0
 10
11.7917
 20
6.50347
 30
0.0
 40
0
 41
0
  0
VERTEX
  8
0
 10
11.7917
 20
6.5
 30
0.0
 40
0
 41
0
  0
VERTEX
  8
0
 10
11.7917
 20
6.49647
 30
0.0
 40
0
 41
0
  0
VERTEX
  8
0
 10
11.7941
 20
6.48574
 30
0.0
 40
0
 41
0
  0
VERTEX
  8
0
 10
11.804
 20
6.47726
 30
0.0
 40
0
 41
0
  0
VERTEX
  8
0
 10
11.825
 20
6.47325
 30
0.0
 40
0
 41
0
  0
VERTEX
  8
0
 10
11.8521
 20
6.47222
 30
0.0
 40
0
 41
0
  0
VERTEX
  8
0
 10
11.8611
 20
6.47222
 30
0.0
 40
0
 41
0
  0
VERTEX
  8
0
 10
11.9306
 20
6.47222
 30
0.0
 40
0
 41
0
  0
VERTEX
  8
0
 10
11.9306
 20
6.61111
 30
0.0
 40
0
 41
0
  0
VERTEX
  8
0
 10
12.0694
 20
6.61111
 30
0.0
 40
0
 41
0
  0
VERTEX
  8
0
 10
12.0694
 20
6.93056
 30
0.0
 40
0
 41
0
  0
VERTEX
  8
0
 10
11.5833
 20
6.93056
 30
0.0
 40
0
 41
0
  0
VERTEX
  8
0
 10
11.5833
 20
7.19444
 30
0.0
 40
0
 41
0
  0
VERTEX
  8
0
 10
12.0694
 20
7.19444
 30
0.0
 40
0
 41
0
  0
VERTEX
  8
0
 10
12.0694
 20
7.51389
 30
0.0
 40
0
 41
0
  0
VERTEX
  8
0
 10
11.9306
 20
7.51389
 30
0.0
 40
0
 41
0
  0
VERTEX
  8
0
 10
11.9306
 20
7.65278
 30
0.0
 40
0
 41
0
  0
VERTEX
  8
0
 10
11.8611
 20
7.65278
 30
0.0
 40
0
 41
0
  0
VERTEX
  8
0
 10
11.8521
 20
7.65278
 30
0.0
 40
0
 41
0
  0
VERTEX
  8
0
 10
11.825
 20
7.65181
 30
0.0
 40
0
 41
0
  0
VERTEX
  8
0
 10
11.804
 20
7.64779
 30
0.0
 40
0
 41
0
  0
VERTEX
  8
0
 10
11.7941
 20
7.63932
 30
0.0
 40
0
 41
0
  0
VERTEX
  8
0
 10
11.7917
 20
7.62858
 30
0.0
 40
0
 41
0
  0
VERTEX
  8
0
 10
11.7917
 20
7.625
 30
0.0
 40
0
 41
0
  0
VERTEX
  8
0
 10
11.7917
 20
7.62158
 30
0.0
 40
0
 41
0
  0
VERTEX
  8
0
 10
11.7896
 20
7.61133
 30
0.0
 40
0
 41
0
  0
VERTEX
  8
0
 10
11.7828
 20
7.60281
 30
0.0
 40
0
 41
0
  0
VERTEX
  8
0
 10
11.77
 20
7.59847
 30
0.0
 40
0
 41
0
  0
VERTEX
  8
0
 10
11.755
 20
7.59722
 30
0.0
 40
0
 41
0
  0
VERTEX
  8
0
 10
11.75
 20
7.59722
 30
0.0
 40
0
 41
0
  0
VERTEX
  8
0
 10
11.745
 20
7.59722
 30
0.0
 40
0
 41
0
  0
VERTEX
  8
0
 10
11.73
 20
7.59847
 30
0.0
 40
0
 41
0
  0
VERTEX
  8
0
 10
11.7172
 20
7.60281
 30
0.0
 40
0
 41
0
  0
VERTEX
  8
0
 10
11.7103
 20
7.61133
 30
0.0
 40
0
 41
0
  0
VERTEX
  8
0
 10
11.7083
 20
7.62158
 30
0.0
 40
0
 41
0
  0
VERTEX
  8
0
 10
11.7083
 20
7.625
 30
0.0
 40
0
 41
0
  0
VERTEX
  8
0
 10
11.7083
 20
7.62858
 30
0.0
 40
0
 41
0
  0
VERTEX
  8
0
 10
11.7059
 20
7.63932
 30
0.0
 40
0
 41
0
  0
VERTEX
  8
0
 10
11.6968
 20
7.64779
 30
0.0
 40
0
 41
0
  0
VERTEX
  8
0
 10
11.6778
 20
7.65181
 30
0.0
 40
0
 41
0
  0
VERTEX
  8
0
 10
11.6538
 20
7.65278
 30
0.0
 40
0
 41
0
  0
VERTEX
  8
0
 10
11.6458
 20
7.65278
 30
0.0
 40
0
 41
0
  0
VERTEX
  8
0
 10
11.5833
 20
7.65278
 30
0.0
 40
0
 41
0
  0
VERTEX
  8
0
 10
11.5833
 20
7.77778
 30
0.0
 40
0
 41
0
  0
VERTEX
  8
0
 10
11.6458
 20
7.77778
 30
0.0
 40
0
 41
0
  0
VERTEX
  8
0
 10
11.6542
 20
7.77778
 30
0.0
 40
0
 41
0
  0
VERTEX
  8
0
 10
11.6796
 20
7.77875
 30
0.0
 40
0
 41
0
  0
VERTEX
  8
0
 10
11.6984
 20
7.78321
 30
0.0
 40
0
 41
0
  0
VERTEX
  8
0
 10
11.7065
 20
7.79362
 30
0.0
 40
0
 41
0
  0
VERTEX
  8
0
 10
11.7083
 20
7.80778
 30
0.0
 40
0
 41
0
  0
VERTEX
  8
0
 10
11.7083
 20
7.8125
 30
0.0
 40
0
 41
0
  0
VERTEX
  8
0
 10
11.7083
 20
7.81694
 30
0.0
 40
0
 41
0
  0
VERTEX
  8
0
 10
11.71
 20
7.83024
 30
0.0
 40
0
 41
0
  0
VERTEX
  8
0
 10
11.7162
 20
7.84082
 30
0.0
 40
0
 41
0
  0
VERTEX
  8
0
 10
11.7288
 20
7.84592
 30
0.0
 40
0
 41
0
  0
VERTEX
  8
0
 10
11.7447
 20
7.84722
 30
0.0
 40
0
 41
0
  0
VERTEX
  8
0
 10
11.75
 20
7.84722
 30
0.0
 40
0
 41
0
  0
VERTEX
  8
0
 10
11.7553
 20
7.84722
 30
0.0
 40
0
 41
0
  0
VERTEX
  8
0
 10
11.7712
 20
7.84592
 30
0.0
 40
0
 41
0
  0
VERTEX
  8
0
 10
11.7839
 20
7.84082
 30
0.0
 40
0
 41
0
  0
VERTEX
  8
0
 10
11.79
 20
7.83024
 30
0.0
 40
0
 41
0
  0
VERTEX
  8
0
 10
11.7917
 20
7.81694
 30
0.0
 40
0
 41
0
  0
VERTEX
  8
0
 10
11.7917
 20
7.8125
 30
0.0
 40
0
 41
0
  0
VERTEX
  8
0
 10
11.7917
 20
7.80778
 30
0.0
 40
0
 41
0
  0
VERTEX
  8
0
 10
11.7933
 20
7.79362
 30
0.0
 40
0
 41
0
  0
VERTEX
  8
0
 10
11.8019
 20
7.78321
 30
0.0
 40
0
 41
0
  0
VERTEX
  8
0
 10
11.8227
 20
7.77875
 30
0.0
 40
0
 41
0
  0
VERTEX
  8
0
 10
11.8515
 20
7.77778
 30
0.0
 40
0
 41
0
  0
VERTEX
  8
0
 10
11.8611
 20
7.77778
 30
0.0
 40
0
 41
0
  0
VERTEX
  8
0
 10
11.9306
 20
7.77778
 30
0.0
 40
0
 41
0
  0
VERTEX
  8
0
 10
11.9306
 20
7.93056
 30
0.0
 40
0
 41
0
  0
VERTEX
  8
0
 10
12.0694
 20
7.93056
 30
0.0
 40
0
 41
0
  0
VERTEX
  8
0
 10
12.0694
 20
8.25
 30
0.0
 40
0
 41
0
  0
VERTEX
  8
0
 10
11.9306
 20
8.25
 30
0.0
 40
0
 41
0
  0
VERTEX
  8
0
 10
11.9306
 20
8.51389
 30
0.0
 40
0
 41
0
  0
VERTEX
  8
0
 10
12.0694
 20
8.51389
 30
0.0
 40
0
 41
0
  0
VERTEX
  8
0
 10
12.0694
 20
8.83333
 30
0.0
 40
0
 41
0
  0
VERTEX
  8
0
 10
11.9306
 20
8.83333
 30
0.0
 40
0
 41
0
  0
VERTEX
  8
0
 10
11.9306
 20
9.11111
 30
0.0
 40
0
 41
0
  0
VERTEX
  8
0
 10
12.0694
 20
9.11111
 30
0.0
 40
0
 41
0
  0
VERTEX
  8
0
 10
12.0694
 20
9.43056
 30
0.0
 40
0
 41
0
  0
VERTEX
  8
0
 10
11.9306
 20
9.43056
 30
0.0
 40
0
 41
0
  0
VERTEX
  8
0
 10
11.9306
 20
9.69444
 30
0.0
 40
0
 41
0
  0
VERTEX
  8
0
 10
12.0694
 20
9.69444
 30
0.0
 40
0
 41
0
  0
VERTEX
  8
0
 10
12.0694
 20
10.0139
 30
0.0
 40
0
 41
0
  0
VERTEX
  8
0
 10
11.9306
 20
10.0139
 30
0.0
 40
0
 41
0
  0
VERTEX
  8
0
 10
11.9306
 20
10.2917
 30
0.0
 40
0
 41
0
  0
VERTEX
  8
0
 10
12.0694
 20
10.2917
 30
0.0
 40
0
 41
0
  0
VERTEX
  8
0
 10
12.0694
 20
10.6111
 30
0.0
 40
0
 41
0
  0
VERTEX
  8
0
 10
11.9306
 20
10.6111
 30
0.0
 40
0
 41
0
  0
VERTEX
  8
0
 10
11.9306
 20
10.875
 30
0.0
 40
0
 41
0
  0
VERTEX
  8
0
 10
12.0694
 20
10.875
 30
0.0
 40
0
 41
0
  0
VERTEX
  8
0
 10
12.0694
 20
11.1944
 30
0.0
 40
0
 41
0
  0
VERTEX
  8
0
 10
11.9306
 20
11.1944
 30
0.0
 40
0
 41
0
  0
VERTEX
  8
0
 10
11.9306
 20
11.3472
 30
0.0
 40
0
 41
0
  0
VERTEX
  8
0
 10
11.8611
 20
11.3472
 30
0.0
 40
0
 41
0
  0
VERTEX
  8
0
 10
11.8515
 20
11.3472
 30
0.0
 40
0
 41
0
  0
VERTEX
  8
0
 10
11.8227
 20
11.3463
 30
0.0
 40
0
 41
0
  0
VERTEX
  8
0
 10
11.8019
 20
11.3418
 30
0.0
 40
0
 41
0
  0
VERTEX
  8
0
 10
11.7933
 20
11.3314
 30
0.0
 40
0
 41
0
  0
VERTEX
  8
0
 10
11.7917
 20
11.3173
 30
0.0
 40
0
 41
0
  0
VERTEX
  8
0
 10
11.7917
 20
11.3125
 30
0.0
 40
0
 41
0
  0
VERTEX
  8
0
 10
11.7917
 20
11.3081
 30
0.0
 40
0
 41
0
  0
VERTEX
  8
0
 10
11.79
 20
11.2948
 30
0.0
 40
0
 41
0
  0
VERTEX
  8
0
 10
11.7839
 20
11.2842
 30
0.0
 40
0
 41
0
  0
VERTEX
  8
0
 10
11.7712
 20
11.2791
 30
0.0
 40
0
 41
0
  0
VERTEX
  8
0
 10
11.7553
 20
11.2778
 30
0.0
 40
0
 41
0
  0
VERTEX
  8
0
 10
11.75
 20
11.2778
 30
0.0
 40
0
 41
0
  0
VERTEX
  8
0
 10
11.7447
 20
11.2778
 30
0.0
 40
0
 41
0
  0
VERTEX
  8
0
 10
11.7288
 20
11.2791
 30
0.0
 40
0
 41
0
  0
VERTEX
  8
0
 10
11.7162
 20
11.2842
 30
0.0
 40
0
 41
0
  0
VERTEX
  8
0
 10
11.71
 20
11.2948
 30
0.0
 40
0
 41
0
  0
VERTEX
  8
0
 10
11.7083
 20
11.3081
 30
0.0
 40
0
 41
0
  0
VERTEX
  8
0
 10
11.7083
 20
11.3125
 30
0.0
 40
0
 41
0
  0
VERTEX
  8
0
 10
11.7083
 20
11.3173
 30
0.0
 40
0
 41
0
  0
VERTEX
  8
0
 10
11.7065
 20
11.3314
 30
0.0
 40
0
 41
0
  0
VERTEX
  8
0
 10
11.6984
 20
11.3418
 30
0.0
 40
0
 41
0
  0
VERTEX
  8
0
 10
11.6796
 20
11.3463
 30
0.0
 40
0
 41
0
  0
VERTEX
  8
0
 10
11.6542
 20
11.3472
 30
0.0
 40
0
 41
0
  0
VERTEX
  8
0
 10
11.6458
 20
11.3472
 30
0.0
 40
0
 41
0
  0
VERTEX
  8
0
 10
11.5833
 20
11.3472
 30
0.0
 40
0
 41
0
  0
VERTEX
  8
0
 10
11.5833
 20
11.4722
 30
0.0
 40
0
 41
0
  0
VERTEX
  8
0
 10
11.6458
 20
11.4722
 30
0.0
 40
0
 41
0
  0
VERTEX
  8
0
 10
11.6538
 20
11.4722
 30
0.0
 40
0
 41
0
  0
VERTEX
  8
0
 10
11.6778
 20
11.4732
 30
0.0
 40
0
 41
0
  0
VERTEX
  8
0
 10
11.6968
 20
11.4773
 30
0.0
 40
0
 41
0
  0
VERTEX
  8
0
 10
11.7059
 20
11.4857
 30
0.0
 40
0
 41
0
  0
VERTEX
  8
0
 10
11.7083
 20
11.4965
 30
0.0
 40
0
 41
0
  0
VERTEX
  8
0
 10
11.7083
 20
11.5
 30
0.0
 40
0
 41
0
  0
VERTEX
  8
0
 10
11.7083
 20
11.5035
 30
0.0
 40
0
 41
0
  0
VERTEX
  8
0
 10
11.7103
 20
11.5137
 30
0.0
 40
0
 41
0
  0
VERTEX
  8
0
 10
11.7172
 20
11.5222
 30
0.0
 40
0
 41
0
  0
VERTEX
  8
0
 10
11.73
 20
11.5266
 30
0.0
 40
0
 41
0
  0
VERTEX
  8
0
 10
11.745
 20
11.5278
 30
0.0
 40
0
 41
0
  0
VERTEX
  8
0
 10
11.75
 20
11.5278
 30
0.0
 40
0
 41
0
  0
VERTEX
  8
0
 10
11.755
 20
11.5278
 30
0.0
 40
0
 41
0
  0
VERTEX
  8
0
 10
11.77
 20
11.5266
 30
0.0
 40
0
 41
0
  0
VERTEX
  8
0
 10
11.7828
 20
11.5222
 30
0.0
 40
0
 41
0
  0
VERTEX
  8
0
 10
11.7896
 20
11.5137
 30
0.0
 40
0
 41
0
  0
VERTEX
  8
0
 10
11.7917
 20
11.5035
 30
0.0
 40
0
 41
0
  0
VERTEX
  8
0
 10
11.7917
 20
11.5
 30
0.0
 40
0
 41
0
  0
VERTEX
  8
0
 10
11.7917
 20
11.4965
 30
0.0
 40
0
 41
0
  0
VERTEX
  8
0
 10
11.7941
 20
11.4857
 30
0.0
 40
0
 41
0
  0
VERTEX
  8
0
 10
11.804
 20
11.4773
 30
0.0
 40
0
 41
0
  0
VERTEX
  8
0
 10
11.825
 20
11.4732
 30
0.0
 40
0
 41
0
  0
VERTEX
  8
0
 10
11.8521
 20
11.4722
 30
0.0
 40
0
 41
0
  0
VERTEX
  8
0
 10
11.8611
 20
11.4722
 30
0.0
 40
0
 41
0
  0
VERTEX
  8
0
 10
11.9306
 20
11.4722
 30
0.0
 40
0
 41
0
  0
VERTEX
  8
0
 10
11.9306
 20
11.6111
 30
0.0
 40
0
 41
0
  0
VERTEX
  8
0
 10
12.0694
 20
11.6111
 30
0.0
 40
0
 41
0
  0
VERTEX
  8
0
 10
12.0694
 20
11.9306
 30
0.0
 40
0
 41
0
  0
VERTEX
  8
0
 10
11.5833
 20
11.9306
 30
0.0
 40
0
 41
0
  0
VERTEX
  8
0
 10
11.5833
 20
12.0694
 30
0.0
 40
0
 41
0
  0
VERTEX
  8
0
 10
11.4028
 20
12.0694
 30
0.0
 40
0
 41
0
  0
VERTEX
  8
0
 10
11.4028
 20
11.8889
 30
0.0
 40
0
 41
0
  0
VERTEX
  8
0
 10
11.25
 20
11.8889
 30
0.0
 40
0
 41
0
  0
VERTEX
  8
0
 10
11.25
 20
12.0694
 30
0.0
 40
0
 41
0
  0
VERTEX
  8
0
 10
11.0694
 20
12.0694
 30
0.0
 40
0
 41
0
  0
VERTEX
  8
0
 10
11.0694
 20
11.9306
 30
0.0
 40
0
 41
0
  0
VERTEX
  8
0
 10
10.8056
 20
11.9306
 30
0.0
 40
0
 41
0
  0
VERTEX
  8
0
 10
10.8056
 20
12.0694
 30
0.0
 40
0
 41
0
  0
VERTEX
  8
0
 10
10.625
 20
12.0694
 30
0.0
 40
0
 41
0
  0
VERTEX
  8
0
 10
10.625
 20
11.8889
 30
0.0
 40
0
 41
0
  0
VERTEX
  8
0
 10
10.4722
 20
11.8889
 30
0.0
 40
0
 41
0
  0
VERTEX
  8
0
 10
10.4722
 20
12.0694
 30
0.0
 40
0
 41
0
  0
VERTEX
  8
0
 10
10.2917
 20
12.0694
 30
0.0
 40
0
 41
0
  0
VERTEX
  8
0
 10
10.2917
 20
11.9306
 30
0.0
 40
0
 41
0
  0
VERTEX
  8
0
 10
9.80556
 20
11.9306
 30
0.0
 40
0
 41
0
  0
VERTEX
  8
0
 10
9.80556
 20
11.6389
 30
0.0
 40
0
 41
0
  0
VERTEX
  8
0
 10
9.68056
 20
11.6389
 30
0.0
 40
0
 41
0
  0
VERTEX
  8
0
 10
9.68056
 20
12.0694
 30
0.0
 40
0
 41
0
  0
VERTEX
  8
0
 10
9.41667
 20
12.0694
 30
0.0
 40
0
 41
0
  0
VERTEX
  8
0
 10
9.41667
 20
11.9306
 30
0.0
 40
0
 41
0
  0
VERTEX
  8
0
 10
9.30556
 20
11.9306
 30
0.0
 40
0
 41
0
  0
VERTEX
  8
0
 10
9.30556
 20
11.8611
 30
0.0
 40
0
 41
0
  0
VERTEX
  8
0
 10
9.30556
 20
11.8516
 30
0.0
 40
0
 41
0
  0
VERTEX
  8
0
 10
9.30647
 20
11.8227
 30
0.0
 40
0
 41
0
  0
VERTEX
  8
0
 10
9.31093
 20
11.8019
 30
0.0
 40
0
 41
0
  0
VERTEX
  8
0
 10
9.32135
 20
11.7933
 30
0.0
 40
0
 41
0
  0
VERTEX
  8
0
 10
9.3355
 20
11.7917
 30
0.0
 40
0
 41
0
  0
VERTEX
  8
0
 10
9.34028
 20
11.7917
 30
0.0
 40
0
 41
0
  0
VERTEX
  8
0
 10
9.34467
 20
11.7917
 30
0.0
 40
0
 41
0
  0
VERTEX
  8
0
 10
9.35796
 20
11.79
 30
0.0
 40
0
 41
0
  0
VERTEX
  8
0
 10
9.36854
 20
11.7839
 30
0.0
 40
0
 41
0
  0
VERTEX
  8
0
 10
9.37364
 20
11.7712
 30
0.0
 40
0
 41
0
  0
VERTEX
  8
0
 10
9.375
 20
11.7553
 30
0.0
 40
0
 41
0
  0
VERTEX
  8
0
 10
9.375
 20
11.75
 30
0.0
 40
0
 41
0
  0
VERTEX
  8
0
 10
9.375
 20
11.7447
 30
0.0
 40
0
 41
0
  0
VERTEX
  8
0
 10
9.37364
 20
11.7288
 30
0.0
 40
0
 41
0
  0
VERTEX
  8
0
 10
9.36854
 20
11.7162
 30
0.0
 40
0
 41
0
  0
VERTEX
  8
0
 10
9.35796
 20
11.71
 30
0.0
 40
0
 41
0
  0
VERTEX
  8
0
 10
9.34467
 20
11.7083
 30
0.0
 40
0
 41
0
  0
VERTEX
  8
0
 10
9.34028
 20
11.7083
 30
0.0
 40
0
 41
0
  0
VERTEX
  8
0
 10
9.3355
 20
11.7083
 30
0.0
 40
0
 41
0
  0
VERTEX
  8
0
 10
9.32135
 20
11.7066
 30
0.0
 40
0
 41
0
  0
VERTEX
  8
0
 10
9.31093
 20
11.6985
 30
0.0
 40
0
 41
0
  0
VERTEX
  8
0
 10
9.30647
 20
11.6796
 30
0.0
 40
0
 41
0
  0
VERTEX
  8
0
 10
9.30556
 20
11.6543
 30
0.0
 40
0
 41
0
  0
VERTEX
  8
0
 10
9.30556
 20
11.6458
 30
0.0
 40
0
 41
0
  0
VERTEX
  8
0
 10
9.30556
 20
11.5833
 30
0.0
 40
0
 41
0
  0
VERTEX
  8
0
 10
9.18056
 20
11.5833
 30
0.0
 40
0
 41
0
  0
VERTEX
  8
0
 10
9.18056
 20
11.6458
 30
0.0
 40
0
 41
0
  0
VERTEX
  8
0
 10
9.18056
 20
11.6539
 30
0.0
 40
0
 41
0
  0
VERTEX
  8
0
 10
9.17953
 20
11.6779
 30
0.0
 40
0
 41
0
  0
VERTEX
  8
0
 10
9.17551
 20
11.6969
 30
0.0
 40
0
 41
0
  0
VERTEX
  8
0
 10
9.16704
 20
11.706
 30
0.0
 40
0
 41
0
  0
VERTEX
  8
0
 10
9.15631
 20
11.7083
 30
0.0
 40
0
 41
0
  0
VERTEX
  8
0
 10
9.15278
 20
11.7083
 30
0.0
 40
0
 41
0
  0
VERTEX
  8
0
 10
9.14931
 20
11.7083
 30
0.0
 40
0
 41
0
  0
VERTEX
  8
0
 10
9.13906
 20
11.7104
 30
0.0
 40
0
 41
0
  0
VERTEX
  8
0
 10
9.13053
 20
11.7172
 30
0.0
 40
0
 41
0
  0
VERTEX
  8
0
 10
9.12619
 20
11.73
 30
0.0
 40
0
 41
0
  0
VERTEX
  8
0
 10
9.125
 20
11.745
 30
0.0
 40
0
 41
0
  0
VERTEX
  8
0
 10
9.125
 20
11.75
 30
0.0
 40
0
 41
0
  0
VERTEX
  8
0
 10
9.125
 20
11.755
 30
0.0
 40
0
 41
0
  0
VERTEX
  8
0
 10
9.12619
 20
11.77
 30
0.0
 40
0
 41
0
  0
VERTEX
  8
0
 10
9.13053
 20
11.7828
 30
0.0
 40
0
 41
0
  0
VERTEX
  8
0
 10
9.13906
 20
11.7897
 30
0.0
 40
0
 41
0
  0
VERTEX
  8
0
 10
9.14931
 20
11.7917
 30
0.0
 40
0
 41
0
  0
VERTEX
  8
0
 10
9.15278
 20
11.7917
 30
0.0
 40
0
 41
0
  0
VERTEX
  8
0
 10
9.15631
 20
11.7917
 30
0.0
 40
0
 41
0
  0
VERTEX
  8
0
 10
9.16704
 20
11.7942
 30
0.0
 40
0
 41
0
  0
VERTEX
  8
0
 10
9.17551
 20
11.804
 30
0.0
 40
0
 41
0
  0
VERTEX
  8
0
 10
9.17953
 20
11.8251
 30
0.0
 40
0
 41
0
  0
VERTEX
  8
0
 10
9.18056
 20
11.8521
 30
0.0
 40
0
 41
0
  0
VERTEX
  8
0
 10
9.18056
 20
11.8611
 30
0.0
 40
0
 41
0
  0
VERTEX
  8
0
 10
9.18056
 20
11.9306
 30
0.0
 40
0
 41
0
  0
VERTEX
  8
0
 10
9.06944
 20
11.9306
 30
0.0
 40
0
 41
0
  0
VERTEX
  8
0
 10
9.06944
 20
12.0694
 30
0.0
 40
0
 41
0
  0
VERTEX
  8
0
 10
8.75
 20
12.0694
 30
0.0
 40
0
 41
0
  0
VERTEX
  8
0
 10
8.75
 20
11.9306
 30
0.0
 40
0
 41
0
  0
VERTEX
  8
0
 10
8.48611
 20
11.9306
 30
0.0
 40
0
 41
0
  0
VERTEX
  8
0
 10
8.48611
 20
12.0694
 30
0.0
 40
0
 41
0
  0
VERTEX
  8
0
 10
8.16667
 20
12.0694
 30
0.0
 40
0
 41
0
  0
VERTEX
  8
0
 10
8.16667
 20
11.9306
 30
0.0
 40
0
 41
0
  0
VERTEX
  8
0
 10
7.88889
 20
11.9306
 30
0.0
 40
0
 41
0
  0
VERTEX
  8
0
 10
7.88889
 20
12.0694
 30
0.0
 40
0
 41
0
  0
VERTEX
  8
0
 10
7.56944
 20
12.0694
 30
0.0
 40
0
 41
0
  0
VERTEX
  8
0
 10
7.56944
 20
11.9306
 30
0.0
 40
0
 41
0
  0
VERTEX
  8
0
 10
7.30556
 20
11.9306
 30
0.0
 40
0
 41
0
  0
VERTEX
  8
0
 10
7.30556
 20
12.0694
 30
0.0
 40
0
 41
0
  0
VERTEX
  8
0
 10
6.98611
 20
12.0694
 30
0.0
 40
0
 41
0
  0
VERTEX
  8
0
 10
6.98611
 20
11.9306
 30
0.0
 40
0
 41
0
  0
VERTEX
  8
0
 10
6.70833
 20
11.9306
 30
0.0
 40
0
 41
0
  0
VERTEX
  8
0
 10
6.70833
 20
12.0694
 30
0.0
 40
0
 41
0
  0
VERTEX
  8
0
 10
6.38889
 20
12.0694
 30
0.0
 40
0
 41
0
  0
VERTEX
  8
0
 10
6.38889
 20
11.9306
 30
0.0
 40
0
 41
0
  0
VERTEX
  8
0
 10
6.125
 20
11.9306
 30
0.0
 40
0
 41
0
  0
VERTEX
  8
0
 10
6.125
 20
12.0694
 30
0.0
 40
0
 41
0
  0
VERTEX
  8
0
 10
5.80556
 20
12.0694
 30
0.0
 40
0
 41
0
  0
VERTEX
  8
0
 10
5.80556
 20
11.9306
 30
0.0
 40
0
 41
0
  0
VERTEX
  8
0
 10
5.69444
 20
11.9306
 30
0.0
 40
0
 41
0
  0
VERTEX
  8
0
 10
5.69444
 20
11.8611
 30
0.0
 40
0
 41
0
  0
VERTEX
  8
0
 10
5.69444
 20
11.8521
 30
0.0
 40
0
 41
0
  0
VERTEX
  8
0
 10
5.69542
 20
11.8251
 30
0.0
 40
0
 41
0
  0
VERTEX
  8
0
 10
5.69943
 20
11.804
 30
0.0
 40
0
 41
0
  0
VERTEX
  8
0
 10
5.7079
 20
11.7942
 30
0.0
 40
0
 41
0
  0
VERTEX
  8
0
 10
5.71864
 20
11.7917
 30
0.0
 40
0
 41
0
  0
VERTEX
  8
0
 10
5.72222
 20
11.7917
 30
0.0
 40
0
 41
0
  0
VERTEX
  8
0
 10
5.72564
 20
11.7917
 30
0.0
 40
0
 41
0
  0
VERTEX
  8
0
 10
5.73589
 20
11.7897
 30
0.0
 40
0
 41
0
  0
VERTEX
  8
0
 10
5.74442
 20
11.7828
 30
0.0
 40
0
 41
0
  0
VERTEX
  8
0
 10
5.74875
 20
11.77
 30
0.0
 40
0
 41
0
  0
VERTEX
  8
0
 10
5.75
 20
11.755
 30
0.0
 40
0
 41
0
  0
VERTEX
  8
0
 10
5.75
 20
11.75
 30
0.0
 40
0
 41
0
  0
VERTEX
  8
0
 10
5.75
 20
11.745
 30
0.0
 40
0
 41
0
  0
VERTEX
  8
0
 10
5.74875
 20
11.73
 30
0.0
 40
0
 41
0
  0
VERTEX
  8
0
 10
5.74442
 20
11.7172
 30
0.0
 40
0
 41
0
  0
VERTEX
  8
0
 10
5.73589
 20
11.7104
 30
0.0
 40
0
 41
0
  0
VERTEX
  8
0
 10
5.72564
 20
11.7083
 30
0.0
 40
0
 41
0
  0
VERTEX
  8
0
 10
5.72222
 20
11.7083
 30
0.0
 40
0
 41
0
  0
VERTEX
  8
0
 10
5.71864
 20
11.7083
 30
0.0
 40
0
 41
0
  0
VERTEX
  8
0
 10
5.7079
 20
11.706
 30
0.0
 40
0
 41
0
  0
VERTEX
  8
0
 10
5.69943
 20
11.6969
 30
0.0
 40
0
 41
0
  0
VERTEX
  8
0
 10
5.69542
 20
11.6779
 30
0.0
 40
0
 41
0
  0
VERTEX
  8
0
 10
5.69444
 20
11.6539
 30
0.0
 40
0
 41
0
  0
VERTEX
  8
0
 10
5.69444
 20
11.6458
 30
0.0
 40
0
 41
0
  0
VERTEX
  8
0
 10
5.69444
 20
11.5833
 30
0.0
 40
0
 41
0
  0
VERTEX
  8
0
 10
5.56944
 20
11.5833
 30
0.0
 40
0
 41
0
  0
VERTEX
  8
0
 10
5.56944
 20
11.6458
 30
0.0
 40
0
 41
0
  0
VERTEX
  8
0
 10
5.56944
 20
11.6543
 30
0.0
 40
0
 41
0
  0
VERTEX
  8
0
 10
5.56847
 20
11.6796
 30
0.0
 40
0
 41
0
  0
VERTEX
  8
0
 10
5.56401
 20
11.6985
 30
0.0
 40
0
 41
0
  0
VERTEX
  8
0
 10
5.5536
 20
11.7066
 30
0.0
 40
0
 41
0
  0
VERTEX
  8
0
 10
5.53944
 20
11.7083
 30
0.0
 40
0
 41
0
  0
VERTEX
  8
0
 10
5.53472
 20
11.7083
 30
0.0
 40
0
 41
0
  0
VERTEX
  8
0
 10
5.53028
 20
11.7083
 30
0.0
 40
0
 41
0
  0
VERTEX
  8
0
 10
5.51699
 20
11.71
 30
0.0
 40
0
 41
0
  0
VERTEX
  8
0
 10
5.5064
 20
11.7162
 30
0.0
 40
0
 41
0
  0
VERTEX
  8
0
 10
5.50131
 20
11.7288
 30
0.0
 40
0
 41
0
  0
VERTEX
  8
0
 10
5.5
 20
11.7447
 30
0.0
 40
0
 41
0
  0
VERTEX
  8
0
 10
5.5
 20
11.75
 30
0.0
 40
0
 41
0
  0
VERTEX
  8
0
 10
5.5
 20
11.7553
 30
0.0
 40
0
 41
0
  0
VERTEX
  8
0
 10
5.50131
 20
11.7712
 30
0.0
 40
0
 41
0
  0
VERTEX
  8
0
 10
5.5064
 20
11.7839
 30
0.0
 40
0
 41
0
  0
VERTEX
  8
0
 10
5.51699
 20
11.79
 30
0.0
 40
0
 41
0
  0
VERTEX
  8
0
 10
5.53028
 20
11.7917
 30
0.0
 40
0
 41
0
  0
VERTEX
  8
0
 10
5.53472
 20
11.7917
 30
0.0
 40
0
 41
0
  0
VERTEX
  8
0
 10
5.53944
 20
11.7917
 30
0.0
 40
0
 41
0
  0
VERTEX
  8
0
 10
5.5536
 20
11.7933
 30
0.0
 40
0
 41
0
  0
VERTEX
  8
0
 10
5.56401
 20
11.8019
 30
0.0
 40
0
 41
0
  0
VERTEX
  8
0
 10
5.56847
 20
11.8227
 30
0.0
 40
0
 41
0
  0
VERTEX
  8
0
 10
5.56944
 20
11.8516
 30
0.0
 40
0
 41
0
  0
VERTEX
  8
0
 10
5.56944
 20
11.8611
 30
0.0
 40
0
 41
0
  0
VERTEX
  8
0
 10
5.56944
 20
11.9306
 30
0.0
 40
0
 41
0
  0
VERTEX
  8
0
 10
5.45833
 20
11.9306
 30
0.0
 40
0
 41
0
  0
VERTEX
  8
0
 10
5.45833
 20
12.0694
 30
0.0
 40
0
 41
0
  0
VERTEX
  8
0
 10
5.19444
 20
12.0694
 30
0.0
 40
0
 41
0
  0
VERTEX
  8
0
 10
5.19444
 20
11.6389
 30
0.0
 40
0
 41
0
  0
VERTEX
  8
0
 10
4.93056
 20
11.6389
 30
0.0
 40
0
 41
0
  0
VERTEX
  8
0
 10
4.93056
 20
12.0694
 30
0.0
 40
0
 41
0
  0
VERTEX
  8
0
 10
4.66667
 20
12.0694
 30
0.0
 40
0
 41
0
  0
VERTEX
  8
0
 10
4.66667
 20
11.9306
 30
0.0
 40
0
 41
0
  0
VERTEX
  8
0
 10
4.55556
 20
11.9306
 30
0.0
 40
0
 41
0
  0
VERTEX
  8
0
 10
4.55556
 20
11.8611
 30
0.0
 40
0
 41
0
  0
VERTEX
  8
0
 10
4.55556
 20
11.8516
 30
0.0
 40
0
 41
0
  0
VERTEX
  8
0
 10
4.55647
 20
11.8227
 30
0.0
 40
0
 41
0
  0
VERTEX
  8
0
 10
4.56093
 20
11.8019
 30
0.0
 40
0
 41
0
  0
VERTEX
  8
0
 10
4.57135
 20
11.7933
 30
0.0
 40
0
 41
0
  0
VERTEX
  8
0
 10
4.5855
 20
11.7917
 30
0.0
 40
0
 41
0
  0
VERTEX
  8
0
 10
4.59028
 20
11.7917
 30
0.0
 40
0
 41
0
  0
VERTEX
  8
0
 10
4.59467
 20
11.7917
 30
0.0
 40
0
 41
0
  0
VERTEX
  8
0
 10
4.60796
 20
11.79
 30
0.0
 40
0
 41
0
  0
VERTEX
  8
0
 10
4.61854
 20
11.7839
 30
0.0
 40
0
 41
0
  0
VERTEX
  8
0
 10
4.62364
 20
11.7712
 30
0.0
 40
0
 41
0
  0
VERTEX
  8
0
 10
4.625
 20
11.7553
 30
0.0
 40
0
 41
0
  0
VERTEX
  8
0
 10
4.625
 20
11.75
 30
0.0
 40
0
 41
0
  0
VERTEX
  8
0
 10
4.625
 20
11.7447
 30
0.0
 40
0
 41
0
  0
VERTEX
  8
0
 10
4.62364
 20
11.7288
 30
0.0
 40
0
 41
0
  0
VERTEX
  8
0
 10
4.61854
 20
11.7162
 30
0.0
 40
0
 41
0
  0
VERTEX
  8
0
 10
4.60796
 20
11.71
 30
0.0
 40
0
 41
0
  0
VERTEX
  8
0
 10
4.59467
 20
11.7083
 30
0.0
 40
0
 41
0
  0
VERTEX
  8
0
 10
4.59028
 20
11.7083
 30
0.0
 40
0
 41
0
  0
VERTEX
  8
0
 10
4.5855
 20
11.7083
 30
0.0
 40
0
 41
0
  0
VERTEX
  8
0
 10
4.57135
 20
11.7066
 30
0.0
 40
0
 41
0
  0
VERTEX
  8
0
 10
4.56093
 20
11.6985
 30
0.0
 40
0
 41
0
  0
VERTEX
  8
0
 10
4.55647
 20
11.6796
 30
0.0
 40
0
 41
0
  0
VERTEX
  8
0
 10
4.55556
 20
11.6543
 30
0.0
 40
0
 41
0
  0
VERTEX
  8
0
 10
4.55556
 20
11.6458
 30
0.0
 40
0
 41
0
  0
VERTEX
  8
0
 10
4.55556
 20
11.5833
 30
0.0
 40
0
 41
0
  0
VERTEX
  8
0
 10
4.43056
 20
11.5833
 30
0.0
 40
0
 41
0
  0
VERTEX
  8
0
 10
4.43056
 20
11.6458
 30
0.0
 40
0
 41
0
  0
VERTEX
  8
0
 10
4.43056
 20
11.6539
 30
0.0
 40
0
 41
0
  0
VERTEX
  8
0
 10
4.42953
 20
11.6779
 30
0.0
 40
0
 41
0
  0
VERTEX
  8
0
 10
4.42551
 20
11.6969
 30
0.0
 40
0
 41
0
  0
VERTEX
  8
0
 10
4.41704
 20
11.706
 30
0.0
 40
0
 41
0
  0
VERTEX
  8
0
 10
4.40631
 20
11.7083
 30
0.0
 40
0
 41
0
  0
VERTEX
  8
0
 10
4.40278
 20
11.7083
 30
0.0
 40
0
 41
0
  0
VERTEX
  8
0
 10
4.39931
 20
11.7083
 30
0.0
 40
0
 41
0
  0
VERTEX
  8
0
 10
4.38906
 20
11.7104
 30
0.0
 40
0
 41
0
  0
VERTEX
  8
0
 10
4.38053
 20
11.7172
 30
0.0
 40
0
 41
0
  0
VERTEX
  8
0
 10
4.37619
 20
11.73
 30
0.0
 40
0
 41
0
  0
VERTEX
  8
0
 10
4.375
 20
11.745
 30
0.0
 40
0
 41
0
  0
VERTEX
  8
0
 10
4.375
 20
11.75
 30
0.0
 40
0
 41
0
  0
VERTEX
  8
0
 10
4.375
 20
11.755
 30
0.0
 40
0
 41
0
  0
VERTEX
  8
0
 10
4.37619
 20
11.77
 30
0.0
 40
0
 41
0
  0
VERTEX
  8
0
 10
4.38053
 20
11.7828
 30
0.0
 40
0
 41
0
  0
VERTEX
  8
0
 10
4.38906
 20
11.7897
 30
0.0
 40
0
 41
0
  0
VERTEX
  8
0
 10
4.39931
 20
11.7917
 30
0.0
 40
0
 41
0
  0
VERTEX
  8
0
 10
4.40278
 20
11.7917
 30
0.0
 40
0
 41
0
  0
VERTEX
  8
0
 10
4.40631
 20
11.7917
 30
0.0
 40
0
 41
0
  0
VERTEX
  8
0
 10
4.41704
 20
11.7942
 30
0.0
 40
0
 41
0
  0
VERTEX
  8
0
 10
4.42551
 20
11.804
 30
0.0
 40
0
 41
0
  0
VERTEX
  8
0
 10
4.42953
 20
11.8251
 30
0.0
 40
0
 41
0
  0
VERTEX
  8
0
 10
4.43056
 20
11.8521
 30
0.0
 40
0
 41
0
  0
VERTEX
  8
0
 10
4.43056
 20
11.8611
 30
0.0
 40
0
 41
0
  0
VERTEX
  8
0
 10
4.43056
 20
11.9306
 30
0.0
 40
0
 41
0
  0
VERTEX
  8
0
 10
4.31944
 20
11.9306
 30
0.0
 40
0
 41
0
  0
VERTEX
  8
0
 10
4.31944
 20
12.0694
 30
0.0
 40
0
 41
0
  0
VERTEX
  8
0
 10
4
 20
12.0694
 30
0.0
 40
0
 41
0
  0
VERTEX
  8
0
 10
4
 20
11.9306
 30
0.0
 40
0
 41
0
  0
VERTEX
  8
0
 10
3.73611
 20
11.9306
 30
0.0
 40
0
 41
0
  0
VERTEX
  8
0
 10
3.73611
 20
12.0694
 30
0.0
 40
0
 41
0
  0
VERTEX
  8
0
 10
3.41667
 20
12.0694
 30
0.0
 40
0
 41
0
  0
VERTEX
  8
0
 10
3.41667
 20
11.9306
 30
0.0
 40
0
 41
0
  0
VERTEX
  8
0
 10
3.13889
 20
11.9306
 30
0.0
 40
0
 41
0
  0
VERTEX
  8
0
 10
3.13889
 20
12.0694
 30
0.0
 40
0
 41
0
  0
VERTEX
  8
0
 10
2.81944
 20
12.0694
 30
0.0
 40
0
 41
0
  0
VERTEX
  8
0
 10
2.81944
 20
11.9306
 30
0.0
 40
0
 41
0
  0
VERTEX
  8
0
 10
2.55556
 20
11.9306
 30
0.0
 40
0
 41
0
  0
VERTEX
  8
0
 10
2.55556
 20
12.0694
 30
0.0
 40
0
 41
0
  0
VERTEX
  8
0
 10
2.23611
 20
12.0694
 30
0.0
 40
0
 41
0
  0
VERTEX
  8
0
 10
2.23611
 20
11.9306
 30
0.0
 40
0
 41
0
  0
VERTEX
  8
0
 10
1.95833
 20
11.9306
 30
0.0
 40
0
 41
0
  0
VERTEX
  8
0
 10
1.95833
 20
12.0694
 30
0.0
 40
0
 41
0
  0
VERTEX
  8
0
 10
1.63889
 20
12.0694
 30
0.0
 40
0
 41
0
  0
VERTEX
  8
0
 10
1.63889
 20
11.9306
 30
0.0
 40
0
 41
0
  0
VERTEX
  8
0
 10
1.375
 20
11.9306
 30
0.0
 40
0
 41
0
  0
VERTEX
  8
0
 10
1.375
 20
12.0694
 30
0.0
 40
0
 41
0
  0
VERTEX
  8
0
 10
1.05556
 20
12.0694
 30
0.0
 40
0
 41
0
  0
VERTEX
  8
0
 10
1.05556
 20
11.9306
 30
0.0
 40
0
 41
0
  0
VERTEX
  8
0
 10
0.944444
 20
11.9306
 30
0.0
 40
0
 41
0
  0
VERTEX
  8
0
 10
0.944444
 20
11.8611
 30
0.0
 40
0
 41
0
  0
VERTEX
  8
0
 10
0.944444
 20
11.8521
 30
0.0
 40
0
 41
0
  0
VERTEX
  8
0
 10
0.945421
 20
11.8251
 30
0.0
 40
0
 41
0
  0
VERTEX
  8
0
 10
0.949436
 20
11.804
 30
0.0
 40
0
 41
0
  0
VERTEX
  8
0
 10
0.9579
 20
11.7942
 30
0.0
 40
0
 41
0
  0
VERTEX
  8
0
 10
0.968642
 20
11.7917
 30
0.0
 40
0
 41
0
  0
VERTEX
  8
0
 10
0.972222
 20
11.7917
 30
0.0
 40
0
 41
0
  0
VERTEX
  8
0
 10
0.97564
 20
11.7917
 30
0.0
 40
0
 41
0
  0
VERTEX
  8
0
 10
0.985894
 20
11.7897
 30
0.0
 40
0
 41
0
  0
VERTEX
  8
0
 10
0.994413
 20
11.7828
 30
0.0
 40
0
 41
0
  0
VERTEX
  8
0
 10
0.998753
 20
11.77
 30
0.0
 40
0
 41
0
  0
VERTEX
  8
0
 10
1
 20
11.755
 30
0.0
 40
0
 41
0
  0
VERTEX
  8
0
 10
1
 20
11.75
 30
0.0
 40
0
 41
0
  0
VERTEX
  8
0
 10
1
 20
11.745
 30
0.0
 40
0
 41
0
  0
VERTEX
  8
0
 10
0.998753
 20
11.73
 30
0.0
 40
0
 41
0
  0
VERTEX
  8
0
 10
0.994413
 20
11.7172
 30
0.0
 40
0
 41
0
  0
VERTEX
  8
0
 10
0.985894
 20
11.7104
 30
0.0
 40
0
 41
0
  0
VERTEX
  8
0
 10
0.97564
 20
11.7083
 30
0.0
 40
0
 41
0
  0
VERTEX
  8
0
 10
0.972222
 20
11.7083
 30
0.0
 40
0
 41
0
  0
VERTEX
  8
0
 10
0.968642
 20
11.7083
 30
0.0
 40
0
 41
0
  0
VERTEX
  8
0
 10
0.9579
 20
11.706
 30
0.0
 40
0
 41
0
  0
VERTEX
  8
0
 10
0.949436
 20
11.6969
 30
0.0
 40
0
 41
0
  0
VERTEX
  8
0
 10
0.945421
 20
11.6779
 30
0.0
 40
0
 41
0
  0
VERTEX
  8
0
 10
0.944444
 20
11.6539
 30
0.0
 40
0
 41
0
  0
VERTEX
  8
0
 10
0.944444
 20
11.6458
 30
0.0
 40
0
 41
0
  0
VERTEX
  8
0
 10
0.944444
 20
11.5833
 30
0.0
 40
0
 41
0
  0
VERTEX
  8
0
 10
0.819444
 20
11.5833
 30
0.0
 40
0
 41
0
  0
VERTEX
  8
0
 10
0.819444
 20
11.6458
 30
0.0
 40
0
 41
0
  0
VERTEX
  8
0
 10
0.819444
 20
11.6543
 30
0.0
 40
0
 41
0
  0
VERTEX
  8
0
 10
0.818468
 20
11.6796
 30
0.0
 40
0
 41
0
  0
VERTEX
  8
0
 10
0.814019
 20
11.6985
 30
0.0
 40
0
 41
0
  0
VERTEX
  8
0
 10
0.803603
 20
11.7066
 30
0.0
 40
0
 41
0
  0
VERTEX
  8
0
 10
0.789442
 20
11.7083
 30
0.0
 40
0
 41
0
  0
VERTEX
  8
0
 10
0.784722
 20
11.7083
 30
0.0
 40
0
 41
0
  0
VERTEX
  8
0
 10
0.780274
 20
11.7083
 30
0.0
 40
0
 41
0
  0
VERTEX
  8
0
 10
0.766982
 20
11.71
 30
0.0
 40
0
 41
0
  0
VERTEX
  8
0
 10
0.756401
 20
11.7162
 30
0.0
 40
0
 41
0
  0
VERTEX
  8
0
 10
0.751303
 20
11.7288
 30
0.0
 40
0
 41
0
  0
VERTEX
  8
0
 10
0.75
 20
11.7447
 30
0.0
 40
0
 41
0
  0
VERTEX
  8
0
 10
0.75
 20
11.75
 30
0.0
 40
0
 41
0
  0
VERTEX
  8
0
 10
0.75
 20
11.7553
 30
0.0
 40
0
 41
0
  0
VERTEX
  8
0
 10
0.751303
 20
11.7712
 30
0.0
 40
0
 41
0
  0
VERTEX
  8
0
 10
0.756401
 20
11.7839
 30
0.0
 40
0
 41
0
  0
VERTEX
  8
0
 10
0.766982
 20
11.79
 30
0.0
 40
0
 41
0
  0
VERTEX
  8
0
 10
0.780274
 20
11.7917
 30
0.0
 40
0
 41
0
  0
VERTEX
  8
0
 10
0.784722
 20
11.7917
 30
0.0
 40
0
 41
0
  0
VERTEX
  8
0
 10
0.789442
 20
11.7917
 30
0.0
 40
0
 41
0
  0
VERTEX
  8
0
 10
0.803603
 20
11.7933
 30
0.0
 40
0
 41
0
  0
VERTEX
  8
0
 10
0.814019
 20
11.8019
 30
0.0
 40
0
 41
0
  0
VERTEX
  8
0
 10
0.818468
 20
11.8227
 30
0.0
 40
0
 41
0
  0
VERTEX
  8
0
 10
0.819444
 20
11.8516
 30
0.0
 40
0
 41
0
  0
VERTEX
  8
0
 10
0.819444
 20
11.8611
 30
0.0
 40
0
 41
0
  0
VERTEX
  8
0
 10
0.819444
 20
11.9306
 30
0.0
 40
0
 41
0
  0
VERTEX
  8
0
 10
0.708333
 20
11.9306
 30
0.0
 40
0
 41
0
  0
VERTEX
  8
0
 10
0.708333
 20
12.0694
 30
0.0
 40
0
 41
0
  0
VERTEX
  8
0
 10
0.444444
 20
12.0694
 30
0.0
 40
0
 41
0
  0
VERTEX
  8
0
 10
0.444444
 20
11.8542
 30
0.0
 40
0
 41
0
  0
SEQEND
 8
0
  0
POLYLINE
  8
0
 62
     0
 66
     1
 10
0
 20
0
 30
0.0
 70
     1
 40
0
 41
0
  0
VERTEX
  8
0
 10
9.94444
 20
11.5417
 30
0.0
 40
0
 41
0
  0
VERTEX
  8
0
 10
9.94444
 20
11.4722
 30
0.0
 40
0
 41
0
  0
VERTEX
  8
0
 10
10.0139
 20
11.4722
 30
0.0
 40
0
 41
0
  0
VERTEX
  8
0
 10
10.0229
 20
11.4722
 30
0.0
 40
0
 41
0
  0
VERTEX
  8
0
 10
10.0499
 20
11.4732
 30
0.0
 40
0
 41
0
  0
VERTEX
  8
0
 10
10.071
 20
11.4773
 30
0.0
 40
0
 41
0
  0
VERTEX
  8
0
 10
10.0808
 20
11.4857
 30
0.0
 40
0
 41
0
  0
VERTEX
  8
0
 10
10.0833
 20
11.4965
 30
0.0
 40
0
 41
0
  0
VERTEX
  8
0
 10
10.0833
 20
11.5
 30
0.0
 40
0
 41
0
  0
VERTEX
  8
0
 10
10.0833
 20
11.5035
 30
0.0
 40
0
 41
0
  0
VERTEX
  8
0
 10
10.0853
 20
11.5137
 30
0.0
 40
0
 41
0
  0
VERTEX
  8
0
 10
10.0922
 20
11.5222
 30
0.0
 40
0
 41
0
  0
VERTEX
  8
0
 10
10.105
 20
11.5266
 30
0.0
 40
0
 41
0
  0
VERTEX
  8
0
 10
10.12
 20
11.5278
 30
0.0
 40
0
 41
0
  0
VERTEX
  8
0
 10
10.125
 20
11.5278
 30
0.0
 40
0
 41
0
  0
VERTEX
  8
0
 10
10.13
 20
11.5278
 30
0.0
 40
0
 41
0
  0
VERTEX
  8
0
 10
10.145
 20
11.5266
 30
0.0
 40
0
 41
0
  0
VERTEX
  8
0
 10
10.1578
 20
11.5222
 30
0.0
 40
0
 41
0
  0
VERTEX
  8
0
 10
10.1646
 20
11.5137
 30
0.0
 40
0
 41
0
  0
VERTEX
  8
0
 10
10.1667
 20
11.5035
 30
0.0
 40
0
 41
0
  0
VERTEX
  8
0
 10
10.1667
 20
11.5
 30
0.0
 40
0
 41
0
  0
VERTEX
  8
0
 10
10.1667
 20
11.4965
 30
0.0
 40
0
 41
0
  0
VERTEX
  8
0
 10
10.169
 20
11.4857
 30
0.0
 40
0
 41
0
  0
VERTEX
  8
0
 10
10.1781
 20
11.4773
 30
0.0
 40
0
 41
0
  0
VERTEX
  8
0
 10
10.1971
 20
11.4732
 30
0.0
 40
0
 41
0
  0
VERTEX
  8
0
 10
10.2211
 20
11.4722
 30
0.0
 40
0
 41
0
  0
VERTEX
  8
0
 10
10.2292
 20
11.4722
 30
0.0
 40
0
 41
0
  0
VERTEX
  8
0
 10
10.2917
 20
11.4722
 30
0.0
 40
0
 41
0
  0
VERTEX
  8
0
 10
10.2917
 20
11.3472
 30
0.0
 40
0
 41
0
  0
VERTEX
  8
0
 10
10.2292
 20
11.3472
 30
0.0
 40
0
 41
0
  0
VERTEX
  8
0
 10
10.2207
 20
11.3472
 30
0.0
 40
0
 41
0
  0
VERTEX
  8
0
 10
10.1954
 20
11.3463
 30
0.0
 40
0
 41
0
  0
VERTEX
  8
0
 10
10.1765
 20
11.3418
 30
0.0
 40
0
 41
0
  0
VERTEX
  8
0
 10
10.1684
 20
11.3314
 30
0.0
 40
0
 41
0
  0
VERTEX
  8
0
 10
10.1667
 20
11.3173
 30
0.0
 40
0
 41
0
  0
VERTEX
  8
0
 10
10.1667
 20
11.3125
 30
0.0
 40
0
 41
0
  0
VERTEX
  8
0
 10
10.1667
 20
11.3081
 30
0.0
 40
0
 41
0
  0
VERTEX
  8
0
 10
10.165
 20
11.2948
 30
0.0
 40
0
 41
0
  0
VERTEX
  8
0
 10
10.1589
 20
11.2842
 30
0.0
 40
0
 41
0
  0
VERTEX
  8
0
 10
10.1462
 20
11.2791
 30
0.0
 40
0
 41
0
  0
VERTEX
  8
0
 10
10.1303
 20
11.2778
 30
0.0
 40
0
 41
0
  0
VERTEX
  8
0
 10
10.125
 20
11.2778
 30
0.0
 40
0
 41
0
  0
VERTEX
  8
0
 10
10.1197
 20
11.2778
 30
0.0
 40
0
 41
0
  0
VERTEX
  8
0
 10
10.1038
 20
11.2791
 30
0.0
 40
0
 41
0
  0
VERTEX
  8
0
 10
10.0912
 20
11.2842
 30
0.0
 40
0
 41
0
  0
VERTEX
  8
0
 10
10.085
 20
11.2948
 30
0.0
 40
0
 41
0
  0
VERTEX
  8
0
 10
10.0833
 20
11.3081
 30
0.0
 40
0
 41
0
  0
VERTEX
  8
0
 10
10.0833
 20
11.3125
 30
0.0
 40
0
 41
0
  0
VERTEX
  8
0
 10
10.0833
 20
11.3173
 30
0.0
 40
0
 41
0
  0
VERTEX
  8
0
 10
10.0817
 20
11.3314
 30
0.0
 40
0
 41
0
  0
VERTEX
  8
0
 10
10.0731
 20
11.3418
 30
0.0
 40
0
 41
0
  0
VERTEX
  8
0
 10
10.0523
 20
11.3463
 30
0.0
 40
0
 41
0
  0
VERTEX
  8
0
 10
10.0234
 20
11.3472
 30
0.0
 40
0
 41
0
  0
VERTEX
  8
0
 10
10.0139
 20
11.3472
 30
0.0
 40
0
 41
0
  0
VERTEX
  8
0
 10
9.94444
 20
11.3472
 30
0.0
 40
0
 41
0
  0
VERTEX
  8
0
 10
9.94444
 20
11.1944
 30
0.0
 40
0
 41
0
  0
VERTEX
  8
0
 10
9.81944
 20
11.1944
 30
0.0
 40
0
 41
0
  0
VERTEX
  8
0
 10
9.81944
 20
11.3333
 30
0.0
 40
0
 41
0
  0
VERTEX
  8
0
 10
9.63889
 20
11.3333
 30
0.0
 40
0
 41
0
  0
VERTEX
  8
0
 10
9.63889
 20
11.4861
 30
0.0
 40
0
 41
0
  0
VERTEX
  8
0
 10
9.81944
 20
11.4861
 30
0.0
 40
0
 41
0
  0
VERTEX
  8
0
 10
9.81944
 20
11.6111
 30
0.0
 40
0
 41
0
  0
VERTEX
  8
0
 10
9.94444
 20
11.6111
 30
0.0
 40
0
 41
0
  0
VERTEX
  8
0
 10
9.94444
 20
11.5417
 30
0.0
 40
0
 41
0
  0
SEQEND
 8
0
  0
POLYLINE
  8
0
 62
     0
 66
     1
 10
0
 20
0
 30
0.0
 70
     1
 40
0
 41
0
  0
VERTEX
  8
0
 10
5.23611
 20
11.4097
 30
0.0
 40
0
 41
0
  0
VERTEX
  8
0
 10
5.23611
 20
11.3333
 30
0.0
 40
0
 41
0
  0
VERTEX
  8
0
 10
4.88889
 20
11.3333
 30
0.0
 40
0
 41
0
  0
VERTEX
  8
0
 10
4.88889
 20
11.4861
 30
0.0
 40
0
 41
0
  0
VERTEX
  8
0
 10
5.23611
 20
11.4861
 30
0.0
 40
0
 41
0
  0
VERTEX
  8
0
 10
5.23611
 20
11.4097
 30
0.0
 40
0
 41
0
  0
SEQEND
 8
0
  0
POLYLINE
  8
0
 62
     0
 66
     1
 10
0
 20
0
 30
0.0
 70
     1
 40
0
 41
0
  0
VERTEX
  8
0
 10
5.19444
 20
11.0347
 30
0.0
 40
0
 41
0
  0
VERTEX
  8
0
 10
5.19444
 20
10.9028
 30
0.0
 40
0
 41
0
  0
VERTEX
  8
0
 10
4.93056
 20
10.9028
 30
0.0
 40
0
 41
0
  0
VERTEX
  8
0
 10
4.93056
 20
11.1667
 30
0.0
 40
0
 41
0
  0
VERTEX
  8
0
 10
5.19444
 20
11.1667
 30
0.0
 40
0
 41
0
  0
VERTEX
  8
0
 10
5.19444
 20
11.0347
 30
0.0
 40
0
 41
0
  0
SEQEND
 8
0
  0
POLYLINE
  8
0
 62
     0
 66
     1
 10
0
 20
0
 30
0.0
 70
     1
 40
0
 41
0
  0
VERTEX
  8
0
 10
9.80556
 20
11.0347
 30
0.0
 40
0
 41
0
  0
VERTEX
  8
0
 10
9.80556
 20
10.9028
 30
0.0
 40
0
 41
0
  0
VERTEX
  8
0
 10
9.68056
 20
10.9028
 30
0.0
 40
0
 41
0
  0
VERTEX
  8
0
 10
9.68056
 20
11.1667
 30
0.0
 40
0
 41
0
  0
VERTEX
  8
0
 10
9.80556
 20
11.1667
 30
0.0
 40
0
 41
0
  0
VERTEX
  8
0
 10
9.80556
 20
11.0347
 30
0.0
 40
0
 41
0
  0
SEQEND
 8
0
  0
POLYLINE
  8
0
 62
     0
 66
     1
 10
0
 20
0
 30
0.0
 70
     1
 40
0
 41
0
  0
VERTEX
  8
0
 10
9.94444
 20
10.7431
 30
0.0
 40
0
 41
0
  0
VERTEX
  8
0
 10
9.94444
 20
10.6111
 30
0.0
 40
0
 41
0
  0
VERTEX
  8
0
 10
9.81944
 20
10.6111
 30
0.0
 40
0
 41
0
  0
VERTEX
  8
0
 10
9.81944
 20
10.875
 30
0.0
 40
0
 41
0
  0
VERTEX
  8
0
 10
9.94444
 20
10.875
 30
0.0
 40
0
 41
0
  0
VERTEX
  8
0
 10
9.94444
 20
10.7431
 30
0.0
 40
0
 41
0
  0
SEQEND
 8
0
  0
POLYLINE
  8
0
 62
     0
 66
     1
 10
0
 20
0
 30
0.0
 70
     1
 40
0
 41
0
  0
VERTEX
  8
0
 10
5.19444
 20
10.4514
 30
0.0
 40
0
 41
0
  0
VERTEX
  8
0
 10
5.19444
 20
10.3194
 30
0.0
 40
0
 41
0
  0
VERTEX
  8
0
 10
4.93056
 20
10.3194
 30
0.0
 40
0
 41
0
  0
VERTEX
  8
0
 10
4.93056
 20
10.5833
 30
0.0
 40
0
 41
0
  0
VERTEX
  8
0
 10
5.19444
 20
10.5833
 30
0.0
 40
0
 41
0
  0
VERTEX
  8
0
 10
5.19444
 20
10.4514
 30
0.0
 40
0
 41
0
  0
SEQEND
 8
0
  0
POLYLINE
  8
0
 62
     0
 66
     1
 10
0
 20
0
 30
0.0
 70
     1
 40
0
 41
0
  0
VERTEX
  8
0
 10
9.80556
 20
10.4514
 30
0.0
 40
0
 41
0
  0
VERTEX
  8
0
 10
9.80556
 20
10.3194
 30
0.0
 40
0
 41
0
  0
VERTEX
  8
0
 10
9.68056
 20
10.3194
 30
0.0
 40
0
 41
0
  0
VERTEX
  8
0
 10
9.68056
 20
10.5833
 30
0.0
 40
0
 41
0
  0
VERTEX
  8
0
 10
9.80556
 20
10.5833
 30
0.0
 40
0
 41
0
  0
VERTEX
  8
0
 10
9.80556
 20
10.4514
 30
0.0
 40
0
 41
0
  0
SEQEND
 8
0
  0
POLYLINE
  8
0
 62
     0
 66
     1
 10
0
 20
0
 30
0.0
 70
     1
 40
0
 41
0
  0
VERTEX
  8
0
 10
9.94444
 20
10.1528
 30
0.0
 40
0
 41
0
  0
VERTEX
  8
0
 10
9.94444
 20
10.0139
 30
0.0
 40
0
 41
0
  0
VERTEX
  8
0
 10
9.81944
 20
10.0139
 30
0.0
 40
0
 41
0
  0
VERTEX
  8
0
 10
9.81944
 20
10.2917
 30
0.0
 40
0
 41
0
  0
VERTEX
  8
0
 10
9.94444
 20
10.2917
 30
0.0
 40
0
 41
0
  0
VERTEX
  8
0
 10
9.94444
 20
10.1528
 30
0.0
 40
0
 41
0
  0
SEQEND
 8
0
  0
POLYLINE
  8
0
 62
     0
 66
     1
 10
0
 20
0
 30
0.0
 70
     1
 40
0
 41
0
  0
VERTEX
  8
0
 10
5.19444
 20
9.85417
 30
0.0
 40
0
 41
0
  0
VERTEX
  8
0
 10
5.19444
 20
9.72222
 30
0.0
 40
0
 41
0
  0
VERTEX
  8
0
 10
4.93056
 20
9.72222
 30
0.0
 40
0
 41
0
  0
VERTEX
  8
0
 10
4.93056
 20
9.98611
 30
0.0
 40
0
 41
0
  0
VERTEX
  8
0
 10
5.19444
 20
9.98611
 30
0.0
 40
0
 41
0
  0
VERTEX
  8
0
 10
5.19444
 20
9.85417
 30
0.0
 40
0
 41
0
  0
SEQEND
 8
0
  0
POLYLINE
  8
0
 62
     0
 66
     1
 10
0
 20
0
 30
0.0
 70
     1
 40
0
 41
0
  0
VERTEX
  8
0
 10
9.80556
 20
9.85417
 30
0.0
 40
0
 41
0
  0
VERTEX
  8
0
 10
9.80556
 20
9.72222
 30
0.0
 40
0
 41
0
  0
VERTEX
  8
0
 10
9.68056
 20
9.72222
 30
0.0
 40
0
 41
0
  0
VERTEX
  8
0
 10
9.68056
 20
9.98611
 30
0.0
 40
0
 41
0
  0
VERTEX
  8
0
 10
9.80556
 20
9.98611
 30
0.0
 40
0
 41
0
  0
VERTEX
  8
0
 10
9.80556
 20
9.85417
 30
0.0
 40
0
 41
0
  0
SEQEND
 8
0
  0
POLYLINE
  8
0
 62
     0
 66
     1
 10
0
 20
0
 30
0.0
 70
     1
 40
0
 41
0
  0
VERTEX
  8
0
 10
9.94444
 20
9.5625
 30
0.0
 40
0
 41
0
  0
VERTEX
  8
0
 10
9.94444
 20
9.43056
 30
0.0
 40
0
 41
0
  0
VERTEX
  8
0
 10
9.81944
 20
9.43056
 30
0.0
 40
0
 41
0
  0
VERTEX
  8
0
 10
9.81944
 20
9.69444
 30
0.0
 40
0
 41
0
  0
VERTEX
  8
0
 10
9.94444
 20
9.69444
 30
0.0
 40
0
 41
0
  0
VERTEX
  8
0
 10
9.94444
 20
9.5625
 30
0.0
 40
0
 41
0
  0
SEQEND
 8
0
  0
POLYLINE
  8
0
 62
     0
 66
     1
 10
0
 20
0
 30
0.0
 70
     1
 40
0
 41
0
  0
VERTEX
  8
0
 10
5.19444
 20
9.27083
 30
0.0
 40
0
 41
0
  0
VERTEX
  8
0
 10
5.19444
 20
9.13889
 30
0.0
 40
0
 41
0
  0
VERTEX
  8
0
 10
4.93056
 20
9.13889
 30
0.0
 40
0
 41
0
  0
VERTEX
  8
0
 10
4.93056
 20
9.40278
 30
0.0
 40
0
 41
0
  0
VERTEX
  8
0
 10
5.19444
 20
9.40278
 30
0.0
 40
0
 41
0
  0
VERTEX
  8
0
 10
5.19444
 20
9.27083
 30
0.0
 40
0
 41
0
  0
SEQEND
 8
0
  0
POLYLINE
  8
0
 62
     0
 66
     1
 10
0
 20
0
 30
0.0
 70
     1
 40
0
 41
0
  0
VERTEX
  8
0
 10
9.80556
 20
9.27083
 30
0.0
 40
0
 41
0
  0
VERTEX
  8
0
 10
9.80556
 20
9.13889
 30
0.0
 40
0
 41
0
  0
VERTEX
  8
0
 10
9.68056
 20
9.13889
 30
0.0
 40
0
 41
0
  0
VERTEX
  8
0
 10
9.68056
 20
9.40278
 30
0.0
 40
0
 41
0
  0
VERTEX
  8
0
 10
9.80556
 20
9.40278
 30
0.0
 40
0
 41
0
  0
VERTEX
  8
0
 10
9.80556
 20
9.27083
 30
0.0
 40
0
 41
0
  0
SEQEND
 8
0
  0
POLYLINE
  8
0
 62
     0
 66
     1
 10
0
 20
0
 30
0.0
 70
     1
 40
0
 41
0
  0
VERTEX
  8
0
 10
9.94444
 20
8.97222
 30
0.0
 40
0
 41
0
  0
VERTEX
  8
0
 10
9.94444
 20
8.83333
 30
0.0
 40
0
 41
0
  0
VERTEX
  8
0
 10
9.81944
 20
8.83333
 30
0.0
 40
0
 41
0
  0
VERTEX
  8
0
 10
9.81944
 20
9.11111
 30
0.0
 40
0
 41
0
  0
VERTEX
  8
0
 10
9.94444
 20
9.11111
 30
0.0
 40
0
 41
0
  0
VERTEX
  8
0
 10
9.94444
 20
8.97222
 30
0.0
 40
0
 41
0
  0
SEQEND
 8
0
  0
POLYLINE
  8
0
 62
     0
 66
     1
 10
0
 20
0
 30
0.0
 70
     1
 40
0
 41
0
  0
VERTEX
  8
0
 10
5.19444
 20
8.67361
 30
0.0
 40
0
 41
0
  0
VERTEX
  8
0
 10
5.19444
 20
8.54167
 30
0.0
 40
0
 41
0
  0
VERTEX
  8
0
 10
4.93056
 20
8.54167
 30
0.0
 40
0
 41
0
  0
VERTEX
  8
0
 10
4.93056
 20
8.80556
 30
0.0
 40
0
 41
0
  0
VERTEX
  8
0
 10
5.19444
 20
8.80556
 30
0.0
 40
0
 41
0
  0
VERTEX
  8
0
 10
5.19444
 20
8.67361
 30
0.0
 40
0
 41
0
  0
SEQEND
 8
0
  0
POLYLINE
  8
0
 62
     0
 66
     1
 10
0
 20
0
 30
0.0
 70
     1
 40
0
 41
0
  0
VERTEX
  8
0
 10
9.80556
 20
8.67361
 30
0.0
 40
0
 41
0
  0
VERTEX
  8
0
 10
9.80556
 20
8.54167
 30
0.0
 40
0
 41
0
  0
VERTEX
  8
0
 10
9.68056
 20
8.54167
 30
0.0
 40
0
 41
0
  0
VERTEX
  8
0
 10
9.68056
 20
8.80556
 30
0.0
 40
0
 41
0
  0
VERTEX
  8
0
 10
9.80556
 20
8.80556
 30
0.0
 40
0
 41
0
  0
VERTEX
  8
0
 10
9.80556
 20
8.67361
 30
0.0
 40
0
 41
0
  0
SEQEND
 8
0
  0
POLYLINE
  8
0
 62
     0
 66
     1
 10
0
 20
0
 30
0.0
 70
     1
 40
0
 41
0
  0
VERTEX
  8
0
 10
9.94444
 20
8.38194
 30
0.0
 40
0
 41
0
  0
VERTEX
  8
0
 10
9.94444
 20
8.25
 30
0.0
 40
0
 41
0
  0
VERTEX
  8
0
 10
9.81944
 20
8.25
 30
0.0
 40
0
 41
0
  0
VERTEX
  8
0
 10
9.81944
 20
8.51389
 30
0.0
 40
0
 41
0
  0
VERTEX
  8
0
 10
9.94444
 20
8.51389
 30
0.0
 40
0
 41
0
  0
VERTEX
  8
0
 10
9.94444
 20
8.38194
 30
0.0
 40
0
 41
0
  0
SEQEND
 8
0
  0
POLYLINE
  8
0
 62
     0
 66
     1
 10
0
 20
0
 30
0.0
 70
     1
 40
0
 41
0
  0
VERTEX
  8
0
 10
5.19444
 20
8.09028
 30
0.0
 40
0
 41
0
  0
VERTEX
  8
0
 10
5.19444
 20
7.95833
 30
0.0
 40
0
 41
0
  0
VERTEX
  8
0
 10
4.93056
 20
7.95833
 30
0.0
 40
0
 41
0
  0
VERTEX
  8
0
 10
4.93056
 20
8.22222
 30
0.0
 40
0
 41
0
  0
VERTEX
  8
0
 10
5.19444
 20
8.22222
 30
0.0
 40
0
 41
0
  0
VERTEX
  8
0
 10
5.19444
 20
8.09028
 30
0.0
 40
0
 41
0
  0
SEQEND
 8
0
  0
POLYLINE
  8
0
 62
     0
 66
     1
 10
0
 20
0
 30
0.0
 70
     1
 40
0
 41
0
  0
VERTEX
  8
0
 10
9.80556
 20
8.09028
 30
0.0
 40
0
 41
0
  0
VERTEX
  8
0
 10
9.80556
 20
7.95833
 30
0.0
 40
0
 41
0
  0
VERTEX
  8
0
 10
9.68056
 20
7.95833
 30
0.0
 40
0
 41
0
  0
VERTEX
  8
0
 10
9.68056
 20
8.22222
 30
0.0
 40
0
 41
0
  0
VERTEX
  8
0
 10
9.80556
 20
8.22222
 30
0.0
 40
0
 41
0
  0
VERTEX
  8
0
 10
9.80556
 20
8.09028
 30
0.0
 40
0
 41
0
  0
SEQEND
 8
0
  0
POLYLINE
  8
0
 62
     0
 66
     1
 10
0
 20
0
 30
0.0
 70
     1
 40
0
 41
0
  0
VERTEX
  8
0
 10
9.94444
 20
7.85417
 30
0.0
 40
0
 41
0
  0
VERTEX
  8
0
 10
9.94444
 20
7.77778
 30
0.0
 40
0
 41
0
  0
VERTEX
  8
0
 10
10.0139
 20
7.77778
 30
0.0
 40
0
 41
0
  0
VERTEX
  8
0
 10
10.0234
 20
7.77778
 30
0.0
 40
0
 41
0
  0
VERTEX
  8
0
 10
10.0523
 20
7.77875
 30
0.0
 40
0
 41
0
  0
VERTEX
  8
0
 10
10.0731
 20
7.78321
 30
0.0
 40
0
 41
0
  0
VERTEX
  8
0
 10
10.0817
 20
7.79362
 30
0.0
 40
0
 41
0
  0
VERTEX
  8
0
 10
10.0833
 20
7.80778
 30
0.0
 40
0
 41
0
  0
VERTEX
  8
0
 10
10.0833
 20
7.8125
 30
0.0
 40
0
 41
0
  0
VERTEX
  8
0
 10
10.0833
 20
7.81694
 30
0.0
 40
0
 41
0
  0
VERTEX
  8
0
 10
10.085
 20
7.83024
 30
0.0
 40
0
 41
0
  0
VERTEX
  8
0
 10
10.0912
 20
7.84082
 30
0.0
 40
0
 41
0
  0
VERTEX
  8
0
 10
10.1038
 20
7.84592
 30
0.0
 40
0
 41
0
  0
VERTEX
  8
0
 10
10.1197
 20
7.84722
 30
0.0
 40
0
 41
0
  0
VERTEX
  8
0
 10
10.125
 20
7.84722
 30
0.0
 40
0
 41
0
  0
VERTEX
  8
0
 10
10.1303
 20
7.84722
 30
0.0
 40
0
 41
0
  0
VERTEX
  8
0
 10
10.1462
 20
7.84592
 30
0.0
 40
0
 41
0
  0
VERTEX
  8
0
 10
10.1589
 20
7.84082
 30
0.0
 40
0
 41
0
  0
VERTEX
  8
0
 10
10.165
 20
7.83024
 30
0.0
 40
0
 41
0
  0
VERTEX
  8
0
 10
10.1667
 20
7.81694
 30
0.0
 40
0
 41
0
  0
VERTEX
  8
0
 10
10.1667
 20
7.8125
 30
0.0
 40
0
 41
0
  0
VERTEX
  8
0
 10
10.1667
 20
7.80778
 30
0.0
 40
0
 41
0
  0
VERTEX
  8
0
 10
10.1684
 20
7.79362
 30
0.0
 40
0
 41
0
  0
VERTEX
  8
0
 10
10.1765
 20
7.78321
 30
0.0
 40
0
 41
0
  0
VERTEX
  8
0
 10
10.1954
 20
7.77875
 30
0.0
 40
0
 41
0
  0
VERTEX
  8
0
 10
10.2207
 20
7.77778
 30
0.0
 40
0
 41
0
  0
VERTEX
  8
0
 10
10.2292
 20
7.77778
 30
0.0
 40
0
 41
0
  0
VERTEX
  8
0
 10
10.2917
 20
7.77778
 30
0.0
 40
0
 41
0
  0
VERTEX
  8
0
 10
10.2917
 20
7.65278
 30
0.0
 40
0
 41
0
  0
VERTEX
  8
0
 10
10.2292
 20
7.65278
 30
0.0
 40
0
 41
0
  0
VERTEX
  8
0
 10
10.2211
 20
7.65278
 30
0.0
 40
0
 41
0
  0
VERTEX
  8
0
 10
10.1971
 20
7.65181
 30
0.0
 40
0
 41
0
  0
VERTEX
  8
0
 10
10.1781
 20
7.64779
 30
0.0
 40
0
 41
0
  0
VERTEX
  8
0
 10
10.169
 20
7.63932
 30
0.0
 40
0
 41
0
  0
VERTEX
  8
0
 10
10.1667
 20
7.62858
 30
0.0
 40
0
 41
0
  0
VERTEX
  8
0
 10
10.1667
 20
7.625
 30
0.0
 40
0
 41
0
  0
VERTEX
  8
0
 10
10.1667
 20
7.62158
 30
0.0
 40
0
 41
0
  0
VERTEX
  8
0
 10
10.1646
 20
7.61133
 30
0.0
 40
0
 41
0
  0
VERTEX
  8
0
 10
10.1578
 20
7.60281
 30
0.0
 40
0
 41
0
  0
VERTEX
  8
0
 10
10.145
 20
7.59847
 30
0.0
 40
0
 41
0
  0
VERTEX
  8
0
 10
10.13
 20
7.59722
 30
0.0
 40
0
 41
0
  0
VERTEX
  8
0
 10
10.125
 20
7.59722
 30
0.0
 40
0
 41
0
  0
VERTEX
  8
0
 10
10.12
 20
7.59722
 30
0.0
 40
0
 41
0
  0
VERTEX
  8
0
 10
10.105
 20
7.59847
 30
0.0
 40
0
 41
0
  0
VERTEX
  8
0
 10
10.0922
 20
7.60281
 30
0.0
 40
0
 41
0
  0
VERTEX
  8
0
 10
10.0853
 20
7.61133
 30
0.0
 40
0
 41
0
  0
VERTEX
  8
0
 10
10.0833
 20
7.62158
 30
0.0
 40
0
 41
0
  0
VERTEX
  8
0
 10
10.0833
 20
7.625
 30
0.0
 40
0
 41
0
  0
VERTEX
  8
0
 10
10.0833
 20
7.62858
 30
0.0
 40
0
 41
0
  0
VERTEX
  8
0
 10
10.0808
 20
7.63932
 30
0.0
 40
0
 41
0
  0
VERTEX
  8
0
 10
10.071
 20
7.64779
 30
0.0
 40
0
 41
0
  0
VERTEX
  8
0
 10
10.0499
 20
7.65181
 30
0.0
 40
0
 41
0
  0
VERTEX
  8
0
 10
10.0229
 20
7.65278
 30
0.0
 40
0
 41
0
  0
VERTEX
  8
0
 10
10.0139
 20
7.65278
 30
0.0
 40
0
 41
0
  0
VERTEX
  8
0
 10
9.94444
 20
7.65278
 30
0.0
 40
0
 41
0
  0
VERTEX
  8
0
 10
9.94444
 20
7.51389
 30
0.0
 40
0
 41
0
  0
VERTEX
  8
0
 10
9.81944
 20
7.51389
 30
0.0
 40
0
 41
0
  0
VERTEX
  8
0
 10
9.81944
 20
7.63889
 30
0.0
 40
0
 41
0
  0
VERTEX
  8
0
 10
9.63889
 20
7.63889
 30
0.0
 40
0
 41
0
  0
VERTEX
  8
0
 10
9.63889
 20
7.79167
 30
0.0
 40
0
 41
0
  0
VERTEX
  8
0
 10
9.81944
 20
7.79167
 30
0.0
 40
0
 41
0
  0
VERTEX
  8
0
 10
9.81944
 20
7.93056
 30
0.0
 40
0
 41
0
  0
VERTEX
  8
0
 10
9.94444
 20
7.93056
 30
0.0
 40
0
 41
0
  0
VERTEX
  8
0
 10
9.94444
 20
7.85417
 30
0.0
 40
0
 41
0
  0
SEQEND
 8
0
  0
POLYLINE
  8
0
 62
     0
 66
     1
 10
0
 20
0
 30
0.0
 70
     1
 40
0
 41
0
  0
VERTEX
  8
0
 10
5.23611
 20
7.71528
 30
0.0
 40
0
 41
0
  0
VERTEX
  8
0
 10
5.23611
 20
7.63889
 30
0.0
 40
0
 41
0
  0
VERTEX
  8
0
 10
4.88889
 20
7.63889
 30
0.0
 40
0
 41
0
  0
VERTEX
  8
0
 10
4.88889
 20
7.79167
 30
0.0
 40
0
 41
0
  0
VERTEX
  8
0
 10
5.23611
 20
7.79167
 30
0.0
 40
0
 41
0
  0
VERTEX
  8
0
 10
5.23611
 20
7.71528
 30
0.0
 40
0
 41
0
  0
SEQEND
 8
0
  0
POLYLINE
  8
0
 62
     0
 66
     1
 10
0
 20
0
 30
0.0
 70
     1
 40
0
 41
0
  0
VERTEX
  8
0
 10
0.944444
 20
7.47917
 30
0.0
 40
0
 41
0
  0
VERTEX
  8
0
 10
0.944444
 20
7.47119
 30
0.0
 40
0
 41
0
  0
VERTEX
  8
0
 10
0.945421
 20
7.44715
 30
0.0
 40
0
 41
0
  0
VERTEX
  8
0
 10
0.949436
 20
7.42817
 30
0.0
 40
0
 41
0
  0
VERTEX
  8
0
 10
0.9579
 20
7.41906
 30
0.0
 40
0
 41
0
  0
VERTEX
  8
0
 10
0.968642
 20
7.41667
 30
0.0
 40
0
 41
0
  0
VERTEX
  8
0
 10
0.972222
 20
7.41667
 30
0.0
 40
0
 41
0
  0
VERTEX
  8
0
 10
0.97564
 20
7.41667
 30
0.0
 40
0
 41
0
  0
VERTEX
  8
0
 10
0.985894
 20
7.41465
 30
0.0
 40
0
 41
0
  0
VERTEX
  8
0
 10
0.994413
 20
7.40782
 30
0.0
 40
0
 41
0
  0
VERTEX
  8
0
 10
0.998753
 20
7.39501
 30
0.0
 40
0
 41
0
  0
VERTEX
  8
0
 10
1
 20
7.38004
 30
0.0
 40
0
 41
0
  0
VERTEX
  8
0
 10
1
 20
7.375
 30
0.0
 40
0
 41
0
  0
VERTEX
  8
0
 10
1
 20
7.37001
 30
0.0
 40
0
 41
0
  0
VERTEX
  8
0
 10
0.998753
 20
7.35504
 30
0.0
 40
0
 41
0
  0
VERTEX
  8
0
 10
0.994413
 20
7.34224
 30
0.0
 40
0
 41
0
  0
VERTEX
  8
0
 10
0.985894
 20
7.33539
 30
0.0
 40
0
 41
0
  0
VERTEX
  8
0
 10
0.97564
 20
7.33333
 30
0.0
 40
0
 41
0
  0
VERTEX
  8
0
 10
0.972222
 20
7.33333
 30
0.0
 40
0
 41
0
  0
VERTEX
  8
0
 10
0.968642
 20
7.33333
 30
0.0
 40
0
 41
0
  0
VERTEX
  8
0
 10
0.9579
 20
7.33089
 30
0.0
 40
0
 41
0
  0
VERTEX
  8
0
 10
0.949436
 20
7.32101
 30
0.0
 40
0
 41
0
  0
VERTEX
  8
0
 10
0.945421
 20
7.29997
 30
0.0
 40
0
 41
0
  0
VERTEX
  8
0
 10
0.944444
 20
7.27294
 30
0.0
 40
0
 41
0
  0
VERTEX
  8
0
 10
0.944444
 20
7.26389
 30
0.0
 40
0
 41
0
  0
VERTEX
  8
0
 10
0.944444
 20
7.19444
 30
0.0
 40
0
 41
0
  0
VERTEX
  8
0
 10
1.05556
 20
7.19444
 30
0.0
 40
0
 41
0
  0
VERTEX
  8
0
 10
1.05556
 20
7.13194
 30
0.0
 40
0
 41
0
  0
VERTEX
  8
0
 10
1.05556
 20
7.12294
 30
0.0
 40
0
 41
0
  0
VERTEX
  8
0
 10
1.0548
 20
7.09581
 30
0.0
 40
0
 41
0
  0
VERTEX
  8
0
 10
1.04948
 20
7.07726
 30
0.0
 40
0
 41
0
  0
VERTEX
  8
0
 10
1.03505
 20
7.07042
 30
0.0
 40
0
 41
0
  0
VERTEX
  8
0
 10
1.01394
 20
7.06944
 30
0.0
 40
0
 41
0
  0
VERTEX
  8
0
 10
1.00694
 20
7.06944
 30
0.0
 40
0
 41
0
  0
VERTEX
  8
0
 10
0.958333
 20
7.06944
 30
0.0
 40
0
 41
0
  0
VERTEX
  8
0
 10
0.958333
 20
6.88889
 30
0.0
 40
0
 41
0
  0
VERTEX
  8
0
 10
0.791667
 20
6.88889
 30
0.0
 40
0
 41
0
  0
VERTEX
  8
0
 10
0.791667
 20
7.06944
 30
0.0
 40
0
 41
0
  0
VERTEX
  8
0
 10
0.75
 20
7.06944
 30
0.0
 40
0
 41
0
  0
VERTEX
  8
0
 10
0.744086
 20
7.06944
 30
0.0
 40
0
 41
0
  0
VERTEX
  8
0
 10
0.726454
 20
7.07086
 30
0.0
 40
0
 41
0
  0
VERTEX
  8
0
 10
0.714031
 20
7.07835
 30
0.0
 40
0
 41
0
  0
VERTEX
  8
0
 10
0.709147
 20
7.097
 30
0.0
 40
0
 41
0
  0
VERTEX
  8
0
 10
0.708333
 20
7.12321
 30
0.0
 40
0
 41
0
  0
VERTEX
  8
0
 10
0.708333
 20
7.13194
 30
0.0
 40
0
 41
0
  0
VERTEX
  8
0
 10
0.708333
 20
7.19444
 30
0.0
 40
0
 41
0
  0
VERTEX
  8
0
 10
0.819444
 20
7.19444
 30
0.0
 40
0
 41
0
  0
VERTEX
  8
0
 10
0.819444
 20
7.26389
 30
0.0
 40
0
 41
0
  0
VERTEX
  8
0
 10
0.819444
 20
7.27349
 30
0.0
 40
0
 41
0
  0
VERTEX
  8
0
 10
0.818468
 20
7.30231
 30
0.0
 40
0
 41
0
  0
VERTEX
  8
0
 10
0.814019
 20
7.32314
 30
0.0
 40
0
 41
0
  0
VERTEX
  8
0
 10
0.803603
 20
7.33171
 30
0.0
 40
0
 41
0
  0
VERTEX
  8
0
 10
0.789442
 20
7.33333
 30
0.0
 40
0
 41
0
  0
VERTEX
  8
0
 10
0.784722
 20
7.33333
 30
0.0
 40
0
 41
0
  0
VERTEX
  8
0
 10
0.780274
 20
7.33333
 30
0.0
 40
0
 41
0
  0
VERTEX
  8
0
 10
0.766982
 20
7.33496
 30
0.0
 40
0
 41
0
  0
VERTEX
  8
0
 10
0.756401
 20
7.34115
 30
0.0
 40
0
 41
0
  0
VERTEX
  8
0
 10
0.751303
 20
7.35385
 30
0.0
 40
0
 41
0
  0
VERTEX
  8
0
 10
0.75
 20
7.36974
 30
0.0
 40
0
 41
0
  0
VERTEX
  8
0
 10
0.75
 20
7.375
 30
0.0
 40
0
 41
0
  0
VERTEX
  8
0
 10
0.75
 20
7.38032
 30
0.0
 40
0
 41
0
  0
VERTEX
  8
0
 10
0.751303
 20
7.39615
 30
0.0
 40
0
 41
0
  0
VERTEX
  8
0
 10
0.756401
 20
7.40886
 30
0.0
 40
0
 41
0
  0
VERTEX
  8
0
 10
0.766982
 20
7.41504
 30
0.0
 40
0
 41
0
  0
VERTEX
  8
0
 10
0.780274
 20
7.41667
 30
0.0
 40
0
 41
0
  0
VERTEX
  8
0
 10
0.784722
 20
7.41667
 30
0.0
 40
0
 41
0
  0
VERTEX
  8
0
 10
0.789442
 20
7.41667
 30
0.0
 40
0
 41
0
  0
VERTEX
  8
0
 10
0.803603
 20
7.41846
 30
0.0
 40
0
 41
0
  0
VERTEX
  8
0
 10
0.814019
 20
7.4266
 30
0.0
 40
0
 41
0
  0
VERTEX
  8
0
 10
0.818468
 20
7.44542
 30
0.0
 40
0
 41
0
  0
VERTEX
  8
0
 10
0.819444
 20
7.47076
 30
0.0
 40
0
 41
0
  0
VERTEX
  8
0
 10
0.819444
 20
7.47917
 30
0.0
 40
0
 41
0
  0
VERTEX
  8
0
 10
0.819444
 20
7.54167
 30
0.0
 40
0
 41
0
  0
VERTEX
  8
0
 10
0.944444
 20
7.54167
 30
0.0
 40
0
 41
0
  0
VERTEX
  8
0
 10
0.944444
 20
7.47917
 30
0.0
 40
0
 41
0
  0
SEQEND
 8
0
  0
POLYLINE
  8
0
 62
     0
 66
     1
 10
0
 20
0
 30
0.0
 70
     1
 40
0
 41
0
  0
VERTEX
  8
0
 10
4.55556
 20
7.47917
 30
0.0
 40
0
 41
0
  0
VERTEX
  8
0
 10
4.55556
 20
7.47076
 30
0.0
 40
0
 41
0
  0
VERTEX
  8
0
 10
4.55647
 20
7.44542
 30
0.0
 40
0
 41
0
  0
VERTEX
  8
0
 10
4.56093
 20
7.4266
 30
0.0
 40
0
 41
0
  0
VERTEX
  8
0
 10
4.57135
 20
7.41846
 30
0.0
 40
0
 41
0
  0
VERTEX
  8
0
 10
4.5855
 20
7.41667
 30
0.0
 40
0
 41
0
  0
VERTEX
  8
0
 10
4.59028
 20
7.41667
 30
0.0
 40
0
 41
0
  0
VERTEX
  8
0
 10
4.59467
 20
7.41667
 30
0.0
 40
0
 41
0
  0
VERTEX
  8
0
 10
4.60796
 20
7.41504
 30
0.0
 40
0
 41
0
  0
VERTEX
  8
0
 10
4.61854
 20
7.40886
 30
0.0
 40
0
 41
0
  0
VERTEX
  8
0
 10
4.62364
 20
7.39615
 30
0.0
 40
0
 41
0
  0
VERTEX
  8
0
 10
4.625
 20
7.38032
 30
0.0
 40
0
 41
0
  0
VERTEX
  8
0
 10
4.625
 20
7.375
 30
0.0
 40
0
 41
0
  0
VERTEX
  8
0
 10
4.625
 20
7.36974
 30
0.0
 40
0
 41
0
  0
VERTEX
  8
0
 10
4.62364
 20
7.35385
 30
0.0
 40
0
 41
0
  0
VERTEX
  8
0
 10
4.61854
 20
7.34115
 30
0.0
 40
0
 41
0
  0
VERTEX
  8
0
 10
4.60796
 20
7.33496
 30
0.0
 40
0
 41
0
  0
VERTEX
  8
0
 10
4.59467
 20
7.33333
 30
0.0
 40
0
 41
0
  0
VERTEX
  8
0
 10
4.59028
 20
7.33333
 30
0.0
 40
0
 41
0
  0
VERTEX
  8
0
 10
4.5855
 20
7.33333
 30
0.0
 40
0
 41
0
  0
VERTEX
  8
0
 10
4.57135
 20
7.33171
 30
0.0
 40
0
 41
0
  0
VERTEX
  8
0
 10
4.56093
 20
7.32314
 30
0.0
 40
0
 41
0
  0
VERTEX
  8
0
 10
4.55647
 20
7.30231
 30
0.0
 40
0
 41
0
  0
VERTEX
  8
0
 10
4.55556
 20
7.27349
 30
0.0
 40
0
 41
0
  0
VERTEX
  8
0
 10
4.55556
 20
7.26389
 30
0.0
 40
0
 41
0
  0
VERTEX
  8
0
 10
4.55556
 20
7.19444
 30
0.0
 40
0
 41
0
  0
VERTEX
  8
0
 10
4.66667
 20
7.19444
 30
0.0
 40
0
 41
0
  0
VERTEX
  8
0
 10
4.66667
 20
7.13194
 30
0.0
 40
0
 41
0
  0
VERTEX
  8
0
 10
4.66667
 20
7.12321
 30
0.0
 40
0
 41
0
  0
VERTEX
  8
0
 10
4.66581
 20
7.097
 30
0.0
 40
0
 41
0
  0
VERTEX
  8
0
 10
4.66092
 20
7.07835
 30
0.0
 40
0
 41
0
  0
VERTEX
  8
0
 10
4.64849
 20
7.07086
 30
0.0
 40
0
 41
0
  0
VERTEX
  8
0
 10
4.63086
 20
7.06944
 30
0.0
 40
0
 41
0
  0
VERTEX
  8
0
 10
4.625
 20
7.06944
 30
0.0
 40
0
 41
0
  0
VERTEX
  8
0
 10
4.58333
 20
7.06944
 30
0.0
 40
0
 41
0
  0
VERTEX
  8
0
 10
4.58333
 20
6.88889
 30
0.0
 40
0
 41
0
  0
VERTEX
  8
0
 10
4.41667
 20
6.88889
 30
0.0
 40
0
 41
0
  0
VERTEX
  8
0
 10
4.41667
 20
7.06944
 30
0.0
 40
0
 41
0
  0
VERTEX
  8
0
 10
4.36806
 20
7.06944
 30
0.0
 40
0
 41
0
  0
VERTEX
  8
0
 10
4.361
 20
7.06944
 30
0.0
 40
0
 41
0
  0
VERTEX
  8
0
 10
4.33996
 20
7.07042
 30
0.0
 40
0
 41
0
  0
VERTEX
  8
0
 10
4.32553
 20
7.07726
 30
0.0
 40
0
 41
0
  0
VERTEX
  8
0
 10
4.32021
 20
7.09581
 30
0.0
 40
0
 41
0
  0
VERTEX
  8
0
 10
4.31944
 20
7.12294
 30
0.0
 40
0
 41
0
  0
VERTEX
  8
0
 10
4.31944
 20
7.13194
 30
0.0
 40
0
 41
0
  0
VERTEX
  8
0
 10
4.31944
 20
7.19444
 30
0.0
 40
0
 41
0
  0
VERTEX
  8
0
 10
4.43056
 20
7.19444
 30
0.0
 40
0
 41
0
  0
VERTEX
  8
0
 10
4.43056
 20
7.26389
 30
0.0
 40
0
 41
0
  0
VERTEX
  8
0
 10
4.43056
 20
7.27294
 30
0.0
 40
0
 41
0
  0
VERTEX
  8
0
 10
4.42953
 20
7.29997
 30
0.0
 40
0
 41
0
  0
VERTEX
  8
0
 10
4.42551
 20
7.32101
 30
0.0
 40
0
 41
0
  0
VERTEX
  8
0
 10
4.41704
 20
7.33089
 30
0.0
 40
0
 41
0
  0
VERTEX
  8
0
 10
4.40631
 20
7.33333
 30
0.0
 40
0
 41
0
  0
VERTEX
  8
0
 10
4.40278
 20
7.33333
 30
0.0
 40
0
 41
0
  0
VERTEX
  8
0
 10
4.39931
 20
7.33333
 30
0.0
 40
0
 41
0
  0
VERTEX
  8
0
 10
4.38906
 20
7.33539
 30
0.0
 40
0
 41
0
  0
VERTEX
  8
0
 10
4.38053
 20
7.34224
 30
0.0
 40
0
 41
0
  0
VERTEX
  8
0
 10
4.37619
 20
7.35504
 30
0.0
 40
0
 41
0
  0
VERTEX
  8
0
 10
4.375
 20
7.37001
 30
0.0
 40
0
 41
0
  0
VERTEX
  8
0
 10
4.375
 20
7.375
 30
0.0
 40
0
 41
0
  0
VERTEX
  8
0
 10
4.375
 20
7.38004
 30
0.0
 40
0
 41
0
  0
VERTEX
  8
0
 10
4.37619
 20
7.39501
 30
0.0
 40
0
 41
0
  0
VERTEX
  8
0
 10
4.38053
 20
7.40782
 30
0.0
 40
0
 41
0
  0
VERTEX
  8
0
 10
4.38906
 20
7.41465
 30
0.0
 40
0
 41
0
  0
VERTEX
  8
0
 10
4.39931
 20
7.41667
 30
0.0
 40
0
 41
0
  0
VERTEX
  8
0
 10
4.40278
 20
7.41667
 30
0.0
 40
0
 41
0
  0
VERTEX
  8
0
 10
4.40631
 20
7.41667
 30
0.0
 40
0
 41
0
  0
VERTEX
  8
0
 10
4.41704
 20
7.41906
 30
0.0
 40
0
 41
0
  0
VERTEX
  8
0
 10
4.42551
 20
7.42817
 30
0.0
 40
0
 41
0
  0
VERTEX
  8
0
 10
4.42953
 20
7.44715
 30
0.0
 40
0
 41
0
  0
VERTEX
  8
0
 10
4.43056
 20
7.47119
 30
0.0
 40
0
 41
0
  0
VERTEX
  8
0
 10
4.43056
 20
7.47917
 30
0.0
 40
0
 41
0
  0
VERTEX
  8
0
 10
4.43056
 20
7.54167
 30
0.0
 40
0
 41
0
  0
VERTEX
  8
0
 10
4.55556
 20
7.54167
 30
0.0
 40
0
 41
0
  0
VERTEX
  8
0
 10
4.55556
 20
7.47917
 30
0.0
 40
0
 41
0
  0
SEQEND
 8
0
  0
POLYLINE
  8
0
 62
     0
 66
     1
 10
0
 20
0
 30
0.0
 70
     1
 40
0
 41
0
  0
VERTEX
  8
0
 10
5.69444
 20
7.47917
 30
0.0
 40
0
 41
0
  0
VERTEX
  8
0
 10
5.69444
 20
7.47119
 30
0.0
 40
0
 41
0
  0
VERTEX
  8
0
 10
5.69542
 20
7.44715
 30
0.0
 40
0
 41
0
  0
VERTEX
  8
0
 10
5.69943
 20
7.42817
 30
0.0
 40
0
 41
0
  0
VERTEX
  8
0
 10
5.7079
 20
7.41906
 30
0.0
 40
0
 41
0
  0
VERTEX
  8
0
 10
5.71864
 20
7.41667
 30
0.0
 40
0
 41
0
  0
VERTEX
  8
0
 10
5.72222
 20
7.41667
 30
0.0
 40
0
 41
0
  0
VERTEX
  8
0
 10
5.72564
 20
7.41667
 30
0.0
 40
0
 41
0
  0
VERTEX
  8
0
 10
5.73589
 20
7.41465
 30
0.0
 40
0
 41
0
  0
VERTEX
  8
0
 10
5.74442
 20
7.40782
 30
0.0
 40
0
 41
0
  0
VERTEX
  8
0
 10
5.74875
 20
7.39501
 30
0.0
 40
0
 41
0
  0
VERTEX
  8
0
 10
5.75
 20
7.38004
 30
0.0
 40
0
 41
0
  0
VERTEX
  8
0
 10
5.75
 20
7.375
 30
0.0
 40
0
 41
0
  0
VERTEX
  8
0
 10
5.75
 20
7.37001
 30
0.0
 40
0
 41
0
  0
VERTEX
  8
0
 10
5.74875
 20
7.35504
 30
0.0
 40
0
 41
0
  0
VERTEX
  8
0
 10
5.74442
 20
7.34224
 30
0.0
 40
0
 41
0
  0
VERTEX
  8
0
 10
5.73589
 20
7.33539
 30
0.0
 40
0
 41
0
  0
VERTEX
  8
0
 10
5.72564
 20
7.33333
 30
0.0
 40
0
 41
0
  0
VERTEX
  8
0
 10
5.72222
 20
7.33333
 30
0.0
 40
0
 41
0
  0
VERTEX
  8
0
 10
5.71864
 20
7.33333
 30
0.0
 40
0
 41
0
  0
VERTEX
  8
0
 10
5.7079
 20
7.33089
 30
0.0
 40
0
 41
0
  0
VERTEX
  8
0
 10
5.69943
 20
7.32101
 30
0.0
 40
0
 41
0
  0
VERTEX
  8
0
 10
5.69542
 20
7.29997
 30
0.0
 40
0
 41
0
  0
VERTEX
  8
0
 10
5.69444
 20
7.27294
 30
0.0
 40
0
 41
0
  0
VERTEX
  8
0
 10
5.69444
 20
7.26389
 30
0.0
 40
0
 41
0
  0
VERTEX
  8
0
 10
5.69444
 20
7.19444
 30
0.0
 40
0
 41
0
  0
VERTEX
  8
0
 10
5.80556
 20
7.19444
 30
0.0
 40
0
 41
0
  0
VERTEX
  8
0
 10
5.80556
 20
7.13194
 30
0.0
 40
0
 41
0
  0
VERTEX
  8
0
 10
5.80556
 20
7.12294
 30
0.0
 40
0
 41
0
  0
VERTEX
  8
0
 10
5.80479
 20
7.09581
 30
0.0
 40
0
 41
0
  0
VERTEX
  8
0
 10
5.79949
 20
7.07726
 30
0.0
 40
0
 41
0
  0
VERTEX
  8
0
 10
5.78504
 20
7.07042
 30
0.0
 40
0
 41
0
  0
VERTEX
  8
0
 10
5.76394
 20
7.06944
 30
0.0
 40
0
 41
0
  0
VERTEX
  8
0
 10
5.75694
 20
7.06944
 30
0.0
 40
0
 41
0
  0
VERTEX
  8
0
 10
5.70833
 20
7.06944
 30
0.0
 40
0
 41
0
  0
VERTEX
  8
0
 10
5.70833
 20
6.88889
 30
0.0
 40
0
 41
0
  0
VERTEX
  8
0
 10
5.54167
 20
6.88889
 30
0.0
 40
0
 41
0
  0
VERTEX
  8
0
 10
5.54167
 20
7.06944
 30
0.0
 40
0
 41
0
  0
VERTEX
  8
0
 10
5.5
 20
7.06944
 30
0.0
 40
0
 41
0
  0
VERTEX
  8
0
 10
5.49408
 20
7.06944
 30
0.0
 40
0
 41
0
  0
VERTEX
  8
0
 10
5.47646
 20
7.07086
 30
0.0
 40
0
 41
0
  0
VERTEX
  8
0
 10
5.46403
 20
7.07835
 30
0.0
 40
0
 41
0
  0
VERTEX
  8
0
 10
5.45915
 20
7.097
 30
0.0
 40
0
 41
0
  0
VERTEX
  8
0
 10
5.45833
 20
7.12321
 30
0.0
 40
0
 41
0
  0
VERTEX
  8
0
 10
5.45833
 20
7.13194
 30
0.0
 40
0
 41
0
  0
VERTEX
  8
0
 10
5.45833
 20
7.19444
 30
0.0
 40
0
 41
0
  0
VERTEX
  8
0
 10
5.56944
 20
7.19444
 30
0.0
 40
0
 41
0
  0
VERTEX
  8
0
 10
5.56944
 20
7.26389
 30
0.0
 40
0
 41
0
  0
VERTEX
  8
0
 10
5.56944
 20
7.27349
 30
0.0
 40
0
 41
0
  0
VERTEX
  8
0
 10
5.56847
 20
7.30231
 30
0.0
 40
0
 41
0
  0
VERTEX
  8
0
 10
5.56401
 20
7.32314
 30
0.0
 40
0
 41
0
  0
VERTEX
  8
0
 10
5.5536
 20
7.33171
 30
0.0
 40
0
 41
0
  0
VERTEX
  8
0
 10
5.53944
 20
7.33333
 30
0.0
 40
0
 41
0
  0
VERTEX
  8
0
 10
5.53472
 20
7.33333
 30
0.0
 40
0
 41
0
  0
VERTEX
  8
0
 10
5.53028
 20
7.33333
 30
0.0
 40
0
 41
0
  0
VERTEX
  8
0
 10
5.51699
 20
7.33496
 30
0.0
 40
0
 41
0
  0
VERTEX
  8
0
 10
5.5064
 20
7.34115
 30
0.0
 40
0
 41
0
  0
VERTEX
  8
0
 10
5.50131
 20
7.35385
 30
0.0
 40
0
 41
0
  0
VERTEX
  8
0
 10
5.5
 20
7.36974
 30
0.0
 40
0
 41
0
  0
VERTEX
  8
0
 10
5.5
 20
7.375
 30
0.0
 40
0
 41
0
  0
VERTEX
  8
0
 10
5.5
 20
7.38032
 30
0.0
 40
0
 41
0
  0
VERTEX
  8
0
 10
5.50131
 20
7.39615
 30
0.0
 40
0
 41
0
  0
VERTEX
  8
0
 10
5.5064
 20
7.40886
 30
0.0
 40
0
 41
0
  0
VERTEX
  8
0
 10
5.51699
 20
7.41504
 30
0.0
 40
0
 41
0
  0
VERTEX
  8
0
 10
5.53028
 20
7.41667
 30
0.0
 40
0
 41
0
  0
VERTEX
  8
0
 10
5.53472
 20
7.41667
 30
0.0
 40
0
 41
0
  0
VERTEX
  8
0
 10
5.53944
 20
7.41667
 30
0.0
 40
0
 41
0
  0
VERTEX
  8
0
 10
5.5536
 20
7.41846
 30
0.0
 40
0
 41
0
  0
VERTEX
  8
0
 10
5.56401
 20
7.4266
 30
0.0
 40
0
 41
0
  0
VERTEX
  8
0
 10
5.56847
 20
7.44542
 30
0.0
 40
0
 41
0
  0
VERTEX
  8
0
 10
5.56944
 20
7.47076
 30
0.0
 40
0
 41
0
  0
VERTEX
  8
0
 10
5.56944
 20
7.47917
 30
0.0
 40
0
 41
0
  0
VERTEX
  8
0
 10
5.56944
 20
7.54167
 30
0.0
 40
0
 41
0
  0
VERTEX
  8
0
 10
5.69444
 20
7.54167
 30
0.0
 40
0
 41
0
  0
VERTEX
  8
0
 10
5.69444
 20
7.47917
 30
0.0
 40
0
 41
0
  0
SEQEND
 8
0
  0
POLYLINE
  8
0
 62
     0
 66
     1
 10
0
 20
0
 30
0.0
 70
     1
 40
0
 41
0
  0
VERTEX
  8
0
 10
9.30556
 20
7.47917
 30
0.0
 40
0
 41
0
  0
VERTEX
  8
0
 10
9.30556
 20
7.47076
 30
0.0
 40
0
 41
0
  0
VERTEX
  8
0
 10
9.30647
 20
7.44542
 30
0.0
 40
0
 41
0
  0
VERTEX
  8
0
 10
9.31093
 20
7.4266
 30
0.0
 40
0
 41
0
  0
VERTEX
  8
0
 10
9.32135
 20
7.41846
 30
0.0
 40
0
 41
0
  0
VERTEX
  8
0
 10
9.3355
 20
7.41667
 30
0.0
 40
0
 41
0
  0
VERTEX
  8
0
 10
9.34028
 20
7.41667
 30
0.0
 40
0
 41
0
  0
VERTEX
  8
0
 10
9.34467
 20
7.41667
 30
0.0
 40
0
 41
0
  0
VERTEX
  8
0
 10
9.35796
 20
7.41504
 30
0.0
 40
0
 41
0
  0
VERTEX
  8
0
 10
9.36854
 20
7.40886
 30
0.0
 40
0
 41
0
  0
VERTEX
  8
0
 10
9.37364
 20
7.39615
 30
0.0
 40
0
 41
0
  0
VERTEX
  8
0
 10
9.375
 20
7.38032
 30
0.0
 40
0
 41
0
  0
VERTEX
  8
0
 10
9.375
 20
7.375
 30
0.0
 40
0
 41
0
  0
VERTEX
  8
0
 10
9.375
 20
7.36974
 30
0.0
 40
0
 41
0
  0
VERTEX
  8
0
 10
9.37364
 20
7.35385
 30
0.0
 40
0
 41
0
  0
VERTEX
  8
0
 10
9.36854
 20
7.34115
 30
0.0
 40
0
 41
0
  0
VERTEX
  8
0
 10
9.35796
 20
7.33496
 30
0.0
 40
0
 41
0
  0
VERTEX
  8
0
 10
9.34467
 20
7.33333
 30
0.0
 40
0
 41
0
  0
VERTEX
  8
0
 10
9.34028
 20
7.33333
 30
0.0
 40
0
 41
0
  0
VERTEX
  8
0
 10
9.3355
 20
7.33333
 30
0.0
 40
0
 41
0
  0
VERTEX
  8
0
 10
9.32135
 20
7.33171
 30
0.0
 40
0
 41
0
  0
VERTEX
  8
0
 10
9.31093
 20
7.32314
 30
0.0
 40
0
 41
0
  0
VERTEX
  8
0
 10
9.30647
 20
7.30231
 30
0.0
 40
0
 41
0
  0
VERTEX
  8
0
 10
9.30556
 20
7.27349
 30
0.0
 40
0
 41
0
  0
VERTEX
  8
0
 10
9.30556
 20
7.26389
 30
0.0
 40
0
 41
0
  0
VERTEX
  8
0
 10
9.30556
 20
7.19444
 30
0.0
 40
0
 41
0
  0
VERTEX
  8
0
 10
9.41667
 20
7.19444
 30
0.0
 40
0
 41
0
  0
VERTEX
  8
0
 10
9.41667
 20
7.13194
 30
0.0
 40
0
 41
0
  0
VERTEX
  8
0
 10
9.41667
 20
7.12321
 30
0.0
 40
0
 41
0
  0
VERTEX
  8
0
 10
9.41581
 20
7.097
 30
0.0
 40
0
 41
0
  0
VERTEX
  8
0
 10
9.41092
 20
7.07835
 30
0.0
 40
0
 41
0
  0
VERTEX
  8
0
 10
9.39849
 20
7.07086
 30
0.0
 40
0
 41
0
  0
VERTEX
  8
0
 10
9.38086
 20
7.06944
 30
0.0
 40
0
 41
0
  0
VERTEX
  8
0
 10
9.375
 20
7.06944
 30
0.0
 40
0
 41
0
  0
VERTEX
  8
0
 10
9.33333
 20
7.06944
 30
0.0
 40
0
 41
0
  0
VERTEX
  8
0
 10
9.33333
 20
6.88889
 30
0.0
 40
0
 41
0
  0
VERTEX
  8
0
 10
9.16667
 20
6.88889
 30
0.0
 40
0
 41
0
  0
VERTEX
  8
0
 10
9.16667
 20
7.06944
 30
0.0
 40
0
 41
0
  0
VERTEX
  8
0
 10
9.11806
 20
7.06944
 30
0.0
 40
0
 41
0
  0
VERTEX
  8
0
 10
9.111
 20
7.06944
 30
0.0
 40
0
 41
0
  0
VERTEX
  8
0
 10
9.08996
 20
7.07042
 30
0.0
 40
0
 41
0
  0
VERTEX
  8
0
 10
9.07553
 20
7.07726
 30
0.0
 40
0
 41
0
  0
VERTEX
  8
0
 10
9.07021
 20
7.09581
 30
0.0
 40
0
 41
0
  0
VERTEX
  8
0
 10
9.06944
 20
7.12294
 30
0.0
 40
0
 41
0
  0
VERTEX
  8
0
 10
9.06944
 20
7.13194
 30
0.0
 40
0
 41
0
  0
VERTEX
  8
0
 10
9.06944
 20
7.19444
 30
0.0
 40
0
 41
0
  0
VERTEX
  8
0
 10
9.18056
 20
7.19444
 30
0.0
 40
0
 41
0
  0
VERTEX
  8
0
 10
9.18056
 20
7.26389
 30
0.0
 40
0
 41
0
  0
VERTEX
  8
0
 10
9.18056
 20
7.27294
 30
0.0
 40
0
 41
0
  0
VERTEX
  8
0
 10
9.17953
 20
7.29997
 30
0.0
 40
0
 41
0
  0
VERTEX
  8
0
 10
9.17551
 20
7.32101
 30
0.0
 40
0
 41
0
  0
VERTEX
  8
0
 10
9.16704
 20
7.33089
 30
0.0
 40
0
 41
0
  0
VERTEX
  8
0
 10
9.15631
 20
7.33333
 30
0.0
 40
0
 41
0
  0
VERTEX
  8
0
 10
9.15278
 20
7.33333
 30
0.0
 40
0
 41
0
  0
VERTEX
  8
0
 10
9.14931
 20
7.33333
 30
0.0
 40
0
 41
0
  0
VERTEX
  8
0
 10
9.13906
 20
7.33539
 30
0.0
 40
0
 41
0
  0
VERTEX
  8
0
 10
9.13053
 20
7.34224
 30
0.0
 40
0
 41
0
  0
VERTEX
  8
0
 10
9.12619
 20
7.35504
 30
0.0
 40
0
 41
0
  0
VERTEX
  8
0
 10
9.125
 20
7.37001
 30
0.0
 40
0
 41
0
  0
VERTEX
  8
0
 10
9.125
 20
7.375
 30
0.0
 40
0
 41
0
  0
VERTEX
  8
0
 10
9.125
 20
7.38004
 30
0.0
 40
0
 41
0
  0
VERTEX
  8
0
 10
9.12619
 20
7.39501
 30
0.0
 40
0
 41
0
  0
VERTEX
  8
0
 10
9.13053
 20
7.40782
 30
0.0
 40
0
 41
0
  0
VERTEX
  8
0
 10
9.13906
 20
7.41465
 30
0.0
 40
0
 41
0
  0
VERTEX
  8
0
 10
9.14931
 20
7.41667
 30
0.0
 40
0
 41
0
  0
VERTEX
  8
0
 10
9.15278
 20
7.41667
 30
0.0
 40
0
 41
0
  0
VERTEX
  8
0
 10
9.15631
 20
7.41667
 30
0.0
 40
0
 41
0
  0
VERTEX
  8
0
 10
9.16704
 20
7.41906
 30
0.0
 40
0
 41
0
  0
VERTEX
  8
0
 10
9.17551
 20
7.42817
 30
0.0
 40
0
 41
0
  0
VERTEX
  8
0
 10
9.17953
 20
7.44715
 30
0.0
 40
0
 41
0
  0
VERTEX
  8
0
 10
9.18056
 20
7.47119
 30
0.0
 40
0
 41
0
  0
VERTEX
  8
0
 10
9.18056
 20
7.47917
 30
0.0
 40
0
 41
0
  0
VERTEX
  8
0
 10
9.18056
 20
7.54167
 30
0.0
 40
0
 41
0
  0
VERTEX
  8
0
 10
9.30556
 20
7.54167
 30
0.0
 40
0
 41
0
  0
VERTEX
  8
0
 10
9.30556
 20
7.47917
 30
0.0
 40
0
 41
0
  0
SEQEND
 8
0
  0
POLYLINE
  8
0
 62
     0
 66
     1
 10
0
 20
0
 30
0.0
 70
     1
 40
0
 41
0
  0
VERTEX
  8
0
 10
5.19444
 20
7.27083
 30
0.0
 40
0
 41
0
  0
VERTEX
  8
0
 10
5.19444
 20
7.05556
 30
0.0
 40
0
 41
0
  0
VERTEX
  8
0
 10
5.43056
 20
7.05556
 30
0.0
 40
0
 41
0
  0
VERTEX
  8
0
 10
5.43056
 20
6.93056
 30
0.0
 40
0
 41
0
  0
VERTEX
  8
0
 10
4.69444
 20
6.93056
 30
0.0
 40
0
 41
0
  0
VERTEX
  8
0
 10
4.69444
 20
7.05556
 30
0.0
 40
0
 41
0
  0
VERTEX
  8
0
 10
4.93056
 20
7.05556
 30
0.0
 40
0
 41
0
  0
VERTEX
  8
0
 10
4.93056
 20
7.48611
 30
0.0
 40
0
 41
0
  0
VERTEX
  8
0
 10
5.19444
 20
7.48611
 30
0.0
 40
0
 41
0
  0
VERTEX
  8
0
 10
5.19444
 20
7.27083
 30
0.0
 40
0
 41
0
  0
SEQEND
 8
0
  0
POLYLINE
  8
0
 62
     0
 66
     1
 10
0
 20
0
 30
0.0
 70
     1
 40
0
 41
0
  0
VERTEX
  8
0
 10
9.80556
 20
7.34028
 30
0.0
 40
0
 41
0
  0
VERTEX
  8
0
 10
9.80556
 20
7.19444
 30
0.0
 40
0
 41
0
  0
VERTEX
  8
0
 10
10.2917
 20
7.19444
 30
0.0
 40
0
 41
0
  0
VERTEX
  8
0
 10
10.2917
 20
6.93056
 30
0.0
 40
0
 41
0
  0
VERTEX
  8
0
 10
9.44444
 20
6.93056
 30
0.0
 40
0
 41
0
  0
VERTEX
  8
0
 10
9.44444
 20
7.05556
 30
0.0
 40
0
 41
0
  0
VERTEX
  8
0
 10
9.68056
 20
7.05556
 30
0.0
 40
0
 41
0
  0
VERTEX
  8
0
 10
9.68056
 20
7.48611
 30
0.0
 40
0
 41
0
  0
VERTEX
  8
0
 10
9.80556
 20
7.48611
 30
0.0
 40
0
 41
0
  0
VERTEX
  8
0
 10
9.80556
 20
7.34028
 30
0.0
 40
0
 41
0
  0
SEQEND
 8
0
  0
POLYLINE
  8
0
 62
     0
 66
     1
 10
0
 20
0
 30
0.0
 70
     1
 40
0
 41
0
  0
VERTEX
  8
0
 10
10.625
 20
7.0625
 30
0.0
 40
0
 41
0
  0
VERTEX
  8
0
 10
10.625
 20
6.88889
 30
0.0
 40
0
 41
0
  0
VERTEX
  8
0
 10
10.4722
 20
6.88889
 30
0.0
 40
0
 41
0
  0
VERTEX
  8
0
 10
10.4722
 20
7.23611
 30
0.0
 40
0
 41
0
  0
VERTEX
  8
0
 10
10.625
 20
7.23611
 30
0.0
 40
0
 41
0
  0
VERTEX
  8
0
 10
10.625
 20
7.0625
 30
0.0
 40
0
 41
0
  0
SEQEND
 8
0
  0
POLYLINE
  8
0
 62
     0
 66
     1
 10
0
 20
0
 30
0.0
 70
     1
 40
0
 41
0
  0
VERTEX
  8
0
 10
11.4028
 20
7.0625
 30
0.0
 40
0
 41
0
  0
VERTEX
  8
0
 10
11.4028
 20
6.88889
 30
0.0
 40
0
 41
0
  0
VERTEX
  8
0
 10
11.25
 20
6.88889
 30
0.0
 40
0
 41
0
  0
VERTEX
  8
0
 10
11.25
 20
7.23611
 30
0.0
 40
0
 41
0
  0
VERTEX
  8
0
 10
11.4028
 20
7.23611
 30
0.0
 40
0
 41
0
  0
VERTEX
  8
0
 10
11.4028
 20
7.0625
 30
0.0
 40
0
 41
0
  0
SEQEND
 8
0
  0
POLYLINE
  8
0
 62
     0
 66
     1
 10
0
 20
0
 30
0.0
 70
     1
 40
0
 41
0
  0
VERTEX
  8
0
 10
1.63889
 20
7.13194
 30
0.0
 40
0
 41
0
  0
VERTEX
  8
0
 10
1.63889
 20
7.06944
 30
0.0
 40
0
 41
0
  0
VERTEX
  8
0
 10
1.375
 20
7.06944
 30
0.0
 40
0
 41
0
  0
VERTEX
  8
0
 10
1.375
 20
7.19444
 30
0.0
 40
0
 41
0
  0
VERTEX
  8
0
 10
1.63889
 20
7.19444
 30
0.0
 40
0
 41
0
  0
VERTEX
  8
0
 10
1.63889
 20
7.13194
 30
0.0
 40
0
 41
0
  0
SEQEND
 8
0
  0
POLYLINE
  8
0
 62
     0
 66
     1
 10
0
 20
0
 30
0.0
 70
     1
 40
0
 41
0
  0
VERTEX
  8
0
 10
2.23611
 20
7.13194
 30
0.0
 40
0
 41
0
  0
VERTEX
  8
0
 10
2.23611
 20
7.06944
 30
0.0
 40
0
 41
0
  0
VERTEX
  8
0
 10
1.95833
 20
7.06944
 30
0.0
 40
0
 41
0
  0
VERTEX
  8
0
 10
1.95833
 20
7.19444
 30
0.0
 40
0
 41
0
  0
VERTEX
  8
0
 10
2.23611
 20
7.19444
 30
0.0
 40
0
 41
0
  0
VERTEX
  8
0
 10
2.23611
 20
7.13194
 30
0.0
 40
0
 41
0
  0
SEQEND
 8
0
  0
POLYLINE
  8
0
 62
     0
 66
     1
 10
0
 20
0
 30
0.0
 70
     1
 40
0
 41
0
  0
VERTEX
  8
0
 10
2.81944
 20
7.13194
 30
0.0
 40
0
 41
0
  0
VERTEX
  8
0
 10
2.81944
 20
7.06944
 30
0.0
 40
0
 41
0
  0
VERTEX
  8
0
 10
2.55556
 20
7.06944
 30
0.0
 40
0
 41
0
  0
VERTEX
  8
0
 10
2.55556
 20
7.19444
 30
0.0
 40
0
 41
0
  0
VERTEX
  8
0
 10
2.81944
 20
7.19444
 30
0.0
 40
0
 41
0
  0
VERTEX
  8
0
 10
2.81944
 20
7.13194
 30
0.0
 40
0
 41
0
  0
SEQEND
 8
0
  0
POLYLINE
  8
0
 62
     0
 66
     1
 10
0
 20
0
 30
0.0
 70
     1
 40
0
 41
0
  0
VERTEX
  8
0
 10
3.41667
 20
7.13194
 30
0.0
 40
0
 41
0
  0
VERTEX
  8
0
 10
3.41667
 20
7.06944
 30
0.0
 40
0
 41
0
  0
VERTEX
  8
0
 10
3.13889
 20
7.06944
 30
0.0
 40
0
 41
0
  0
VERTEX
  8
0
 10
3.13889
 20
7.19444
 30
0.0
 40
0
 41
0
  0
VERTEX
  8
0
 10
3.41667
 20
7.19444
 30
0.0
 40
0
 41
0
  0
VERTEX
  8
0
 10
3.41667
 20
7.13194
 30
0.0
 40
0
 41
0
  0
SEQEND
 8
0
  0
POLYLINE
  8
0
 62
     0
 66
     1
 10
0
 20
0
 30
0.0
 70
     1
 40
0
 41
0
  0
VERTEX
  8
0
 10
4
 20
7.13194
 30
0.0
 40
0
 41
0
  0
VERTEX
  8
0
 10
4
 20
7.06944
 30
0.0
 40
0
 41
0
  0
VERTEX
  8
0
 10
3.73611
 20
7.06944
 30
0.0
 40
0
 41
0
  0
VERTEX
  8
0
 10
3.73611
 20
7.19444
 30
0.0
 40
0
 41
0
  0
VERTEX
  8
0
 10
4
 20
7.19444
 30
0.0
 40
0
 41
0
  0
VERTEX
  8
0
 10
4
 20
7.13194
 30
0.0
 40
0
 41
0
  0
SEQEND
 8
0
  0
POLYLINE
  8
0
 62
     0
 66
     1
 10
0
 20
0
 30
0.0
 70
     1
 40
0
 41
0
  0
VERTEX
  8
0
 10
6.38889
 20
7.13194
 30
0.0
 40
0
 41
0
  0
VERTEX
  8
0
 10
6.38889
 20
7.06944
 30
0.0
 40
0
 41
0
  0
VERTEX
  8
0
 10
6.125
 20
7.06944
 30
0.0
 40
0
 41
0
  0
VERTEX
  8
0
 10
6.125
 20
7.19444
 30
0.0
 40
0
 41
0
  0
VERTEX
  8
0
 10
6.38889
 20
7.19444
 30
0.0
 40
0
 41
0
  0
VERTEX
  8
0
 10
6.38889
 20
7.13194
 30
0.0
 40
0
 41
0
  0
SEQEND
 8
0
  0
POLYLINE
  8
0
 62
     0
 66
     1
 10
0
 20
0
 30
0.0
 70
     1
 40
0
 41
0
  0
VERTEX
  8
0
 10
6.98611
 20
7.13194
 30
0.0
 40
0
 41
0
  0
VERTEX
  8
0
 10
6.98611
 20
7.06944
 30
0.0
 40
0
 41
0
  0
VERTEX
  8
0
 10
6.70833
 20
7.06944
 30
0.0
 40
0
 41
0
  0
VERTEX
  8
0
 10
6.70833
 20
7.19444
 30
0.0
 40
0
 41
0
  0
VERTEX
  8
0
 10
6.98611
 20
7.19444
 30
0.0
 40
0
 41
0
  0
VERTEX
  8
0
 10
6.98611
 20
7.13194
 30
0.0
 40
0
 41
0
  0
SEQEND
 8
0
  0
POLYLINE
  8
0
 62
     0
 66
     1
 10
0
 20
0
 30
0.0
 70
     1
 40
0
 41
0
  0
VERTEX
  8
0
 10
7.56944
 20
7.13194
 30
0.0
 40
0
 41
0
  0
VERTEX
  8
0
 10
7.56944
 20
7.06944
 30
0.0
 40
0
 41
0
  0
VERTEX
  8
0
 10
7.30556
 20
7.06944
 30
0.0
 40
0
 41
0
  0
VERTEX
  8
0
 10
7.30556
 20
7.19444
 30
0.0
 40
0
 41
0
  0
VERTEX
  8
0
 10
7.56944
 20
7.19444
 30
0.0
 40
0
 41
0
  0
VERTEX
  8
0
 10
7.56944
 20
7.13194
 30
0.0
 40
0
 41
0
  0
SEQEND
 8
0
  0
POLYLINE
  8
0
 62
     0
 66
     1
 10
0
 20
0
 30
0.0
 70
     1
 40
0
 41
0
  0
VERTEX
  8
0
 10
8.16667
 20
7.13194
 30
0.0
 40
0
 41
0
  0
VERTEX
  8
0
 10
8.16667
 20
7.06944
 30
0.0
 40
0
 41
0
  0
VERTEX
  8
0
 10
7.88889
 20
7.06944
 30
0.0
 40
0
 41
0
  0
VERTEX
  8
0
 10
7.88889
 20
7.19444
 30
0.0
 40
0
 41
0
  0
VERTEX
  8
0
 10
8.16667
 20
7.19444
 30
0.0
 40
0
 41
0
  0
VERTEX
  8
0
 10
8.16667
 20
7.13194
 30
0.0
 40
0
 41
0
  0
SEQEND
 8
0
  0
POLYLINE
  8
0
 62
     0
 66
     1
 10
0
 20
0
 30
0.0
 70
     1
 40
0
 41
0
  0
VERTEX
  8
0
 10
8.75
 20
7.13194
 30
0.0
 40
0
 41
0
  0
VERTEX
  8
0
 10
8.75
 20
7.06944
 30
0.0
 40
0
 41
0
  0
VERTEX
  8
0
 10
8.48611
 20
7.06944
 30
0.0
 40
0
 41
0
  0
VERTEX
  8
0
 10
8.48611
 20
7.19444
 30
0.0
 40
0
 41
0
  0
VERTEX
  8
0
 10
8.75
 20
7.19444
 30
0.0
 40
0
 41
0
  0
VERTEX
  8
0
 10
8.75
 20
7.13194
 30
0.0
 40
0
 41
0
  0
SEQEND
 8
0
  0
POLYLINE
  8
0
 62
     0
 66
     1
 10
0
 20
0
 30
0.0
 70
     1
 40
0
 41
0
  0
VERTEX
  8
0
 10
11.0694
 20
7.0625
 30
0.0
 40
0
 41
0
  0
VERTEX
  8
0
 10
11.0694
 20
6.93056
 30
0.0
 40
0
 41
0
  0
VERTEX
  8
0
 10
10.8056
 20
6.93056
 30
0.0
 40
0
 41
0
  0
VERTEX
  8
0
 10
10.8056
 20
7.19444
 30
0.0
 40
0
 41
0
  0
VERTEX
  8
0
 10
11.0694
 20
7.19444
 30
0.0
 40
0
 41
0
  0
VERTEX
  8
0
 10
11.0694
 20
7.0625
 30
0.0
 40
0
 41
0
  0
SEQEND
 8
0
  0
POLYLINE
  8
0
 62
     0
 66
     1
 10
0
 20
0
 30
0.0
 70
     1
 40
0
 41
0
  0
VERTEX
  8
0
 10
1.34722
 20
6.99306
 30
0.0
 40
0
 41
0
  0
VERTEX
  8
0
 10
1.34722
 20
6.93056
 30
0.0
 40
0
 41
0
  0
VERTEX
  8
0
 10
1.08333
 20
6.93056
 30
0.0
 40
0
 41
0
  0
VERTEX
  8
0
 10
1.08333
 20
7.05556
 30
0.0
 40
0
 41
0
  0
VERTEX
  8
0
 10
1.34722
 20
7.05556
 30
0.0
 40
0
 41
0
  0
VERTEX
  8
0
 10
1.34722
 20
6.99306
 30
0.0
 40
0
 41
0
  0
SEQEND
 8
0
  0
POLYLINE
  8
0
 62
     0
 66
     1
 10
0
 20
0
 30
0.0
 70
     1
 40
0
 41
0
  0
VERTEX
  8
0
 10
1.93056
 20
6.99306
 30
0.0
 40
0
 41
0
  0
VERTEX
  8
0
 10
1.93056
 20
6.93056
 30
0.0
 40
0
 41
0
  0
VERTEX
  8
0
 10
1.66667
 20
6.93056
 30
0.0
 40
0
 41
0
  0
VERTEX
  8
0
 10
1.66667
 20
7.05556
 30
0.0
 40
0
 41
0
  0
VERTEX
  8
0
 10
1.93056
 20
7.05556
 30
0.0
 40
0
 41
0
  0
VERTEX
  8
0
 10
1.93056
 20
6.99306
 30
0.0
 40
0
 41
0
  0
SEQEND
 8
0
  0
POLYLINE
  8
0
 62
     0
 66
     1
 10
0
 20
0
 30
0.0
 70
     1
 40
0
 41
0
  0
VERTEX
  8
0
 10
2.52778
 20
6.99306
 30
0.0
 40
0
 41
0
  0
VERTEX
  8
0
 10
2.52778
 20
6.93056
 30
0.0
 40
0
 41
0
  0
VERTEX
  8
0
 10
2.26389
 20
6.93056
 30
0.0
 40
0
 41
0
  0
VERTEX
  8
0
 10
2.26389
 20
7.05556
 30
0.0
 40
0
 41
0
  0
VERTEX
  8
0
 10
2.52778
 20
7.05556
 30
0.0
 40
0
 41
0
  0
VERTEX
  8
0
 10
2.52778
 20
6.99306
 30
0.0
 40
0
 41
0
  0
SEQEND
 8
0
  0
POLYLINE
  8
0
 62
     0
 66
     1
 10
0
 20
0
 30
0.0
 70
     1
 40
0
 41
0
  0
VERTEX
  8
0
 10
3.11111
 20
6.99306
 30
0.0
 40
0
 41
0
  0
VERTEX
  8
0
 10
3.11111
 20
6.93056
 30
0.0
 40
0
 41
0
  0
VERTEX
  8
0
 10
2.84722
 20
6.93056
 30
0.0
 40
0
 41
0
  0
VERTEX
  8
0
 10
2.84722
 20
7.05556
 30
0.0
 40
0
 41
0
  0
VERTEX
  8
0
 10
3.11111
 20
7.05556
 30
0.0
 40
0
 41
0
  0
VERTEX
  8
0
 10
3.11111
 20
6.99306
 30
0.0
 40
0
 41
0
  0
SEQEND
 8
0
  0
POLYLINE
  8
0
 62
     0
 66
     1
 10
0
 20
0
 30
0.0
 70
     1
 40
0
 41
0
  0
VERTEX
  8
0
 10
3.70833
 20
6.99306
 30
0.0
 40
0
 41
0
  0
VERTEX
  8
0
 10
3.70833
 20
6.93056
 30
0.0
 40
0
 41
0
  0
VERTEX
  8
0
 10
3.44444
 20
6.93056
 30
0.0
 40
0
 41
0
  0
VERTEX
  8
0
 10
3.44444
 20
7.05556
 30
0.0
 40
0
 41
0
  0
VERTEX
  8
0
 10
3.70833
 20
7.05556
 30
0.0
 40
0
 41
0
  0
VERTEX
  8
0
 10
3.70833
 20
6.99306
 30
0.0
 40
0
 41
0
  0
SEQEND
 8
0
  0
POLYLINE
  8
0
 62
     0
 66
     1
 10
0
 20
0
 30
0.0
 70
     1
 40
0
 41
0
  0
VERTEX
  8
0
 10
4.29167
 20
6.99306
 30
0.0
 40
0
 41
0
  0
VERTEX
  8
0
 10
4.29167
 20
6.93056
 30
0.0
 40
0
 41
0
  0
VERTEX
  8
0
 10
4.02778
 20
6.93056
 30
0.0
 40
0
 41
0
  0
VERTEX
  8
0
 10
4.02778
 20
7.05556
 30
0.0
 40
0
 41
0
  0
VERTEX
  8
0
 10
4.29167
 20
7.05556
 30
0.0
 40
0
 41
0
  0
VERTEX
  8
0
 10
4.29167
 20
6.99306
 30
0.0
 40
0
 41
0
  0
SEQEND
 8
0
  0
POLYLINE
  8
0
 62
     0
 66
     1
 10
0
 20
0
 30
0.0
 70
     1
 40
0
 41
0
  0
VERTEX
  8
0
 10
6.09722
 20
6.99306
 30
0.0
 40
0
 41
0
  0
VERTEX
  8
0
 10
6.09722
 20
6.93056
 30
0.0
 40
0
 41
0
  0
VERTEX
  8
0
 10
5.83333
 20
6.93056
 30
0.0
 40
0
 41
0
  0
VERTEX
  8
0
 10
5.83333
 20
7.05556
 30
0.0
 40
0
 41
0
  0
VERTEX
  8
0
 10
6.09722
 20
7.05556
 30
0.0
 40
0
 41
0
  0
VERTEX
  8
0
 10
6.09722
 20
6.99306
 30
0.0
 40
0
 41
0
  0
SEQEND
 8
0
  0
POLYLINE
  8
0
 62
     0
 66
     1
 10
0
 20
0
 30
0.0
 70
     1
 40
0
 41
0
  0
VERTEX
  8
0
 10
6.68056
 20
6.99306
 30
0.0
 40
0
 41
0
  0
VERTEX
  8
0
 10
6.68056
 20
6.93056
 30
0.0
 40
0
 41
0
  0
VERTEX
  8
0
 10
6.41667
 20
6.93056
 30
0.0
 40
0
 41
0
  0
VERTEX
  8
0
 10
6.41667
 20
7.05556
 30
0.0
 40
0
 41
0
  0
VERTEX
  8
0
 10
6.68056
 20
7.05556
 30
0.0
 40
0
 41
0
  0
VERTEX
  8
0
 10
6.68056
 20
6.99306
 30
0.0
 40
0
 41
0
  0
SEQEND
 8
0
  0
POLYLINE
  8
0
 62
     0
 66
     1
 10
0
 20
0
 30
0.0
 70
     1
 40
0
 41
0
  0
VERTEX
  8
0
 10
7.27778
 20
6.99306
 30
0.0
 40
0
 41
0
  0
VERTEX
  8
0
 10
7.27778
 20
6.93056
 30
0.0
 40
0
 41
0
  0
VERTEX
  8
0
 10
7.01389
 20
6.93056
 30
0.0
 40
0
 41
0
  0
VERTEX
  8
0
 10
7.01389
 20
7.05556
 30
0.0
 40
0
 41
0
  0
VERTEX
  8
0
 10
7.27778
 20
7.05556
 30
0.0
 40
0
 41
0
  0
VERTEX
  8
0
 10
7.27778
 20
6.99306
 30
0.0
 40
0
 41
0
  0
SEQEND
 8
0
  0
POLYLINE
  8
0
 62
     0
 66
     1
 10
0
 20
0
 30
0.0
 70
     1
 40
0
 41
0
  0
VERTEX
  8
0
 10
7.86111
 20
6.99306
 30
0.0
 40
0
 41
0
  0
VERTEX
  8
0
 10
7.86111
 20
6.93056
 30
0.0
 40
0
 41
0
  0
VERTEX
  8
0
 10
7.59722
 20
6.93056
 30
0.0
 40
0
 41
0
  0
VERTEX
  8
0
 10
7.59722
 20
7.05556
 30
0.0
 40
0
 41
0
  0
VERTEX
  8
0
 10
7.86111
 20
7.05556
 30
0.0
 40
0
 41
0
  0
VERTEX
  8
0
 10
7.86111
 20
6.99306
 30
0.0
 40
0
 41
0
  0
SEQEND
 8
0
  0
POLYLINE
  8
0
 62
     0
 66
     1
 10
0
 20
0
 30
0.0
 70
     1
 40
0
 41
0
  0
VERTEX
  8
0
 10
8.45833
 20
6.99306
 30
0.0
 40
0
 41
0
  0
VERTEX
  8
0
 10
8.45833
 20
6.93056
 30
0.0
 40
0
 41
0
  0
VERTEX
  8
0
 10
8.19444
 20
6.93056
 30
0.0
 40
0
 41
0
  0
VERTEX
  8
0
 10
8.19444
 20
7.05556
 30
0.0
 40
0
 41
0
  0
VERTEX
  8
0
 10
8.45833
 20
7.05556
 30
0.0
 40
0
 41
0
  0
VERTEX
  8
0
 10
8.45833
 20
6.99306
 30
0.0
 40
0
 41
0
  0
SEQEND
 8
0
  0
POLYLINE
  8
0
 62
     0
 66
     1
 10
0
 20
0
 30
0.0
 70
     1
 40
0
 41
0
  0
VERTEX
  8
0
 10
9.04167
 20
6.99306
 30
0.0
 40
0
 41
0
  0
VERTEX
  8
0
 10
9.04167
 20
6.93056
 30
0.0
 40
0
 41
0
  0
VERTEX
  8
0
 10
8.77778
 20
6.93056
 30
0.0
 40
0
 41
0
  0
VERTEX
  8
0
 10
8.77778
 20
7.05556
 30
0.0
 40
0
 41
0
  0
VERTEX
  8
0
 10
9.04167
 20
7.05556
 30
0.0
 40
0
 41
0
  0
VERTEX
  8
0
 10
9.04167
 20
6.99306
 30
0.0
 40
0
 41
0
  0
SEQEND
 8
0
  0
POLYLINE
  8
0
 62
     0
 66
     1
 10
0
 20
0
 30
0.0
 70
     1
 40
0
 41
0
  0
VERTEX
  8
0
 10
9.94444
 20
6.54167
 30
0.0
 40
0
 41
0
  0
VERTEX
  8
0
 10
9.94444
 20
6.47222
 30
0.0
 40
0
 41
0
  0
VERTEX
  8
0
 10
10.0139
 20
6.47222
 30
0.0
 40
0
 41
0
  0
VERTEX
  8
0
 10
10.0229
 20
6.47222
 30
0.0
 40
0
 41
0
  0
VERTEX
  8
0
 10
10.0499
 20
6.47325
 30
0.0
 40
0
 41
0
  0
VERTEX
  8
0
 10
10.071
 20
6.47726
 30
0.0
 40
0
 41
0
  0
VERTEX
  8
0
 10
10.0808
 20
6.48574
 30
0.0
 40
0
 41
0
  0
VERTEX
  8
0
 10
10.0833
 20
6.49647
 30
0.0
 40
0
 41
0
  0
VERTEX
  8
0
 10
10.0833
 20
6.5
 30
0.0
 40
0
 41
0
  0
VERTEX
  8
0
 10
10.0833
 20
6.50347
 30
0.0
 40
0
 41
0
  0
VERTEX
  8
0
 10
10.0853
 20
6.51372
 30
0.0
 40
0
 41
0
  0
VERTEX
  8
0
 10
10.0922
 20
6.52225
 30
0.0
 40
0
 41
0
  0
VERTEX
  8
0
 10
10.105
 20
6.52658
 30
0.0
 40
0
 41
0
  0
VERTEX
  8
0
 10
10.12
 20
6.52778
 30
0.0
 40
0
 41
0
  0
VERTEX
  8
0
 10
10.125
 20
6.52778
 30
0.0
 40
0
 41
0
  0
VERTEX
  8
0
 10
10.13
 20
6.52778
 30
0.0
 40
0
 41
0
  0
VERTEX
  8
0
 10
10.145
 20
6.52658
 30
0.0
 40
0
 41
0
  0
VERTEX
  8
0
 10
10.1578
 20
6.52225
 30
0.0
 40
0
 41
0
  0
VERTEX
  8
0
 10
10.1646
 20
6.51372
 30
0.0
 40
0
 41
0
  0
VERTEX
  8
0
 10
10.1667
 20
6.50347
 30
0.0
 40
0
 41
0
  0
VERTEX
  8
0
 10
10.1667
 20
6.5
 30
0.0
 40
0
 41
0
  0
VERTEX
  8
0
 10
10.1667
 20
6.49647
 30
0.0
 40
0
 41
0
  0
VERTEX
  8
0
 10
10.169
 20
6.48574
 30
0.0
 40
0
 41
0
  0
VERTEX
  8
0
 10
10.1781
 20
6.47726
 30
0.0
 40
0
 41
0
  0
VERTEX
  8
0
 10
10.1971
 20
6.47325
 30
0.0
 40
0
 41
0
  0
VERTEX
  8
0
 10
10.2211
 20
6.47222
 30
0.0
 40
0
 41
0
  0
VERTEX
  8
0
 10
10.2292
 20
6.47222
 30
0.0
 40
0
 41
0
  0
VERTEX
  8
0
 10
10.2917
 20
6.47222
 30
0.0
 40
0
 41
0
  0
VERTEX
  8
0
 10
10.2917
 20
6.34722
 30
0.0
 40
0
 41
0
  0
VERTEX
  8
0
 10
10.2292
 20
6.34722
 30
0.0
 40
0
 41
0
  0
VERTEX
  8
0
 10
10.2207
 20
6.34722
 30
0.0
 40
0
 41
0
  0
VERTEX
  8
0
 10
10.1954
 20
6.34631
 30
0.0
 40
0
 41
0
  0
VERTEX
  8
0
 10
10.1765
 20
6.34185
 30
0.0
 40
0
 41
0
  0
VERTEX
  8
0
 10
10.1684
 20
6.33143
 30
0.0
 40
0
 41
0
  0
VERTEX
  8
0
 10
10.1667
 20
6.31728
 30
0.0
 40
0
 41
0
  0
VERTEX
  8
0
 10
10.1667
 20
6.3125
 30
0.0
 40
0
 41
0
  0
VERTEX
  8
0
 10
10.1667
 20
6.30811
 30
0.0
 40
0
 41
0
  0
VERTEX
  8
0
 10
10.165
 20
6.29482
 30
0.0
 40
0
 41
0
  0
VERTEX
  8
0
 10
10.1589
 20
6.28424
 30
0.0
 40
0
 41
0
  0
VERTEX
  8
0
 10
10.1462
 20
6.27914
 30
0.0
 40
0
 41
0
  0
VERTEX
  8
0
 10
10.1303
 20
6.27778
 30
0.0
 40
0
 41
0
  0
VERTEX
  8
0
 10
10.125
 20
6.27778
 30
0.0
 40
0
 41
0
  0
VERTEX
  8
0
 10
10.1197
 20
6.27778
 30
0.0
 40
0
 41
0
  0
VERTEX
  8
0
 10
10.1038
 20
6.27914
 30
0.0
 40
0
 41
0
  0
VERTEX
  8
0
 10
10.0912
 20
6.28424
 30
0.0
 40
0
 41
0
  0
VERTEX
  8
0
 10
10.085
 20
6.29482
 30
0.0
 40
0
 41
0
  0
VERTEX
  8
0
 10
10.0833
 20
6.30811
 30
0.0
 40
0
 41
0
  0
VERTEX
  8
0
 10
10.0833
 20
6.3125
 30
0.0
 40
0
 41
0
  0
VERTEX
  8
0
 10
10.0833
 20
6.31728
 30
0.0
 40
0
 41
0
  0
VERTEX
  8
0
 10
10.0817
 20
6.33143
 30
0.0
 40
0
 41
0
  0
VERTEX
  8
0
 10
10.0731
 20
6.34185
 30
0.0
 40
0
 41
0
  0
VERTEX
  8
0
 10
10.0523
 20
6.34631
 30
0.0
 40
0
 41
0
  0
VERTEX
  8
0
 10
10.0234
 20
6.34722
 30
0.0
 40
0
 41
0
  0
VERTEX
  8
0
 10
10.0139
 20
6.34722
 30
0.0
 40
0
 41
0
  0
VERTEX
  8
0
 10
9.94444
 20
6.34722
 30
0.0
 40
0
 41
0
  0
VERTEX
  8
0
 10
9.94444
 20
6.19444
 30
0.0
 40
0
 41
0
  0
VERTEX
  8
0
 10
9.80556
 20
6.19444
 30
0.0
 40
0
 41
0
  0
VERTEX
  8
0
 10
9.80556
 20
6.14583
 30
0.0
 40
0
 41
0
  0
VERTEX
  8
0
 10
9.80556
 20
6.13883
 30
0.0
 40
0
 41
0
  0
VERTEX
  8
0
 10
9.80458
 20
6.11774
 30
0.0
 40
0
 41
0
  0
VERTEX
  8
0
 10
9.79775
 20
6.10331
 30
0.0
 40
0
 41
0
  0
VERTEX
  8
0
 10
9.77919
 20
6.09799
 30
0.0
 40
0
 41
0
  0
VERTEX
  8
0
 10
9.75206
 20
6.09722
 30
0.0
 40
0
 41
0
  0
VERTEX
  8
0
 10
9.74306
 20
6.09722
 30
0.0
 40
0
 41
0
  0
VERTEX
  8
0
 10
9.68056
 20
6.09722
 30
0.0
 40
0
 41
0
  0
VERTEX
  8
0
 10
9.68056
 20
6.26389
 30
0.0
 40
0
 41
0
  0
VERTEX
  8
0
 10
9.61111
 20
6.26389
 30
0.0
 40
0
 41
0
  0
VERTEX
  8
0
 10
9.60206
 20
6.26389
 30
0.0
 40
0
 41
0
  0
VERTEX
  8
0
 10
9.57503
 20
6.26292
 30
0.0
 40
0
 41
0
  0
VERTEX
  8
0
 10
9.55399
 20
6.2589
 30
0.0
 40
0
 41
0
  0
VERTEX
  8
0
 10
9.54411
 20
6.25043
 30
0.0
 40
0
 41
0
  0
VERTEX
  8
0
 10
9.54167
 20
6.23969
 30
0.0
 40
0
 41
0
  0
VERTEX
  8
0
 10
9.54167
 20
6.23611
 30
0.0
 40
0
 41
0
  0
VERTEX
  8
0
 10
9.54167
 20
6.23269
 30
0.0
 40
0
 41
0
  0
VERTEX
  8
0
 10
9.53961
 20
6.22244
 30
0.0
 40
0
 41
0
  0
VERTEX
  8
0
 10
9.53276
 20
6.21392
 30
0.0
 40
0
 41
0
  0
VERTEX
  8
0
 10
9.51997
 20
6.20958
 30
0.0
 40
0
 41
0
  0
VERTEX
  8
0
 10
9.50499
 20
6.20833
 30
0.0
 40
0
 41
0
  0
VERTEX
  8
0
 10
9.5
 20
6.20833
 30
0.0
 40
0
 41
0
  0
VERTEX
  8
0
 10
9.49496
 20
6.20833
 30
0.0
 40
0
 41
0
  0
VERTEX
  8
0
 10
9.47999
 20
6.20958
 30
0.0
 40
0
 41
0
  0
VERTEX
  8
0
 10
9.46718
 20
6.21392
 30
0.0
 40
0
 41
0
  0
VERTEX
  8
0
 10
9.46035
 20
6.22244
 30
0.0
 40
0
 41
0
  0
VERTEX
  8
0
 10
9.45833
 20
6.23269
 30
0.0
 40
0
 41
0
  0
VERTEX
  8
0
 10
9.45833
 20
6.23611
 30
0.0
 40
0
 41
0
  0
VERTEX
  8
0
 10
9.45833
 20
6.23969
 30
0.0
 40
0
 41
0
  0
VERTEX
  8
0
 10
9.45594
 20
6.25043
 30
0.0
 40
0
 41
0
  0
VERTEX
  8
0
 10
9.44683
 20
6.2589
 30
0.0
 40
0
 41
0
  0
VERTEX
  8
0
 10
9.42785
 20
6.26292
 30
0.0
 40
0
 41
0
  0
VERTEX
  8
0
 10
9.40381
 20
6.26389
 30
0.0
 40
0
 41
0
  0
VERTEX
  8
0
 10
9.39583
 20
6.26389
 30
0.0
 40
0
 41
0
  0
VERTEX
  8
0
 10
9.33333
 20
6.26389
 30
0.0
 40
0
 41
0
  0
VERTEX
  8
0
 10
9.33333
 20
6.38889
 30
0.0
 40
0
 41
0
  0
VERTEX
  8
0
 10
9.39583
 20
6.38889
 30
0.0
 40
0
 41
0
  0
VERTEX
  8
0
 10
9.40424
 20
6.38889
 30
0.0
 40
0
 41
0
  0
VERTEX
  8
0
 10
9.42958
 20
6.38986
 30
0.0
 40
0
 41
0
  0
VERTEX
  8
0
 10
9.4484
 20
6.39432
 30
0.0
 40
0
 41
0
  0
VERTEX
  8
0
 10
9.45654
 20
6.40474
 30
0.0
 40
0
 41
0
  0
VERTEX
  8
0
 10
9.45833
 20
6.41889
 30
0.0
 40
0
 41
0
  0
VERTEX
  8
0
 10
9.45833
 20
6.42361
 30
0.0
 40
0
 41
0
  0
VERTEX
  8
0
 10
9.45833
 20
6.42806
 30
0.0
 40
0
 41
0
  0
VERTEX
  8
0
 10
9.45996
 20
6.44135
 30
0.0
 40
0
 41
0
  0
VERTEX
  8
0
 10
9.46615
 20
6.45193
 30
0.0
 40
0
 41
0
  0
VERTEX
  8
0
 10
9.47885
 20
6.45703
 30
0.0
 40
0
 41
0
  0
VERTEX
  8
0
 10
9.49468
 20
6.45833
 30
0.0
 40
0
 41
0
  0
VERTEX
  8
0
 10
9.5
 20
6.45833
 30
0.0
 40
0
 41
0
  0
VERTEX
  8
0
 10
9.50526
 20
6.45833
 30
0.0
 40
0
 41
0
  0
VERTEX
  8
0
 10
9.52115
 20
6.45703
 30
0.0
 40
0
 41
0
  0
VERTEX
  8
0
 10
9.53386
 20
6.45193
 30
0.0
 40
0
 41
0
  0
VERTEX
  8
0
 10
9.54004
 20
6.44135
 30
0.0
 40
0
 41
0
  0
VERTEX
  8
0
 10
9.54167
 20
6.42806
 30
0.0
 40
0
 41
0
  0
VERTEX
  8
0
 10
9.54167
 20
6.42361
 30
0.0
 40
0
 41
0
  0
VERTEX
  8
0
 10
9.54167
 20
6.41889
 30
0.0
 40
0
 41
0
  0
VERTEX
  8
0
 10
9.54329
 20
6.40474
 30
0.0
 40
0
 41
0
  0
VERTEX
  8
0
 10
9.55186
 20
6.39432
 30
0.0
 40
0
 41
0
  0
VERTEX
  8
0
 10
9.57269
 20
6.38986
 30
0.0
 40
0
 41
0
  0
VERTEX
  8
0
 10
9.60151
 20
6.38889
 30
0.0
 40
0
 41
0
  0
VERTEX
  8
0
 10
9.61111
 20
6.38889
 30
0.0
 40
0
 41
0
  0
VERTEX
  8
0
 10
9.68056
 20
6.38889
 30
0.0
 40
0
 41
0
  0
VERTEX
  8
0
 10
9.68056
 20
6.55556
 30
0.0
 40
0
 41
0
  0
VERTEX
  8
0
 10
9.75
 20
6.55556
 30
0.0
 40
0
 41
0
  0
VERTEX
  8
0
 10
9.759
 20
6.55556
 30
0.0
 40
0
 41
0
  0
VERTEX
  8
0
 10
9.78603
 20
6.55658
 30
0.0
 40
0
 41
0
  0
VERTEX
  8
0
 10
9.80707
 20
6.5606
 30
0.0
 40
0
 41
0
  0
VERTEX
  8
0
 10
9.81694
 20
6.56907
 30
0.0
 40
0
 41
0
  0
VERTEX
  8
0
 10
9.81944
 20
6.57981
 30
0.0
 40
0
 41
0
  0
VERTEX
  8
0
 10
9.81944
 20
6.58333
 30
0.0
 40
0
 41
0
  0
VERTEX
  8
0
 10
9.81944
 20
6.58692
 30
0.0
 40
0
 41
0
  0
VERTEX
  8
0
 10
9.82178
 20
6.59765
 30
0.0
 40
0
 41
0
  0
VERTEX
  8
0
 10
9.83089
 20
6.60612
 30
0.0
 40
0
 41
0
  0
VERTEX
  8
0
 10
9.84987
 20
6.61014
 30
0.0
 40
0
 41
0
  0
VERTEX
  8
0
 10
9.87392
 20
6.61111
 30
0.0
 40
0
 41
0
  0
VERTEX
  8
0
 10
9.88194
 20
6.61111
 30
0.0
 40
0
 41
0
  0
VERTEX
  8
0
 10
9.94444
 20
6.61111
 30
0.0
 40
0
 41
0
  0
VERTEX
  8
0
 10
9.94444
 20
6.54167
 30
0.0
 40
0
 41
0
  0
SEQEND
 8
0
  0
POLYLINE
  8
0
 62
     0
 66
     1
 10
0
 20
0
 30
0.0
 70
     1
 40
0
 41
0
  0
VERTEX
  8
0
 10
5.19444
 20
6.47222
 30
0.0
 40
0
 41
0
  0
VERTEX
  8
0
 10
5.19444
 20
6.38889
 30
0.0
 40
0
 41
0
  0
VERTEX
  8
0
 10
5.26389
 20
6.38889
 30
0.0
 40
0
 41
0
  0
VERTEX
  8
0
 10
5.27344
 20
6.38889
 30
0.0
 40
0
 41
0
  0
VERTEX
  8
0
 10
5.30225
 20
6.38986
 30
0.0
 40
0
 41
0
  0
VERTEX
  8
0
 10
5.32308
 20
6.39432
 30
0.0
 40
0
 41
0
  0
VERTEX
  8
0
 10
5.33165
 20
6.40474
 30
0.0
 40
0
 41
0
  0
VERTEX
  8
0
 10
5.33333
 20
6.41889
 30
0.0
 40
0
 41
0
  0
VERTEX
  8
0
 10
5.33333
 20
6.42361
 30
0.0
 40
0
 41
0
  0
VERTEX
  8
0
 10
5.33333
 20
6.42806
 30
0.0
 40
0
 41
0
  0
VERTEX
  8
0
 10
5.33496
 20
6.44135
 30
0.0
 40
0
 41
0
  0
VERTEX
  8
0
 10
5.34115
 20
6.45193
 30
0.0
 40
0
 41
0
  0
VERTEX
  8
0
 10
5.35385
 20
6.45703
 30
0.0
 40
0
 41
0
  0
VERTEX
  8
0
 10
5.36968
 20
6.45833
 30
0.0
 40
0
 41
0
  0
VERTEX
  8
0
 10
5.375
 20
6.45833
 30
0.0
 40
0
 41
0
  0
VERTEX
  8
0
 10
5.38026
 20
6.45833
 30
0.0
 40
0
 41
0
  0
VERTEX
  8
0
 10
5.39615
 20
6.45703
 30
0.0
 40
0
 41
0
  0
VERTEX
  8
0
 10
5.40886
 20
6.45193
 30
0.0
 40
0
 41
0
  0
VERTEX
  8
0
 10
5.41504
 20
6.44135
 30
0.0
 40
0
 41
0
  0
VERTEX
  8
0
 10
5.41667
 20
6.42806
 30
0.0
 40
0
 41
0
  0
VERTEX
  8
0
 10
5.41667
 20
6.42361
 30
0.0
 40
0
 41
0
  0
VERTEX
  8
0
 10
5.41667
 20
6.41889
 30
0.0
 40
0
 41
0
  0
VERTEX
  8
0
 10
5.4184
 20
6.40474
 30
0.0
 40
0
 41
0
  0
VERTEX
  8
0
 10
5.42654
 20
6.39432
 30
0.0
 40
0
 41
0
  0
VERTEX
  8
0
 10
5.44536
 20
6.38986
 30
0.0
 40
0
 41
0
  0
VERTEX
  8
0
 10
5.47071
 20
6.38889
 30
0.0
 40
0
 41
0
  0
VERTEX
  8
0
 10
5.47917
 20
6.38889
 30
0.0
 40
0
 41
0
  0
VERTEX
  8
0
 10
5.54167
 20
6.38889
 30
0.0
 40
0
 41
0
  0
VERTEX
  8
0
 10
5.54167
 20
6.26389
 30
0.0
 40
0
 41
0
  0
VERTEX
  8
0
 10
5.47917
 20
6.26389
 30
0.0
 40
0
 41
0
  0
VERTEX
  8
0
 10
5.47114
 20
6.26389
 30
0.0
 40
0
 41
0
  0
VERTEX
  8
0
 10
5.4471
 20
6.26292
 30
0.0
 40
0
 41
0
  0
VERTEX
  8
0
 10
5.42811
 20
6.2589
 30
0.0
 40
0
 41
0
  0
VERTEX
  8
0
 10
5.419
 20
6.25043
 30
0.0
 40
0
 41
0
  0
VERTEX
  8
0
 10
5.41667
 20
6.23969
 30
0.0
 40
0
 41
0
  0
VERTEX
  8
0
 10
5.41667
 20
6.23611
 30
0.0
 40
0
 41
0
  0
VERTEX
  8
0
 10
5.41667
 20
6.23269
 30
0.0
 40
0
 41
0
  0
VERTEX
  8
0
 10
5.41461
 20
6.22244
 30
0.0
 40
0
 41
0
  0
VERTEX
  8
0
 10
5.40776
 20
6.21392
 30
0.0
 40
0
 41
0
  0
VERTEX
  8
0
 10
5.39497
 20
6.20958
 30
0.0
 40
0
 41
0
  0
VERTEX
  8
0
 10
5.37999
 20
6.20833
 30
0.0
 40
0
 41
0
  0
VERTEX
  8
0
 10
5.375
 20
6.20833
 30
0.0
 40
0
 41
0
  0
VERTEX
  8
0
 10
5.36996
 20
6.20833
 30
0.0
 40
0
 41
0
  0
VERTEX
  8
0
 10
5.35499
 20
6.20958
 30
0.0
 40
0
 41
0
  0
VERTEX
  8
0
 10
5.34218
 20
6.21392
 30
0.0
 40
0
 41
0
  0
VERTEX
  8
0
 10
5.33535
 20
6.22244
 30
0.0
 40
0
 41
0
  0
VERTEX
  8
0
 10
5.33333
 20
6.23269
 30
0.0
 40
0
 41
0
  0
VERTEX
  8
0
 10
5.33333
 20
6.23611
 30
0.0
 40
0
 41
0
  0
VERTEX
  8
0
 10
5.33333
 20
6.23969
 30
0.0
 40
0
 41
0
  0
VERTEX
  8
0
 10
5.33083
 20
6.25043
 30
0.0
 40
0
 41
0
  0
VERTEX
  8
0
 10
5.32096
 20
6.2589
 30
0.0
 40
0
 41
0
  0
VERTEX
  8
0
 10
5.29992
 20
6.26292
 30
0.0
 40
0
 41
0
  0
VERTEX
  8
0
 10
5.27289
 20
6.26389
 30
0.0
 40
0
 41
0
  0
VERTEX
  8
0
 10
5.26389
 20
6.26389
 30
0.0
 40
0
 41
0
  0
VERTEX
  8
0
 10
5.19444
 20
6.26389
 30
0.0
 40
0
 41
0
  0
VERTEX
  8
0
 10
5.19444
 20
6.09722
 30
0.0
 40
0
 41
0
  0
VERTEX
  8
0
 10
4.93056
 20
6.09722
 30
0.0
 40
0
 41
0
  0
VERTEX
  8
0
 10
4.93056
 20
6.26389
 30
0.0
 40
0
 41
0
  0
VERTEX
  8
0
 10
4.86111
 20
6.26389
 30
0.0
 40
0
 41
0
  0
VERTEX
  8
0
 10
4.85206
 20
6.26389
 30
0.0
 40
0
 41
0
  0
VERTEX
  8
0
 10
4.82503
 20
6.26292
 30
0.0
 40
0
 41
0
  0
VERTEX
  8
0
 10
4.80399
 20
6.2589
 30
0.0
 40
0
 41
0
  0
VERTEX
  8
0
 10
4.79411
 20
6.25043
 30
0.0
 40
0
 41
0
  0
VERTEX
  8
0
 10
4.79167
 20
6.23969
 30
0.0
 40
0
 41
0
  0
VERTEX
  8
0
 10
4.79167
 20
6.23611
 30
0.0
 40
0
 41
0
  0
VERTEX
  8
0
 10
4.79167
 20
6.23269
 30
0.0
 40
0
 41
0
  0
VERTEX
  8
0
 10
4.78961
 20
6.22244
 30
0.0
 40
0
 41
0
  0
VERTEX
  8
0
 10
4.78276
 20
6.21392
 30
0.0
 40
0
 41
0
  0
VERTEX
  8
0
 10
4.76997
 20
6.20958
 30
0.0
 40
0
 41
0
  0
VERTEX
  8
0
 10
4.75499
 20
6.20833
 30
0.0
 40
0
 41
0
  0
VERTEX
  8
0
 10
4.75
 20
6.20833
 30
0.0
 40
0
 41
0
  0
VERTEX
  8
0
 10
4.74496
 20
6.20833
 30
0.0
 40
0
 41
0
  0
VERTEX
  8
0
 10
4.72999
 20
6.20958
 30
0.0
 40
0
 41
0
  0
VERTEX
  8
0
 10
4.71718
 20
6.21392
 30
0.0
 40
0
 41
0
  0
VERTEX
  8
0
 10
4.71035
 20
6.22244
 30
0.0
 40
0
 41
0
  0
VERTEX
  8
0
 10
4.70833
 20
6.23269
 30
0.0
 40
0
 41
0
  0
VERTEX
  8
0
 10
4.70833
 20
6.23611
 30
0.0
 40
0
 41
0
  0
VERTEX
  8
0
 10
4.70833
 20
6.23969
 30
0.0
 40
0
 41
0
  0
VERTEX
  8
0
 10
4.70594
 20
6.25043
 30
0.0
 40
0
 41
0
  0
VERTEX
  8
0
 10
4.69683
 20
6.2589
 30
0.0
 40
0
 41
0
  0
VERTEX
  8
0
 10
4.67785
 20
6.26292
 30
0.0
 40
0
 41
0
  0
VERTEX
  8
0
 10
4.65381
 20
6.26389
 30
0.0
 40
0
 41
0
  0
VERTEX
  8
0
 10
4.64583
 20
6.26389
 30
0.0
 40
0
 41
0
  0
VERTEX
  8
0
 10
4.58333
 20
6.26389
 30
0.0
 40
0
 41
0
  0
VERTEX
  8
0
 10
4.58333
 20
6.38889
 30
0.0
 40
0
 41
0
  0
VERTEX
  8
0
 10
4.64583
 20
6.38889
 30
0.0
 40
0
 41
0
  0
VERTEX
  8
0
 10
4.65424
 20
6.38889
 30
0.0
 40
0
 41
0
  0
VERTEX
  8
0
 10
4.67958
 20
6.38986
 30
0.0
 40
0
 41
0
  0
VERTEX
  8
0
 10
4.6984
 20
6.39432
 30
0.0
 40
0
 41
0
  0
VERTEX
  8
0
 10
4.70654
 20
6.40474
 30
0.0
 40
0
 41
0
  0
VERTEX
  8
0
 10
4.70833
 20
6.41889
 30
0.0
 40
0
 41
0
  0
VERTEX
  8
0
 10
4.70833
 20
6.42361
 30
0.0
 40
0
 41
0
  0
VERTEX
  8
0
 10
4.70833
 20
6.42806
 30
0.0
 40
0
 41
0
  0
VERTEX
  8
0
 10
4.70996
 20
6.44135
 30
0.0
 40
0
 41
0
  0
VERTEX
  8
0
 10
4.71615
 20
6.45193
 30
0.0
 40
0
 41
0
  0
VERTEX
  8
0
 10
4.72885
 20
6.45703
 30
0.0
 40
0
 41
0
  0
VERTEX
  8
0
 10
4.74468
 20
6.45833
 30
0.0
 40
0
 41
0
  0
VERTEX
  8
0
 10
4.75
 20
6.45833
 30
0.0
 40
0
 41
0
  0
VERTEX
  8
0
 10
4.75526
 20
6.45833
 30
0.0
 40
0
 41
0
  0
VERTEX
  8
0
 10
4.77115
 20
6.45703
 30
0.0
 40
0
 41
0
  0
VERTEX
  8
0
 10
4.78386
 20
6.45193
 30
0.0
 40
0
 41
0
  0
VERTEX
  8
0
 10
4.79004
 20
6.44135
 30
0.0
 40
0
 41
0
  0
VERTEX
  8
0
 10
4.79167
 20
6.42806
 30
0.0
 40
0
 41
0
  0
VERTEX
  8
0
 10
4.79167
 20
6.42361
 30
0.0
 40
0
 41
0
  0
VERTEX
  8
0
 10
4.79167
 20
6.41889
 30
0.0
 40
0
 41
0
  0
VERTEX
  8
0
 10
4.79329
 20
6.40474
 30
0.0
 40
0
 41
0
  0
VERTEX
  8
0
 10
4.80186
 20
6.39432
 30
0.0
 40
0
 41
0
  0
VERTEX
  8
0
 10
4.82269
 20
6.38986
 30
0.0
 40
0
 41
0
  0
VERTEX
  8
0
 10
4.85151
 20
6.38889
 30
0.0
 40
0
 41
0
  0
VERTEX
  8
0
 10
4.86111
 20
6.38889
 30
0.0
 40
0
 41
0
  0
VERTEX
  8
0
 10
4.93056
 20
6.38889
 30
0.0
 40
0
 41
0
  0
VERTEX
  8
0
 10
4.93056
 20
6.55556
 30
0.0
 40
0
 41
0
  0
VERTEX
  8
0
 10
5.19444
 20
6.55556
 30
0.0
 40
0
 41
0
  0
VERTEX
  8
0
 10
5.19444
 20
6.47222
 30
0.0
 40
0
 41
0
  0
SEQEND
 8
0
  0
POLYLINE
  8
0
 62
     0
 66
     1
 10
0
 20
0
 30
0.0
 70
     1
 40
0
 41
0
  0
VERTEX
  8
0
 10
4.18056
 20
5.66667
 30
0.0
 40
0
 41
0
  0
VERTEX
  8
0
 10
4.18056
 20
5.375
 30
0.0
 40
0
 41
0
  0
VERTEX
  8
0
 10
2.36111
 20
5.375
 30
0.0
 40
0
 41
0
  0
VERTEX
  8
0
 10
2.36111
 20
5.95833
 30
0.0
 40
0
 41
0
  0
VERTEX
  8
0
 10
4.18056
 20
5.95833
 30
0.0
 40
0
 41
0
  0
VERTEX
  8
0
 10
4.18056
 20
5.66667
 30
0.0
 40
0
 41
0
  0
SEQEND
 8
0
  0
POLYLINE
  8
0
 62
     0
 66
     1
 10
0
 20
0
 30
0.0
 70
     1
 40
0
 41
0
  0
VERTEX
  8
0
 10
9.94444
 20
5.74306
 30
0.0
 40
0
 41
0
  0
VERTEX
  8
0
 10
9.94444
 20
5.61111
 30
0.0
 40
0
 41
0
  0
VERTEX
  8
0
 10
9.80556
 20
5.61111
 30
0.0
 40
0
 41
0
  0
VERTEX
  8
0
 10
9.80556
 20
5.31944
 30
0.0
 40
0
 41
0
  0
VERTEX
  8
0
 10
9.68056
 20
5.31944
 30
0.0
 40
0
 41
0
  0
VERTEX
  8
0
 10
9.68056
 20
5.48611
 30
0.0
 40
0
 41
0
  0
VERTEX
  8
0
 10
9.61111
 20
5.48611
 30
0.0
 40
0
 41
0
  0
VERTEX
  8
0
 10
9.60151
 20
5.48611
 30
0.0
 40
0
 41
0
  0
VERTEX
  8
0
 10
9.57269
 20
5.48519
 30
0.0
 40
0
 41
0
  0
VERTEX
  8
0
 10
9.55186
 20
5.48074
 30
0.0
 40
0
 41
0
  0
VERTEX
  8
0
 10
9.54329
 20
5.47032
 30
0.0
 40
0
 41
0
  0
VERTEX
  8
0
 10
9.54167
 20
5.45617
 30
0.0
 40
0
 41
0
  0
VERTEX
  8
0
 10
9.54167
 20
5.45139
 30
0.0
 40
0
 41
0
  0
VERTEX
  8
0
 10
9.54167
 20
5.447
 30
0.0
 40
0
 41
0
  0
VERTEX
  8
0
 10
9.54004
 20
5.43371
 30
0.0
 40
0
 41
0
  0
VERTEX
  8
0
 10
9.53386
 20
5.42312
 30
0.0
 40
0
 41
0
  0
VERTEX
  8
0
 10
9.52115
 20
5.41803
 30
0.0
 40
0
 41
0
  0
VERTEX
  8
0
 10
9.50526
 20
5.41667
 30
0.0
 40
0
 41
0
  0
VERTEX
  8
0
 10
9.5
 20
5.41667
 30
0.0
 40
0
 41
0
  0
VERTEX
  8
0
 10
9.49468
 20
5.41667
 30
0.0
 40
0
 41
0
  0
VERTEX
  8
0
 10
9.47885
 20
5.41803
 30
0.0
 40
0
 41
0
  0
VERTEX
  8
0
 10
9.46615
 20
5.42312
 30
0.0
 40
0
 41
0
  0
VERTEX
  8
0
 10
9.45996
 20
5.43371
 30
0.0
 40
0
 41
0
  0
VERTEX
  8
0
 10
9.45833
 20
5.447
 30
0.0
 40
0
 41
0
  0
VERTEX
  8
0
 10
9.45833
 20
5.45139
 30
0.0
 40
0
 41
0
  0
VERTEX
  8
0
 10
9.45833
 20
5.45617
 30
0.0
 40
0
 41
0
  0
VERTEX
  8
0
 10
9.45654
 20
5.47032
 30
0.0
 40
0
 41
0
  0
VERTEX
  8
0
 10
9.4484
 20
5.48074
 30
0.0
 40
0
 41
0
  0
VERTEX
  8
0
 10
9.42958
 20
5.48519
 30
0.0
 40
0
 41
0
  0
VERTEX
  8
0
 10
9.40424
 20
5.48611
 30
0.0
 40
0
 41
0
  0
VERTEX
  8
0
 10
9.39583
 20
5.48611
 30
0.0
 40
0
 41
0
  0
VERTEX
  8
0
 10
9.33333
 20
5.48611
 30
0.0
 40
0
 41
0
  0
VERTEX
  8
0
 10
9.33333
 20
5.61111
 30
0.0
 40
0
 41
0
  0
VERTEX
  8
0
 10
9.39583
 20
5.61111
 30
0.0
 40
0
 41
0
  0
VERTEX
  8
0
 10
9.40381
 20
5.61111
 30
0.0
 40
0
 41
0
  0
VERTEX
  8
0
 10
9.42785
 20
5.61214
 30
0.0
 40
0
 41
0
  0
VERTEX
  8
0
 10
9.44683
 20
5.61615
 30
0.0
 40
0
 41
0
  0
VERTEX
  8
0
 10
9.45594
 20
5.62462
 30
0.0
 40
0
 41
0
  0
VERTEX
  8
0
 10
9.45833
 20
5.63536
 30
0.0
 40
0
 41
0
  0
VERTEX
  8
0
 10
9.45833
 20
5.63889
 30
0.0
 40
0
 41
0
  0
VERTEX
  8
0
 10
9.45833
 20
5.64236
 30
0.0
 40
0
 41
0
  0
VERTEX
  8
0
 10
9.46035
 20
5.65261
 30
0.0
 40
0
 41
0
  0
VERTEX
  8
0
 10
9.46718
 20
5.66114
 30
0.0
 40
0
 41
0
  0
VERTEX
  8
0
 10
9.47999
 20
5.66547
 30
0.0
 40
0
 41
0
  0
VERTEX
  8
0
 10
9.49496
 20
5.66667
 30
0.0
 40
0
 41
0
  0
VERTEX
  8
0
 10
9.5
 20
5.66667
 30
0.0
 40
0
 41
0
  0
VERTEX
  8
0
 10
9.50499
 20
5.66667
 30
0.0
 40
0
 41
0
  0
VERTEX
  8
0
 10
9.51997
 20
5.66547
 30
0.0
 40
0
 41
0
  0
VERTEX
  8
0
 10
9.53276
 20
5.66114
 30
0.0
 40
0
 41
0
  0
VERTEX
  8
0
 10
9.53961
 20
5.65261
 30
0.0
 40
0
 41
0
  0
VERTEX
  8
0
 10
9.54167
 20
5.64236
 30
0.0
 40
0
 41
0
  0
VERTEX
  8
0
 10
9.54167
 20
5.63889
 30
0.0
 40
0
 41
0
  0
VERTEX
  8
0
 10
9.54167
 20
5.63536
 30
0.0
 40
0
 41
0
  0
VERTEX
  8
0
 10
9.54411
 20
5.62462
 30
0.0
 40
0
 41
0
  0
VERTEX
  8
0
 10
9.55399
 20
5.61615
 30
0.0
 40
0
 41
0
  0
VERTEX
  8
0
 10
9.57503
 20
5.61214
 30
0.0
 40
0
 41
0
  0
VERTEX
  8
0
 10
9.60206
 20
5.61111
 30
0.0
 40
0
 41
0
  0
VERTEX
  8
0
 10
9.61111
 20
5.61111
 30
0.0
 40
0
 41
0
  0
VERTEX
  8
0
 10
9.68056
 20
5.61111
 30
0.0
 40
0
 41
0
  0
VERTEX
  8
0
 10
9.68056
 20
5.77778
 30
0.0
 40
0
 41
0
  0
VERTEX
  8
0
 10
9.81944
 20
5.77778
 30
0.0
 40
0
 41
0
  0
VERTEX
  8
0
 10
9.81944
 20
5.82639
 30
0.0
 40
0
 41
0
  0
VERTEX
  8
0
 10
9.81944
 20
5.83344
 30
0.0
 40
0
 41
0
  0
VERTEX
  8
0
 10
9.82042
 20
5.85449
 30
0.0
 40
0
 41
0
  0
VERTEX
  8
0
 10
9.82726
 20
5.86893
 30
0.0
 40
0
 41
0
  0
VERTEX
  8
0
 10
9.84581
 20
5.87424
 30
0.0
 40
0
 41
0
  0
VERTEX
  8
0
 10
9.87289
 20
5.875
 30
0.0
 40
0
 41
0
  0
VERTEX
  8
0
 10
9.88194
 20
5.875
 30
0.0
 40
0
 41
0
  0
VERTEX
  8
0
 10
9.94444
 20
5.875
 30
0.0
 40
0
 41
0
  0
VERTEX
  8
0
 10
9.94444
 20
5.74306
 30
0.0
 40
0
 41
0
  0
SEQEND
 8
0
  0
POLYLINE
  8
0
 62
     0
 66
     1
 10
0
 20
0
 30
0.0
 70
     1
 40
0
 41
0
  0
VERTEX
  8
0
 10
5.19444
 20
5.69444
 30
0.0
 40
0
 41
0
  0
VERTEX
  8
0
 10
5.19444
 20
5.61111
 30
0.0
 40
0
 41
0
  0
VERTEX
  8
0
 10
5.26389
 20
5.61111
 30
0.0
 40
0
 41
0
  0
VERTEX
  8
0
 10
5.27289
 20
5.61111
 30
0.0
 40
0
 41
0
  0
VERTEX
  8
0
 10
5.29992
 20
5.61214
 30
0.0
 40
0
 41
0
  0
VERTEX
  8
0
 10
5.32096
 20
5.61615
 30
0.0
 40
0
 41
0
  0
VERTEX
  8
0
 10
5.33083
 20
5.62462
 30
0.0
 40
0
 41
0
  0
VERTEX
  8
0
 10
5.33333
 20
5.63536
 30
0.0
 40
0
 41
0
  0
VERTEX
  8
0
 10
5.33333
 20
5.63889
 30
0.0
 40
0
 41
0
  0
VERTEX
  8
0
 10
5.33333
 20
5.64236
 30
0.0
 40
0
 41
0
  0
VERTEX
  8
0
 10
5.33535
 20
5.65261
 30
0.0
 40
0
 41
0
  0
VERTEX
  8
0
 10
5.34218
 20
5.66114
 30
0.0
 40
0
 41
0
  0
VERTEX
  8
0
 10
5.35499
 20
5.66547
 30
0.0
 40
0
 41
0
  0
VERTEX
  8
0
 10
5.36996
 20
5.66667
 30
0.0
 40
0
 41
0
  0
VERTEX
  8
0
 10
5.375
 20
5.66667
 30
0.0
 40
0
 41
0
  0
VERTEX
  8
0
 10
5.37999
 20
5.66667
 30
0.0
 40
0
 41
0
  0
VERTEX
  8
0
 10
5.39497
 20
5.66547
 30
0.0
 40
0
 41
0
  0
VERTEX
  8
0
 10
5.40776
 20
5.66114
 30
0.0
 40
0
 41
0
  0
VERTEX
  8
0
 10
5.41461
 20
5.65261
 30
0.0
 40
0
 41
0
  0
VERTEX
  8
0
 10
5.41667
 20
5.64236
 30
0.0
 40
0
 41
0
  0
VERTEX
  8
0
 10
5.41667
 20
5.63889
 30
0.0
 40
0
 41
0
  0
VERTEX
  8
0
 10
5.41667
 20
5.63536
 30
0.0
 40
0
 41
0
  0
VERTEX
  8
0
 10
5.419
 20
5.62462
 30
0.0
 40
0
 41
0
  0
VERTEX
  8
0
 10
5.42811
 20
5.61615
 30
0.0
 40
0
 41
0
  0
VERTEX
  8
0
 10
5.4471
 20
5.61214
 30
0.0
 40
0
 41
0
  0
VERTEX
  8
0
 10
5.47114
 20
5.61111
 30
0.0
 40
0
 41
0
  0
VERTEX
  8
0
 10
5.47917
 20
5.61111
 30
0.0
 40
0
 41
0
  0
VERTEX
  8
0
 10
5.54167
 20
5.61111
 30
0.0
 40
0
 41
0
  0
VERTEX
  8
0
 10
5.54167
 20
5.48611
 30
0.0
 40
0
 41
0
  0
VERTEX
  8
0
 10
5.47917
 20
5.48611
 30
0.0
 40
0
 41
0
  0
VERTEX
  8
0
 10
5.47071
 20
5.48611
 30
0.0
 40
0
 41
0
  0
VERTEX
  8
0
 10
5.44536
 20
5.48519
 30
0.0
 40
0
 41
0
  0
VERTEX
  8
0
 10
5.42654
 20
5.48074
 30
0.0
 40
0
 41
0
  0
VERTEX
  8
0
 10
5.4184
 20
5.47032
 30
0.0
 40
0
 41
0
  0
VERTEX
  8
0
 10
5.41667
 20
5.45617
 30
0.0
 40
0
 41
0
  0
VERTEX
  8
0
 10
5.41667
 20
5.45139
 30
0.0
 40
0
 41
0
  0
VERTEX
  8
0
 10
5.41667
 20
5.447
 30
0.0
 40
0
 41
0
  0
VERTEX
  8
0
 10
5.41504
 20
5.43371
 30
0.0
 40
0
 41
0
  0
VERTEX
  8
0
 10
5.40886
 20
5.42312
 30
0.0
 40
0
 41
0
  0
VERTEX
  8
0
 10
5.39615
 20
5.41803
 30
0.0
 40
0
 41
0
  0
VERTEX
  8
0
 10
5.38026
 20
5.41667
 30
0.0
 40
0
 41
0
  0
VERTEX
  8
0
 10
5.375
 20
5.41667
 30
0.0
 40
0
 41
0
  0
VERTEX
  8
0
 10
5.36968
 20
5.41667
 30
0.0
 40
0
 41
0
  0
VERTEX
  8
0
 10
5.35385
 20
5.41803
 30
0.0
 40
0
 41
0
  0
VERTEX
  8
0
 10
5.34115
 20
5.42312
 30
0.0
 40
0
 41
0
  0
VERTEX
  8
0
 10
5.33496
 20
5.43371
 30
0.0
 40
0
 41
0
  0
VERTEX
  8
0
 10
5.33333
 20
5.447
 30
0.0
 40
0
 41
0
  0
VERTEX
  8
0
 10
5.33333
 20
5.45139
 30
0.0
 40
0
 41
0
  0
VERTEX
  8
0
 10
5.33333
 20
5.45617
 30
0.0
 40
0
 41
0
  0
VERTEX
  8
0
 10
5.33165
 20
5.47032
 30
0.0
 40
0
 41
0
  0
VERTEX
  8
0
 10
5.32308
 20
5.48074
 30
0.0
 40
0
 41
0
  0
VERTEX
  8
0
 10
5.30225
 20
5.48519
 30
0.0
 40
0
 41
0
  0
VERTEX
  8
0
 10
5.27344
 20
5.48611
 30
0.0
 40
0
 41
0
  0
VERTEX
  8
0
 10
5.26389
 20
5.48611
 30
0.0
 40
0
 41
0
  0
VERTEX
  8
0
 10
5.19444
 20
5.48611
 30
0.0
 40
0
 41
0
  0
VERTEX
  8
0
 10
5.19444
 20
5.31944
 30
0.0
 40
0
 41
0
  0
VERTEX
  8
0
 10
4.93056
 20
5.31944
 30
0.0
 40
0
 41
0
  0
VERTEX
  8
0
 10
4.93056
 20
5.48611
 30
0.0
 40
0
 41
0
  0
VERTEX
  8
0
 10
4.86111
 20
5.48611
 30
0.0
 40
0
 41
0
  0
VERTEX
  8
0
 10
4.85151
 20
5.48611
 30
0.0
 40
0
 41
0
  0
VERTEX
  8
0
 10
4.82269
 20
5.48519
 30
0.0
 40
0
 41
0
  0
VERTEX
  8
0
 10
4.80186
 20
5.48074
 30
0.0
 40
0
 41
0
  0
VERTEX
  8
0
 10
4.79329
 20
5.47032
 30
0.0
 40
0
 41
0
  0
VERTEX
  8
0
 10
4.79167
 20
5.45617
 30
0.0
 40
0
 41
0
  0
VERTEX
  8
0
 10
4.79167
 20
5.45139
 30
0.0
 40
0
 41
0
  0
VERTEX
  8
0
 10
4.79167
 20
5.447
 30
0.0
 40
0
 41
0
  0
VERTEX
  8
0
 10
4.79004
 20
5.43371
 30
0.0
 40
0
 41
0
  0
VERTEX
  8
0
 10
4.78386
 20
5.42312
 30
0.0
 40
0
 41
0
  0
VERTEX
  8
0
 10
4.77115
 20
5.41803
 30
0.0
 40
0
 41
0
  0
VERTEX
  8
0
 10
4.75526
 20
5.41667
 30
0.0
 40
0
 41
0
  0
VERTEX
  8
0
 10
4.75
 20
5.41667
 30
0.0
 40
0
 41
0
  0
VERTEX
  8
0
 10
4.74468
 20
5.41667
 30
0.0
 40
0
 41
0
  0
VERTEX
  8
0
 10
4.72885
 20
5.41803
 30
0.0
 40
0
 41
0
  0
VERTEX
  8
0
 10
4.71615
 20
5.42312
 30
0.0
 40
0
 41
0
  0
VERTEX
  8
0
 10
4.70996
 20
5.43371
 30
0.0
 40
0
 41
0
  0
VERTEX
  8
0
 10
4.70833
 20
5.447
 30
0.0
 40
0
 41
0
  0
VERTEX
  8
0
 10
4.70833
 20
5.45139
 30
0.0
 40
0
 41
0
  0
VERTEX
  8
0
 10
4.70833
 20
5.45617
 30
0.0
 40
0
 41
0
  0
VERTEX
  8
0
 10
4.70654
 20
5.47032
 30
0.0
 40
0
 41
0
  0
VERTEX
  8
0
 10
4.6984
 20
5.48074
 30
0.0
 40
0
 41
0
  0
VERTEX
  8
0
 10
4.67958
 20
5.48519
 30
0.0
 40
0
 41
0
  0
VERTEX
  8
0
 10
4.65424
 20
5.48611
 30
0.0
 40
0
 41
0
  0
VERTEX
  8
0
 10
4.64583
 20
5.48611
 30
0.0
 40
0
 41
0
  0
VERTEX
  8
0
 10
4.58333
 20
5.48611
 30
0.0
 40
0
 41
0
  0
VERTEX
  8
0
 10
4.58333
 20
5.61111
 30
0.0
 40
0
 41
0
  0
VERTEX
  8
0
 10
4.64583
 20
5.61111
 30
0.0
 40
0
 41
0
  0
VERTEX
  8
0
 10
4.65381
 20
5.61111
 30
0.0
 40
0
 41
0
  0
VERTEX
  8
0
 10
4.67785
 20
5.61214
 30
0.0
 40
0
 41
0
  0
VERTEX
  8
0
 10
4.69683
 20
5.61615
 30
0.0
 40
0
 41
0
  0
VERTEX
  8
0
 10
4.70594
 20
5.62462
 30
0.0
 40
0
 41
0
  0
VERTEX
  8
0
 10
4.70833
 20
5.63536
 30
0.0
 40
0
 41
0
  0
VERTEX
  8
0
 10
4.70833
 20
5.63889
 30
0.0
 40
0
 41
0
  0
VERTEX
  8
0
 10
4.70833
 20
5.64236
 30
0.0
 40
0
 41
0
  0
VERTEX
  8
0
 10
4.71035
 20
5.65261
 30
0.0
 40
0
 41
0
  0
VERTEX
  8
0
 10
4.71718
 20
5.66114
 30
0.0
 40
0
 41
0
  0
VERTEX
  8
0
 10
4.72999
 20
5.66547
 30
0.0
 40
0
 41
0
  0
VERTEX
  8
0
 10
4.74496
 20
5.66667
 30
0.0
 40
0
 41
0
  0
VERTEX
  8
0
 10
4.75
 20
5.66667
 30
0.0
 40
0
 41
0
  0
VERTEX
  8
0
 10
4.75499
 20
5.66667
 30
0.0
 40
0
 41
0
  0
VERTEX
  8
0
 10
4.76997
 20
5.66547
 30
0.0
 40
0
 41
0
  0
VERTEX
  8
0
 10
4.78276
 20
5.66114
 30
0.0
 40
0
 41
0
  0
VERTEX
  8
0
 10
4.78961
 20
5.65261
 30
0.0
 40
0
 41
0
  0
VERTEX
  8
0
 10
4.79167
 20
5.64236
 30
0.0
 40
0
 41
0
  0
VERTEX
  8
0
 10
4.79167
 20
5.63889
 30
0.0
 40
0
 41
0
  0
VERTEX
  8
0
 10
4.79167
 20
5.63536
 30
0.0
 40
0
 41
0
  0
VERTEX
  8
0
 10
4.79411
 20
5.62462
 30
0.0
 40
0
 41
0
  0
VERTEX
  8
0
 10
4.80399
 20
5.61615
 30
0.0
 40
0
 41
0
  0
VERTEX
  8
0
 10
4.82503
 20
5.61214
 30
0.0
 40
0
 41
0
  0
VERTEX
  8
0
 10
4.85206
 20
5.61111
 30
0.0
 40
0
 41
0
  0
VERTEX
  8
0
 10
4.86111
 20
5.61111
 30
0.0
 40
0
 41
0
  0
VERTEX
  8
0
 10
4.93056
 20
5.61111
 30
0.0
 40
0
 41
0
  0
VERTEX
  8
0
 10
4.93056
 20
5.77778
 30
0.0
 40
0
 41
0
  0
VERTEX
  8
0
 10
5.19444
 20
5.77778
 30
0.0
 40
0
 41
0
  0
VERTEX
  8
0
 10
5.19444
 20
5.69444
 30
0.0
 40
0
 41
0
  0
SEQEND
 8
0
  0
POLYLINE
  8
0
 62
     0
 66
     1
 10
0
 20
0
 30
0.0
 70
     1
 40
0
 41
0
  0
VERTEX
  8
0
 10
9.94444
 20
5.15278
 30
0.0
 40
0
 41
0
  0
VERTEX
  8
0
 10
9.94444
 20
5.01389
 30
0.0
 40
0
 41
0
  0
VERTEX
  8
0
 10
9.81944
 20
5.01389
 30
0.0
 40
0
 41
0
  0
VERTEX
  8
0
 10
9.81944
 20
5.29167
 30
0.0
 40
0
 41
0
  0
VERTEX
  8
0
 10
9.94444
 20
5.29167
 30
0.0
 40
0
 41
0
  0
VERTEX
  8
0
 10
9.94444
 20
5.15278
 30
0.0
 40
0
 41
0
  0
SEQEND
 8
0
  0
ENDSEC
  0
EOF
