<?xml version="1.0" standalone="no"?>
<!DOCTYPE svg PUBLIC "-//W3C//DTD SVG 20010904//EN"
 "http://www.w3.org/TR/2001/REC-SVG-20010904/DTD/svg10.dtd">
<svg version="1.0" xmlns="http://www.w3.org/2000/svg"
 width="1000.000000pt" height="891.000000pt" viewBox="0 0 1000.000000 891.000000"
 preserveAspectRatio="xMidYMid meet">
<metadata>
Created by potrace 1.15, written by Peter Selinger 2001-2017
</metadata>
<g transform="translate(0.000000,891.000000) scale(0.100000,-0.100000)"
fill="#000000" stroke="none">
<path d="M320 8535 l0 -155 -50 0 -50 0 0 -55 0 -55 65 0 65 0 0 -55 0 -55
-65 0 -65 0 0 -60 0 -60 50 0 50 0 0 -95 0 -95 -50 0 -50 0 0 -115 0 -115 50
0 50 0 0 -95 0 -95 -50 0 -50 0 0 -120 0 -120 50 0 50 0 0 -95 0 -95 -50 0
-50 0 0 -115 0 -115 50 0 50 0 0 -95 0 -95 -50 0 -50 0 0 -120 0 -120 50 0 50
0 0 -95 0 -95 -50 0 -50 0 0 -115 0 -115 50 0 50 0 0 -95 0 -95 -50 0 -50 0 0
-60 0 -60 65 0 65 0 0 -55 0 -55 -65 0 -65 0 0 -55 0 -55 50 0 50 0 0 -155 0
-155 85 0 85 0 0 -45 0 -45 -135 0 -135 0 0 -135 0 -135 50 0 50 0 0 -60 0
-60 50 0 c47 0 50 2 50 25 0 21 5 25 30 25 25 0 30 -4 30 -25 0 -23 4 -25 45
-25 l45 0 0 -45 0 -45 -45 0 c-38 0 -45 -3 -45 -20 0 -16 -7 -20 -30 -20 -23
0 -30 4 -30 20 0 17 -7 20 -50 20 l-50 0 0 -60 0 -60 -50 0 -50 0 0 -115 0
-115 50 0 50 0 0 -60 0 -60 50 0 c43 0 50 3 50 20 0 16 7 20 30 20 23 0 30 -4
30 -20 0 -17 7 -20 45 -20 l45 0 0 -45 0 -45 -45 0 c-41 0 -45 -2 -45 -25 0
-21 -5 -25 -30 -25 -25 0 -30 4 -30 25 0 23 -3 25 -50 25 l-50 0 0 -60 0 -60
-50 0 -50 0 0 -135 0 -135 135 0 135 0 0 -50 0 -50 40 0 40 0 0 65 0 65 60 0
60 0 0 -65 0 -65 45 0 45 0 0 50 0 50 95 0 95 0 0 -50 0 -50 115 0 115 0 0 50
0 50 95 0 95 0 0 -50 0 -50 120 0 120 0 0 50 0 50 95 0 95 0 0 -50 0 -50 115
0 115 0 0 50 0 50 95 0 95 0 0 -50 0 -50 120 0 120 0 0 50 0 50 95 0 95 0 0
-50 0 -50 115 0 115 0 0 50 0 50 95 0 95 0 0 -50 0 -50 45 0 45 0 0 65 0 65
60 0 60 0 0 -65 0 -65 40 0 40 0 0 50 0 50 265 0 265 0 0 -50 0 -50 40 0 40 0
0 65 0 65 60 0 60 0 0 -65 0 -65 45 0 45 0 0 50 0 50 95 0 95 0 0 -50 0 -50
115 0 115 0 0 50 0 50 95 0 95 0 0 -50 0 -50 120 0 120 0 0 50 0 50 95 0 95 0
0 -50 0 -50 115 0 115 0 0 50 0 50 95 0 95 0 0 -50 0 -50 120 0 120 0 0 50 0
50 95 0 95 0 0 -50 0 -50 115 0 115 0 0 50 0 50 95 0 95 0 0 -50 0 -50 45 0
45 0 0 65 0 65 60 0 60 0 0 -65 0 -65 40 0 40 0 0 50 0 50 130 0 130 0 0 -90
0 -90 50 0 50 0 0 -95 0 -95 -50 0 -50 0 0 -115 0 -115 50 0 50 0 0 -100 0
-100 -50 0 -50 0 0 -115 0 -115 50 0 50 0 0 -95 0 -95 -50 0 -50 0 0 -115 0
-115 50 0 50 0 0 -55 0 -55 50 0 c47 0 50 2 50 25 0 21 5 25 30 25 25 0 30 -4
30 -25 0 -23 4 -25 45 -25 l45 0 0 -45 0 -45 -45 0 c-38 0 -45 -3 -45 -20 0
-16 -7 -20 -30 -20 -23 0 -30 4 -30 20 0 17 -7 20 -50 20 l-50 0 0 -50 0 -50
-50 0 -50 0 0 -115 0 -115 175 0 175 0 0 -50 0 -50 65 0 65 0 0 65 0 65 55 0
55 0 0 -65 0 -65 65 0 65 0 0 50 0 50 95 0 95 0 0 -50 0 -50 65 0 65 0 0 65 0
65 55 0 55 0 0 -65 0 -65 65 0 65 0 0 50 0 50 175 0 175 0 0 115 0 115 -50 0
-50 0 0 50 0 50 -50 0 c-43 0 -50 -3 -50 -20 0 -16 -7 -20 -30 -20 -23 0 -30
4 -30 20 0 17 -7 20 -45 20 l-45 0 0 45 0 45 45 0 c41 0 45 2 45 25 0 21 5 25
30 25 25 0 30 -4 30 -25 0 -23 3 -25 50 -25 l50 0 0 55 0 55 50 0 50 0 0 115
0 115 -50 0 -50 0 0 95 0 95 50 0 50 0 0 115 0 115 -50 0 -50 0 0 100 0 100
50 0 50 0 0 115 0 115 -50 0 -50 0 0 95 0 95 50 0 50 0 0 115 0 115 -50 0 -50
0 0 100 0 100 50 0 50 0 0 115 0 115 -50 0 -50 0 0 95 0 95 50 0 50 0 0 115 0
115 -50 0 -50 0 0 55 0 55 -50 0 c-47 0 -50 -2 -50 -25 0 -21 -5 -25 -30 -25
-25 0 -30 4 -30 25 0 23 -4 25 -45 25 l-45 0 0 45 0 45 45 0 c38 0 45 3 45 20
0 16 7 20 30 20 23 0 30 -4 30 -20 0 -17 7 -20 50 -20 l50 0 0 50 0 50 50 0
50 0 0 115 0 115 -175 0 -175 0 0 95 0 95 175 0 175 0 0 115 0 115 -50 0 -50
0 0 50 0 50 -50 0 c-43 0 -50 -3 -50 -20 0 -16 -7 -20 -30 -20 -23 0 -30 4
-30 20 0 17 -7 20 -45 20 l-45 0 0 45 0 45 45 0 c41 0 45 2 45 25 0 21 5 25
30 25 25 0 30 -4 30 -25 0 -23 3 -25 50 -25 l50 0 0 55 0 55 50 0 50 0 0 115
0 115 -50 0 -50 0 0 95 0 95 50 0 50 0 0 115 0 115 -50 0 -50 0 0 100 0 100
50 0 50 0 0 115 0 115 -50 0 -50 0 0 95 0 95 50 0 50 0 0 115 0 115 -50 0 -50
0 0 100 0 100 50 0 50 0 0 115 0 115 -50 0 -50 0 0 95 0 95 50 0 50 0 0 115 0
115 -50 0 -50 0 0 55 0 55 -50 0 c-47 0 -50 -2 -50 -25 0 -21 -5 -25 -30 -25
-25 0 -30 4 -30 25 0 23 -4 25 -45 25 l-45 0 0 45 0 45 45 0 c38 0 45 3 45 20
0 16 7 20 30 20 23 0 30 -4 30 -20 0 -17 7 -20 50 -20 l50 0 0 50 0 50 50 0
50 0 0 115 0 115 -175 0 -175 0 0 50 0 50 -65 0 -65 0 0 -65 0 -65 -55 0 -55
0 0 65 0 65 -65 0 -65 0 0 -50 0 -50 -95 0 -95 0 0 50 0 50 -65 0 -65 0 0 -65
0 -65 -55 0 -55 0 0 65 0 65 -65 0 -65 0 0 -50 0 -50 -175 0 -175 0 0 -105 0
-105 -45 0 -45 0 0 155 0 155 -95 0 -95 0 0 -50 0 -50 -40 0 -40 0 0 -50 c0
-47 2 -50 25 -50 21 0 25 -5 25 -30 0 -25 -4 -30 -25 -30 -23 0 -25 -4 -25
-45 l0 -45 -45 0 -45 0 0 45 c0 38 -3 45 -20 45 -16 0 -20 7 -20 30 0 23 4 30
20 30 17 0 20 7 20 50 l0 50 -40 0 -40 0 0 50 0 50 -115 0 -115 0 0 -50 0 -50
-95 0 -95 0 0 50 0 50 -115 0 -115 0 0 -50 0 -50 -100 0 -100 0 0 50 0 50
-115 0 -115 0 0 -50 0 -50 -95 0 -95 0 0 50 0 50 -115 0 -115 0 0 -50 0 -50
-100 0 -100 0 0 50 0 50 -115 0 -115 0 0 -50 0 -50 -95 0 -95 0 0 50 0 50
-115 0 -115 0 0 -50 0 -50 -40 0 -40 0 0 -50 c0 -43 3 -50 20 -50 16 0 20 -7
20 -30 0 -23 -4 -30 -20 -30 -17 0 -20 -7 -20 -45 l0 -45 -45 0 -45 0 0 45 c0
41 -2 45 -25 45 -21 0 -25 5 -25 30 0 25 4 30 25 30 23 0 25 3 25 50 l0 50
-40 0 -40 0 0 50 0 50 -95 0 -95 0 0 -155 0 -155 -95 0 -95 0 0 155 0 155 -95
0 -95 0 0 -50 0 -50 -40 0 -40 0 0 -50 c0 -47 2 -50 25 -50 21 0 25 -5 25 -30
0 -25 -4 -30 -25 -30 -23 0 -25 -4 -25 -45 l0 -45 -45 0 -45 0 0 45 c0 38 -3
45 -20 45 -16 0 -20 7 -20 30 0 23 4 30 20 30 17 0 20 7 20 50 l0 50 -40 0
-40 0 0 50 0 50 -115 0 -115 0 0 -50 0 -50 -95 0 -95 0 0 50 0 50 -115 0 -115
0 0 -50 0 -50 -100 0 -100 0 0 50 0 50 -115 0 -115 0 0 -50 0 -50 -95 0 -95 0
0 50 0 50 -115 0 -115 0 0 -50 0 -50 -100 0 -100 0 0 50 0 50 -115 0 -115 0 0
-50 0 -50 -95 0 -95 0 0 50 0 50 -115 0 -115 0 0 -50 0 -50 -40 0 -40 0 0 -50
c0 -43 3 -50 20 -50 16 0 20 -7 20 -30 0 -23 -4 -30 -20 -30 -17 0 -20 -7 -20
-45 l0 -45 -45 0 -45 0 0 45 c0 41 -2 45 -25 45 -21 0 -25 5 -25 30 0 25 4 30
25 30 23 0 25 3 25 50 l0 50 -40 0 -40 0 0 50 0 50 -95 0 -95 0 0 -155z m6840
-225 l0 -50 50 0 c43 0 50 3 50 20 0 16 7 20 30 20 23 0 30 -4 30 -20 0 -17 7
-20 45 -20 l45 0 0 -45 0 -45 -45 0 c-41 0 -45 -2 -45 -25 0 -21 -5 -25 -30
-25 -25 0 -30 4 -30 25 0 23 -3 25 -50 25 l-50 0 0 -55 0 -55 -45 0 -45 0 0
50 0 50 -65 0 -65 0 0 55 0 55 65 0 65 0 0 45 0 45 45 0 45 0 0 -50z m-3390
-95 l0 -55 -125 0 -125 0 0 55 0 55 125 0 125 0 0 -55z m-30 -270 l0 -95 -95
0 -95 0 0 95 0 95 95 0 95 0 0 -95z m3320 0 l0 -95 -45 0 -45 0 0 95 0 95 45
0 45 0 0 -95z m100 -210 l0 -95 -45 0 -45 0 0 95 0 95 45 0 45 0 0 -95z
m-3420 -210 l0 -95 -95 0 -95 0 0 95 0 95 95 0 95 0 0 -95z m3320 0 l0 -95
-45 0 -45 0 0 95 0 95 45 0 45 0 0 -95z m100 -215 l0 -100 -45 0 -45 0 0 100
0 100 45 0 45 0 0 -100z m-3420 -215 l0 -95 -95 0 -95 0 0 95 0 95 95 0 95 0
0 -95z m3320 0 l0 -95 -45 0 -45 0 0 95 0 95 45 0 45 0 0 -95z m100 -210 l0
-95 -45 0 -45 0 0 95 0 95 45 0 45 0 0 -95z m-3420 -210 l0 -95 -95 0 -95 0 0
95 0 95 95 0 95 0 0 -95z m3320 0 l0 -95 -45 0 -45 0 0 95 0 95 45 0 45 0 0
-95z m100 -215 l0 -100 -45 0 -45 0 0 100 0 100 45 0 45 0 0 -100z m-3420
-215 l0 -95 -95 0 -95 0 0 95 0 95 95 0 95 0 0 -95z m3320 0 l0 -95 -45 0 -45
0 0 95 0 95 45 0 45 0 0 -95z m100 -210 l0 -95 -45 0 -45 0 0 95 0 95 45 0 45
0 0 -95z m-3420 -210 l0 -95 -95 0 -95 0 0 95 0 95 95 0 95 0 0 -95z m3320 0
l0 -95 -45 0 -45 0 0 95 0 95 45 0 45 0 0 -95z m100 -170 l0 -55 50 0 c47 0
50 2 50 25 0 21 5 25 30 25 25 0 30 -4 30 -25 0 -23 4 -25 45 -25 l45 0 0 -45
0 -45 -45 0 c-38 0 -45 -3 -45 -20 0 -16 -7 -20 -30 -20 -23 0 -30 4 -30 20 0
17 -7 20 -50 20 l-50 0 0 -50 0 -50 -45 0 -45 0 0 45 0 45 -65 0 -65 0 0 55 0
55 65 0 65 0 0 50 0 50 45 0 45 0 0 -55z m-3390 -100 l0 -55 -125 0 -125 0 0
55 0 55 125 0 125 0 0 -55z m-3090 -170 c0 -38 3 -45 20 -45 16 0 20 -7 20
-30 0 -23 -4 -30 -20 -30 -17 0 -20 -7 -20 -50 l0 -50 40 0 40 0 0 -45 c0 -45
0 -45 -35 -45 l-35 0 0 -65 0 -65 -60 0 -60 0 0 65 0 65 -30 0 c-29 0 -30 2
-30 45 l0 45 40 0 40 0 0 50 c0 47 -2 50 -25 50 -21 0 -25 5 -25 30 0 25 4 30
25 30 23 0 25 4 25 45 l0 45 45 0 45 0 0 -45z m2600 0 c0 -41 2 -45 25 -45 21
0 25 -5 25 -30 0 -25 -4 -30 -25 -30 -23 0 -25 -3 -25 -50 l0 -50 40 0 40 0 0
-45 c0 -43 -1 -45 -30 -45 l-30 0 0 -65 0 -65 -60 0 -60 0 0 65 0 65 -35 0
c-35 0 -35 0 -35 45 l0 45 40 0 40 0 0 50 c0 43 -3 50 -20 50 -16 0 -20 7 -20
30 0 23 4 30 20 30 17 0 20 7 20 45 l0 45 45 0 45 0 0 -45z m820 0 c0 -38 3
-45 20 -45 16 0 20 -7 20 -30 0 -23 -4 -30 -20 -30 -17 0 -20 -7 -20 -50 l0
-50 40 0 40 0 0 -45 c0 -45 0 -45 -35 -45 l-35 0 0 -65 0 -65 -60 0 -60 0 0
65 0 65 -30 0 c-29 0 -30 2 -30 45 l0 45 40 0 40 0 0 50 c0 47 -2 50 -25 50
-21 0 -25 5 -25 30 0 25 4 30 25 30 23 0 25 4 25 45 l0 45 45 0 45 0 0 -45z
m2600 0 c0 -41 2 -45 25 -45 21 0 25 -5 25 -30 0 -25 -4 -30 -25 -30 -23 0
-25 -3 -25 -50 l0 -50 40 0 40 0 0 -45 c0 -43 -1 -45 -30 -45 l-30 0 0 -65 0
-65 -60 0 -60 0 0 65 0 65 -35 0 c-35 0 -35 0 -35 45 l0 45 40 0 40 0 0 50 c0
43 -3 50 -20 50 -16 0 -20 7 -20 30 0 23 4 30 20 30 17 0 20 7 20 45 l0 45 45
0 45 0 0 -45z m-2960 -150 l0 -155 85 0 85 0 0 -45 0 -45 -265 0 -265 0 0 45
0 45 85 0 85 0 0 155 0 155 95 0 95 0 0 -155z m3320 50 l0 -105 175 0 175 0 0
-95 0 -95 -305 0 -305 0 0 45 0 45 85 0 85 0 0 155 0 155 45 0 45 0 0 -105z
m590 -200 l0 -125 -55 0 -55 0 0 125 0 125 55 0 55 0 0 -125z m560 0 l0 -125
-55 0 -55 0 0 125 0 125 55 0 55 0 0 -125z m-7030 50 l0 -45 -95 0 -95 0 0 45
0 45 95 0 95 0 0 -45z m430 0 l0 -45 -100 0 -100 0 0 45 0 45 100 0 100 0 0
-45z m420 0 l0 -45 -95 0 -95 0 0 45 0 45 95 0 95 0 0 -45z m430 0 l0 -45
-100 0 -100 0 0 45 0 45 100 0 100 0 0 -45z m420 0 l0 -45 -95 0 -95 0 0 45 0
45 95 0 95 0 0 -45z m1720 0 l0 -45 -95 0 -95 0 0 45 0 45 95 0 95 0 0 -45z
m430 0 l0 -45 -100 0 -100 0 0 45 0 45 100 0 100 0 0 -45z m420 0 l0 -45 -95
0 -95 0 0 45 0 45 95 0 95 0 0 -45z m430 0 l0 -45 -100 0 -100 0 0 45 0 45
100 0 100 0 0 -45z m420 0 l0 -45 -95 0 -95 0 0 45 0 45 95 0 95 0 0 -45z
m1670 -50 l0 -95 -95 0 -95 0 0 95 0 95 95 0 95 0 0 -95z m-7000 -50 l0 -45
-95 0 -95 0 0 45 0 45 95 0 95 0 0 -45z m420 0 l0 -45 -95 0 -95 0 0 45 0 45
95 0 95 0 0 -45z m430 0 l0 -45 -95 0 -95 0 0 45 0 45 95 0 95 0 0 -45z m420
0 l0 -45 -95 0 -95 0 0 45 0 45 95 0 95 0 0 -45z m430 0 l0 -45 -95 0 -95 0 0
45 0 45 95 0 95 0 0 -45z m420 0 l0 -45 -95 0 -95 0 0 45 0 45 95 0 95 0 0
-45z m1300 0 l0 -45 -95 0 -95 0 0 45 0 45 95 0 95 0 0 -45z m420 0 l0 -45
-95 0 -95 0 0 45 0 45 95 0 95 0 0 -45z m430 0 l0 -45 -95 0 -95 0 0 45 0 45
95 0 95 0 0 -45z m420 0 l0 -45 -95 0 -95 0 0 45 0 45 95 0 95 0 0 -45z m430
0 l0 -45 -95 0 -95 0 0 45 0 45 95 0 95 0 0 -45z m420 0 l0 -45 -95 0 -95 0 0
45 0 45 95 0 95 0 0 -45z m650 -325 l0 -50 50 0 c43 0 50 3 50 20 0 16 7 20
30 20 23 0 30 -4 30 -20 0 -17 7 -20 45 -20 l45 0 0 -45 0 -45 -45 0 c-41 0
-45 -2 -45 -25 0 -21 -5 -25 -30 -25 -25 0 -30 4 -30 25 0 23 -3 25 -50 25
l-50 0 0 -55 0 -55 -50 0 -50 0 0 -35 c0 -35 0 -35 -45 -35 l-45 0 0 60 0 60
-50 0 c-43 0 -50 -3 -50 -20 0 -16 -7 -20 -30 -20 -23 0 -30 4 -30 20 0 17 -7
20 -45 20 l-45 0 0 45 0 45 45 0 c41 0 45 2 45 25 0 21 5 25 30 25 25 0 30 -4
30 -25 0 -23 3 -25 50 -25 l50 0 0 60 0 60 50 0 c43 0 50 3 50 20 0 17 7 20
45 20 l45 0 0 -50z m-3420 -50 l0 -60 50 0 c47 0 50 2 50 25 0 21 5 25 30 25
25 0 30 -4 30 -25 0 -23 4 -25 45 -25 l45 0 0 -45 0 -45 -45 0 c-38 0 -45 -3
-45 -20 0 -16 -7 -20 -30 -20 -23 0 -30 4 -30 20 0 17 -7 20 -50 20 l-50 0 0
-60 0 -60 -95 0 -95 0 0 60 0 60 -50 0 c-43 0 -50 -3 -50 -20 0 -16 -7 -20
-30 -20 -23 0 -30 4 -30 20 0 17 -7 20 -45 20 l-45 0 0 45 0 45 45 0 c41 0 45
2 45 25 0 21 5 25 30 25 25 0 30 -4 30 -25 0 -23 3 -25 50 -25 l50 0 0 60 0
60 95 0 95 0 0 -60z m-730 -580 l0 -210 -655 0 -655 0 0 210 0 210 655 0 655
0 0 -210z m4150 55 l0 -95 -50 0 -50 0 0 -105 0 -105 -45 0 -45 0 0 60 0 60
-50 0 c-47 0 -50 -2 -50 -25 0 -21 -5 -25 -30 -25 -25 0 -30 4 -30 25 0 23 -4
25 -45 25 l-45 0 0 45 0 45 45 0 c38 0 45 3 45 20 0 16 7 20 30 20 23 0 30 -4
30 -20 0 -17 7 -20 50 -20 l50 0 0 60 0 60 50 0 50 0 0 35 c0 35 0 35 45 35
l45 0 0 -95z m-3420 -35 l0 -60 50 0 c43 0 50 3 50 20 0 16 7 20 30 20 23 0
30 -4 30 -20 0 -17 7 -20 45 -20 l45 0 0 -45 0 -45 -45 0 c-41 0 -45 -2 -45
-25 0 -21 -5 -25 -30 -25 -25 0 -30 4 -30 25 0 23 -3 25 -50 25 l-50 0 0 -60
0 -60 -95 0 -95 0 0 60 0 60 -50 0 c-47 0 -50 -2 -50 -25 0 -21 -5 -25 -30
-25 -25 0 -30 4 -30 25 0 23 -4 25 -45 25 l-45 0 0 45 0 45 45 0 c38 0 45 3
45 20 0 16 7 20 30 20 23 0 30 -4 30 -20 0 -17 7 -20 50 -20 l50 0 0 60 0 60
95 0 95 0 0 -60z m3420 -390 l0 -100 -45 0 -45 0 0 100 0 100 45 0 45 0 0
-100z"/>
</g>
</svg>
